/* XPM */
static char * back_warrior_R_xpm[] = {
"40 37 355 2",
"  	c None",
". 	c #473338",
"+ 	c #7C544C",
"@ 	c #82574F",
"# 	c #956357",
"$ 	c #6E4A46",
"% 	c #362A34",
"& 	c #52393C",
"* 	c #BD7E6A",
"= 	c #A36D5E",
"- 	c #916155",
"; 	c #C5836E",
"> 	c #C4816D",
", 	c #AC6E60",
"' 	c #322833",
") 	c #211C2E",
"! 	c #BA7C69",
"~ 	c #644041",
"{ 	c #BE7E6A",
"] 	c #C4806C",
"^ 	c #B75957",
"/ 	c #B35454",
"( 	c #7E424C",
"_ 	c #322439",
": 	c #D5B583",
"< 	c #5B2E38",
"[ 	c #C47F6C",
"} 	c #C17767",
"| 	c #B96E62",
"1 	c #BE6F63",
"2 	c #8D4347",
"3 	c #9E4D57",
"4 	c #422B42",
"5 	c #CEC2B4",
"6 	c #D9BD93",
"7 	c #8C5C52",
"8 	c #C37E6B",
"9 	c #C5826D",
"0 	c #B85D59",
"a 	c #B55555",
"b 	c #6E363E",
"c 	c #B05355",
"d 	c #231F33",
"e 	c #B8B6A4",
"f 	c #F9F5F1",
"g 	c #B49F83",
"h 	c #6F4645",
"i 	c #BE7163",
"j 	c #B55455",
"k 	c #5E3240",
"l 	c #924549",
"m 	c #161C2E",
"n 	c #B1AC82",
"o 	c #F7F2E8",
"p 	c #E7E3D3",
"q 	c #3A2432",
"r 	c #A65954",
"s 	c #BF7365",
"t 	c #BF7264",
"u 	c #B65856",
"v 	c #8B4246",
"w 	c #58344E",
"x 	c #7A3B41",
"y 	c #AC9F78",
"z 	c #DDC699",
"A 	c #F1E9CF",
"B 	c #C7BCAE",
"C 	c #101B2E",
"D 	c #6F373E",
"E 	c #934649",
"F 	c #61313B",
"G 	c #4E304A",
"H 	c #5B3651",
"I 	c #131B2E",
"J 	c #413939",
"K 	c #D2B786",
"L 	c #DFC998",
"M 	c #D7D1A4",
"N 	c #3F3E3D",
"O 	c #706A57",
"P 	c #312439",
"Q 	c #53324C",
"R 	c #5C3752",
"S 	c #847A64",
"T 	c #0E172C",
"U 	c #8C775B",
"V 	c #D6B785",
"W 	c #E8DFA6",
"X 	c #615F4F",
"Y 	c #8A8470",
"Z 	c #F0E8C9",
"` 	c #B2AFA5",
" .	c #A89E7A",
"..	c #CCC2AD",
"+.	c #E4DAB8",
"@.	c #877D64",
"#.	c #141B2E",
"$.	c #524840",
"%.	c #D2B281",
"&.	c #BEB084",
"*.	c #C5C090",
"=.	c #10192D",
"-.	c #856C60",
";.	c #856F5D",
">.	c #ACA195",
",.	c #D8D4C6",
"'.	c #FBF7EA",
").	c #F5EEDE",
"!.	c #D1B896",
"~.	c #9D816D",
"{.	c #67554F",
"].	c #B0966E",
"^.	c #B39971",
"/.	c #E1D9A3",
"(.	c #6E6C57",
"_.	c #4A3F40",
":.	c #9A7E6C",
"<.	c #D0B081",
"[.	c #E4CF9B",
"}.	c #EFE1AA",
"|.	c #EFE0AA",
"1.	c #D9BD8A",
"2.	c #BE9F79",
"3.	c #957A6A",
"4.	c #50463F",
"5.	c #CDAE7E",
"6.	c #B0A680",
"7.	c #9D9370",
"8.	c #846D5D",
"9.	c #C1A27B",
"0.	c #D6B684",
"a.	c #EDDEAC",
"b.	c #FDFBF5",
"c.	c #FEFDFB",
"d.	c #F7F0D7",
"e.	c #E1CA96",
"f.	c #9C806D",
"g.	c #66544E",
"h.	c #6D5D4B",
"i.	c #574B41",
"j.	c #BDA176",
"k.	c #796851",
"l.	c #B89D73",
"m.	c #353035",
"n.	c #A46B5D",
"o.	c #6F4B47",
"p.	c #0F192D",
"q.	c #907666",
"r.	c #B29475",
"s.	c #D3B382",
"t.	c #E1CB97",
"u.	c #EFE3B8",
"v.	c #FBF8EF",
"w.	c #F1E5B7",
"x.	c #EEDFA9",
"y.	c #D1B281",
"z.	c #A3876F",
"A.	c #836B5F",
"B.	c #605346",
"C.	c #BEA276",
"D.	c #4D433D",
"E.	c #4C423E",
"F.	c #937A65",
"G.	c #907B5D",
"H.	c #56353B",
"I.	c #A9685C",
"J.	c #1F1F2F",
"K.	c #4D4041",
"L.	c #937768",
"M.	c #C6A77D",
"N.	c #E5D09C",
"O.	c #F3EAD2",
"P.	c #F6EFDC",
"Q.	c #FEFEFC",
"R.	c #F6EFD7",
"S.	c #D2B282",
"T.	c #CFAF80",
"U.	c #846C5F",
"V.	c #181D2E",
"W.	c #7A6756",
"X.	c #B99D73",
"Y.	c #71604F",
"Z.	c #191D2F",
"`.	c #262233",
" +	c #483D3F",
".+	c #693F3F",
"++	c #A44D4F",
"@+	c #AA5E57",
"#+	c #514443",
"$+	c #967A6B",
"%+	c #D1B181",
"&+	c #E3CD99",
"*+	c #F2E7BD",
"=+	c #F7F1DC",
"-+	c #F1E5B8",
";+	c #BD9F79",
">+	c #947969",
",+	c #957B68",
"'+	c #BA9D77",
")+	c #B99E74",
"!+	c #978363",
"~+	c #5E5C4D",
"{+	c #532C37",
"]+	c #4C2D41",
"^+	c #422A42",
"/+	c #5C3651",
"(+	c #9F4C53",
"_+	c #7D4044",
":+	c #3C2834",
"<+	c #4F4242",
"[+	c #967A6A",
"}+	c #C9AA7E",
"|+	c #E2CC98",
"1+	c #F3E8C3",
"2+	c #F7EFD7",
"3+	c #F0E4B4",
"4+	c #EDDEA8",
"5+	c #E0C894",
"6+	c #D7B886",
"7+	c #BB9D79",
"8+	c #876F61",
"9+	c #212231",
"0+	c #95796A",
"a+	c #977B6B",
"b+	c #846B60",
"c+	c #6C5C53",
"d+	c #7B735B",
"e+	c #CDC090",
"f+	c #6F6753",
"g+	c #402A41",
"h+	c #57344F",
"i+	c #3F2A40",
"j+	c #816F56",
"k+	c #A88C70",
"l+	c #6E5B53",
"m+	c #967C68",
"n+	c #D9BC89",
"o+	c #F2E7BF",
"p+	c #FFFEFE",
"q+	c #FAF7EB",
"r+	c #E5D19C",
"s+	c #E7D49F",
"t+	c #D8BA88",
"u+	c #CBAC7F",
"v+	c #9F836E",
"w+	c #3A3339",
"x+	c #897062",
"y+	c #A59A75",
"z+	c #675848",
"A+	c #141C2D",
"B+	c #151C2E",
"C+	c #816E55",
"D+	c #D6B583",
"E+	c #CCAD7F",
"F+	c #715D54",
"G+	c #2F2B35",
"H+	c #947869",
"I+	c #B49979",
"J+	c #E6D29D",
"K+	c #F5ECCF",
"L+	c #F8F2DE",
"M+	c #E9D8A4",
"N+	c #C8A97E",
"O+	c #B69977",
"P+	c #856D60",
"Q+	c #594A48",
"R+	c #927768",
"S+	c #9F8665",
"T+	c #685949",
"U+	c #584C42",
"V+	c #937D5F",
"W+	c #715F52",
"X+	c #161B2E",
"Y+	c #4E4142",
"Z+	c #C7A97D",
"`+	c #E0C895",
" @	c #A78A71",
".@	c #967B68",
"+@	c #3B343A",
"@@	c #63524D",
"#@	c #AD926F",
"$@	c #171C2E",
"%@	c #472D45",
"&@	c #8A7063",
"*@	c #CEAE80",
"=@	c #DDC390",
"-@	c #D7B986",
";@	c #E0CA97",
">@	c #947967",
",@	c #695650",
"'@	c #2B2236",
")@	c #2E2237",
"!@	c #8B7164",
"~@	c #B59875",
"{@	c #2C2236",
"]@	c #4B2F47",
"^@	c #302438",
"/@	c #1A1F2E",
"(@	c #38273C",
"_@	c #4F304A",
":@	c #623A56",
"<@	c #643B58",
"[@	c #3B283E",
"}@	c #62514C",
"|@	c #8F7466",
"1@	c #998165",
"2@	c #685A49",
"3@	c #50314A",
"4@	c #874559",
"5@	c #994B57",
"6@	c #854559",
"7@	c #6F3E5A",
"8@	c #683D5B",
"9@	c #74405A",
"0@	c #7E435A",
"a@	c #7D435A",
"b@	c #4D2F48",
"c@	c #534544",
"d@	c #8F7566",
"e@	c #715D53",
"f@	c #584B44",
"g@	c #4A2E47",
"h@	c #914958",
"i@	c #B65555",
"j@	c #B45455",
"k@	c #894659",
"l@	c #7B425A",
"m@	c #4D3049",
"n@	c #7C655B",
"o@	c #715D55",
"p@	c #282134",
"q@	c #683B54",
"r@	c #B35455",
"s@	c #AD5256",
"t@	c #79415A",
"u@	c #633A57",
"v@	c #201F31",
"w@	c #5E4E4A",
"x@	c #796359",
"y@	c #493E3F",
"z@	c #1B1E2F",
"A@	c #6C3B52",
"B@	c #A04D57",
"C@	c #AC5256",
"D@	c #A34E57",
"E@	c #663C59",
"F@	c #482D46",
"G@	c #4C4041",
"H@	c #5F4F4B",
"I@	c #363037",
"J@	c #282135",
"K@	c #2A2236",
"L@	c #292135",
"M@	c #2A2135",
"N@	c #151B2E",
"                                                                                ",
"                                                                                ",
"                                                                                ",
"                                                                                ",
"                                      . + @ # $ %                               ",
"                                    & * = - ; > , '                             ",
"                                  ) ! > ~ { ] ^ / ( _                           ",
"          :                       < [ } | ; 1 / 2 3 4                           ",
"          5 6                     7 [ 1 8 9 0 a b c d                           ",
"          e f g                   h > ] ] ; i j k l m                           ",
"          n o p                   q r s s t u v w x                             ",
"          y z A B                   C D E E F G H I                             ",
"          J K L M                     N O P Q R S T                             ",
"            U V W X                 I Y Z `  ...+.@.#.                          ",
"            $.%.&.*.              =.-.;.>.,.'.).!.~.{.m                         ",
"              ].^./.(.            _.:.<.[.}.}.|.1.2.3.m                         ",
"              4.5.6.7.          #.8.9.0.a.b.c.d.e.: f.g.h.i.                    ",
"                j.k.l.m.n.o.    p.q.r.s.t.u.v.w.x.y.z.A.B.C.D.                  ",
"                E.F.G.G.H.I.J.  K.L.M.N.O.P.Q.R.|.S.T.U.V.W.X.Y.Z.              ",
"                `.U. +.+++@+    #+$+%+&+*+=+=+-+|.0.;+>+V.3.,+'+)+!+~+          ",
"              {+]+^+/+(+_+:+    <+[+}+|+1+2+3+4+5+6+7+8+9+0+a+b+c+d+e+f+        ",
"              m g+h+i+j+k+l+m   m m+}+n+o+p+q+r+s+t+u+v+w+3.a+a+a+x+y+z+        ",
"                A+B+C+D+E+F+m   G+H+$+I+J+K+L+}.M+N+O+P+Q+a+a+a+a+R+S+T+        ",
"                    U+V+W+X+      Y+>+Z+: N.|.`+2. @.@+@@@a+a+a+a+a+#@T+        ",
"                      m $@%@m     m <+&@*@=@-@;@>@,@'@h+)@!@a+a+a+>+~@T+        ",
"                          m       {@]@^@/@/@/@/@(@_@:@<@[@}@a+a+a+|@1@2@        ",
"                                m 3@4@5@6@6@6@7@8@9@0@a@b@c@a+a+a+d@e@f@        ",
"                                  g@h@i@i@i@i@a j@a k@l@m@ +a+a+a+n@o@V.        ",
"                                  p@q@r@i@i@i@i@i@s@t@u@v@  w@a+x@y@z@          ",
"                                    $@A@B@C@C@C@D@0@E@F@m     G@H@I@            ",
"                                    m B+J@K@K@J@L@M@d B+        N@              ",
"                                    m m         m m m                           ",
"                                    m m         m m                             ",
"                                    m m           m                             ",
"                                                                                ",
"                                                                                ",
"                                                                                "};
