/* XPM */
static char * back_warrior_L_xpm[] = {
"39 40 432 2",
"  	c None",
". 	c #131B2E",
"+ 	c #4D373A",
"@ 	c #81564E",
"# 	c #996659",
"$ 	c #885B51",
"% 	c #895C52",
"& 	c #533A3C",
"* 	c #111A2D",
"= 	c #161C2E",
"- 	c #714C48",
"; 	c #C2816C",
"> 	c #C5836E",
", 	c #82584F",
"' 	c #A16C5D",
") 	c #C4836E",
"! 	c #83584F",
"~ 	c #151C2E",
"{ 	c #1E1E30",
"] 	c #3E293E",
"^ 	c #B75F5A",
"/ 	c #B75756",
"( 	c #BE7063",
"_ 	c #BB7D69",
": 	c #2D2532",
"< 	c #BE7D6A",
"[ 	c #79514B",
"} 	c #36263B",
"| 	c #854456",
"1 	c #B65555",
"2 	c #9B494C",
"3 	c #B65756",
"4 	c #C27C6A",
"5 	c #A66B5D",
"6 	c #BA6D61",
"7 	c #B26C5F",
"8 	c #32243A",
"9 	c #934958",
"0 	c #A44D4F",
"a 	c #7D3C42",
"b 	c #BE7164",
"c 	c #C37E6B",
"d 	c #B85D59",
"e 	c #B9695F",
"f 	c #2F2732",
"g 	c #0F1B2D",
"h 	c #9B494B",
"i 	c #7A3B41",
"j 	c #A54D4F",
"k 	c #BB685E",
"l 	c #C5826E",
"m 	c #BB655D",
"n 	c #7C534C",
"o 	c #7B3C42",
"p 	c #83404B",
"q 	c #8F4448",
"r 	c #C17868",
"s 	c #C27B69",
"t 	c #BD7666",
"u 	c #272231",
"v 	c #4C2A36",
"w 	c #8D4757",
"x 	c #502D3C",
"y 	c #AA5051",
"z 	c #B85B58",
"A 	c #C07667",
"B 	c #C17767",
"C 	c #C07365",
"D 	c #894347",
"E 	c #181C2E",
"F 	c #4D2E45",
"G 	c #5E3753",
"H 	c #372435",
"I 	c #8C4247",
"J 	c #B05253",
"K 	c #9D4A4C",
"L 	c #5C2F39",
"M 	c #1C1D2E",
"N 	c #17152F",
"O 	c #5C3752",
"P 	c #312439",
"Q 	c #0E1B2D",
"R 	c #00122B",
"S 	c #121B2E",
"T 	c #716B58",
"U 	c #DBCE9D",
"V 	c #666052",
"W 	c #4E3149",
"X 	c #654956",
"Y 	c #6B5957",
"Z 	c #D8CC9D",
"` 	c #A49B79",
" .	c #10182D",
"..	c #43393D",
"+.	c #302F39",
"@.	c #DED9C9",
"#.	c #FBF7E9",
"$.	c #D2CEC3",
"%.	c #EBE2C0",
"&.	c #FAF5E6",
"*.	c #DED4BB",
"=.	c #605453",
"-.	c #5A4B48",
";.	c #151B2E",
">.	c #D2B280",
",.	c #B3A076",
"'.	c #C4BFB8",
").	c #F2E9DF",
"!.	c #F1E9DF",
"~.	c #C3AF94",
"{.	c #292733",
"].	c #947869",
"^.	c #A0856C",
"/.	c #9C8668",
"(.	c #BDB396",
"_.	c #E1DAC3",
":.	c #F8F2DE",
"<.	c #EEE1C3",
"[.	c #D5B689",
"}.	c #AA8D72",
"|.	c #8D7365",
"1.	c #2E2B35",
"2.	c #1F2330",
"3.	c #767777",
"4.	c #EEE6DB",
"5.	c #F7F4E0",
"6.	c #FEFDFB",
"7.	c #F9F7E9",
"8.	c #C0BDA1",
"9.	c #0B162C",
"0.	c #695650",
"a.	c #9A7E6C",
"b.	c #CEAF80",
"c.	c #DCC28F",
"d.	c #EFE1AA",
"e.	c #EEDFA9",
"f.	c #DABE8B",
"g.	c #CAAB7E",
"h.	c #9D806D",
"i.	c #715D55",
"j.	c #02172C",
"k.	c #000B2A",
"l.	c #6D6B57",
"m.	c #C5BF90",
"n.	c #F0EAB9",
"o.	c #EBE1BA",
"p.	c #E6D4BD",
"q.	c #D8BA8C",
"r.	c #DAD19C",
"s.	c #41413E",
"t.	c #9A8068",
"u.	c #BD9F79",
"v.	c #D5B583",
"w.	c #E5D19C",
"x.	c #F7F1DA",
"y.	c #FDFBF5",
"z.	c #F5EDD1",
"A.	c #E1CB97",
"B.	c #AF9274",
"C.	c #8F7566",
"D.	c #121C2E",
"E.	c #A97161",
"F.	c #5F4040",
"G.	c #202431",
"H.	c #73715A",
"I.	c #C3BD8F",
"J.	c #E6E0A7",
"K.	c #E6D9A1",
"L.	c #D9BD8A",
"M.	c #C8AA7B",
"N.	c #AB9B74",
"O.	c #827F64",
"P.	c #514443",
"Q.	c #A48870",
"R.	c #C1A27B",
"S.	c #D3B482",
"T.	c #E5D19D",
"U.	c #F1E4BA",
"V.	c #FBF7EC",
"W.	c #FDFBF4",
"X.	c #F0E2B0",
"Y.	c #ECDCA7",
"Z.	c #D6B785",
"`.	c #C1A37B",
" +	c #977B6B",
".+	c #5E4E4A",
"++	c #824A48",
"@+	c #4C2735",
"#+	c #645647",
"$+	c #BCAB7F",
"%+	c #C8C292",
"&+	c #4F4740",
"*+	c #1A202F",
"=+	c #D0B180",
"-+	c #CFB080",
";+	c #A88F6A",
">+	c #564B41",
",+	c #937869",
"'+	c #BA9C78",
")+	c #DDC492",
"!+	c #E1C997",
"~+	c #E4D09E",
"{+	c #F8F2DF",
"]+	c #F2E7C0",
"^+	c #EFE1AB",
"/+	c #D6B786",
"(+	c #B89A77",
"_+	c #A78B71",
":+	c #7F675C",
"<+	c #3D2934",
"[+	c #B29870",
"}+	c #C0A377",
"|+	c #897B5F",
"1+	c #8B795C",
"2+	c #A9906A",
"3+	c #0B172D",
"4+	c #9D8664",
"5+	c #50463F",
"6+	c #7D665B",
"7+	c #9A7D6C",
"8+	c #D4B483",
"9+	c #E0C996",
"0+	c #F7F0D7",
"a+	c #FEFEFC",
"b+	c #FFFFFF",
"c+	c #F3E8C2",
"d+	c #D7B987",
"e+	c #B59876",
"f+	c #584947",
"g+	c #222430",
"h+	c #816E55",
"i+	c #1B1F2F",
"j+	c #9C8563",
"k+	c #B59A71",
"l+	c #302832",
"m+	c #312131",
"n+	c #E0C995",
"o+	c #F1E6BB",
"p+	c #F2E7BF",
"q+	c #EFE1AC",
"r+	c #DCC18E",
"s+	c #C9AA7E",
"t+	c #987C6B",
"u+	c #856C60",
"v+	c #131A2D",
"w+	c #48403C",
"x+	c #A68E69",
"y+	c #754042",
"z+	c #A84F50",
"A+	c #62313B",
"B+	c #735E55",
"C+	c #9C806C",
"D+	c #CDAD80",
"E+	c #DFC693",
"F+	c #F1E4B6",
"G+	c #F8F3E1",
"H+	c #F6EED4",
"I+	c #EDDEA8",
"J+	c #EAD9A4",
"K+	c #DDC390",
"L+	c #CEAF7F",
"M+	c #B49773",
"N+	c #6F5B52",
"O+	c #615346",
"P+	c #A18966",
"Q+	c #B99B77",
"R+	c #977866",
"S+	c #A25855",
"T+	c #61313A",
"U+	c #483D3F",
"V+	c #AA8D71",
"W+	c #CDAE80",
"X+	c #D5B684",
"Y+	c #EFE1AE",
"Z+	c #FCFAF4",
"`+	c #FDFCF7",
" @	c #F6EED9",
".@	c #E4CF9B",
"+@	c #E8D5A0",
"@@	c #635A4B",
"#@	c #B3AE84",
"$@	c #CEC392",
"%@	c #B6A67C",
"&@	c #7B6D56",
"*@	c #957F60",
"=@	c #CCA87B",
"-@	c #66544E",
";@	c #B29576",
">@	c #EBDAA5",
",@	c #F1E6BE",
"'@	c #EFE0AA",
")@	c #4B4842",
"!@	c #B79F75",
"~@	c #5C5447",
"{@	c #8F7A5D",
"]@	c #CDAE7E",
"^@	c #D6B987",
"/@	c #D8BC89",
"(@	c #BD6C61",
"_@	c #BA655D",
":@	c #2B2833",
"<@	c #846C60",
"[@	c #967A6B",
"}@	c #D4B482",
"|@	c #DEC591",
"1@	c #EADAA4",
"2@	c #ECDCA6",
"3@	c #CDB285",
"4@	c #353036",
"5@	c #BBA77C",
"6@	c #635C4C",
"7@	c #E4D49D",
"8@	c #E7DAA4",
"9@	c #C17A69",
"0@	c #B75856",
"a@	c #242431",
"b@	c #A78A71",
"c@	c #DEC592",
"d@	c #E1CA96",
"e@	c #E1CB98",
"f@	c #302C35",
"g@	c #766353",
"h@	c #DBC28E",
"i@	c #E0CD97",
"j@	c #D5B287",
"k@	c #BC6A60",
"l@	c #B65455",
"m@	c #BC6F5F",
"n@	c #6B5046",
"o@	c #402A41",
"p@	c #39273D",
"q@	c #2A2833",
"r@	c #68554F",
"s@	c #9E8568",
"t@	c #B1976F",
"u@	c #B1966F",
"v@	c #B5A079",
"w@	c #715C55",
"x@	c #1E2030",
"y@	c #917864",
"z@	c #D9BE8A",
"A@	c #CFA57E",
"B@	c #C48870",
"C@	c #CDA17A",
"D@	c #D6B583",
"E@	c #72624E",
"F@	c #3F2940",
"G@	c #5B3652",
"H@	c #593550",
"I@	c #422B42",
"J@	c #282135",
"K@	c #462D45",
"L@	c #1D1D31",
"M@	c #A0846E",
"N@	c #D0A87C",
"O@	c #CFA57F",
"P@	c #EBE1A8",
"Q@	c #DEC893",
"R@	c #6C5D4B",
"S@	c #673C5A",
"T@	c #683D5B",
"U@	c #6A3D5B",
"V@	c #874659",
"W@	c #7D435A",
"X@	c #693D5B",
"Y@	c #7A425A",
"Z@	c #924959",
"`@	c #352232",
" #	c #7B6756",
".#	c #CFA77C",
"+#	c #C3846A",
"@#	c #D5B18A",
"##	c #E5D79F",
"$#	c #00102B",
"%#	c #472D45",
"&#	c #7E435A",
"*#	c #A14E57",
"=#	c #8D4759",
"-#	c #B45455",
";#	c #B25455",
">#	c #B75555",
",#	c #3A2332",
"'#	c #A18869",
")#	c #49373B",
"!#	c #B75956",
"~#	c #B9625B",
"{#	c #C79171",
"]#	c #D6B784",
"^#	c #947F5F",
"/#	c #1B1D2F",
"(#	c #4B2F47",
"_#	c #81445A",
":#	c #8B4759",
"<#	c #592E38",
"[#	c #766057",
"}#	c #594444",
"|#	c #B55354",
"1#	c #D0A97D",
"2#	c #AC926C",
"3#	c #1F2130",
"4#	c #141C2D",
"5#	c #4C2F48",
"6#	c #984B58",
"7#	c #AA5156",
"8#	c #6E3D58",
"9#	c #322738",
"0#	c #786258",
"a#	c #844145",
"b#	c #B55555",
"c#	c #BC7060",
"d#	c #D5B483",
"e#	c #AC936C",
"f#	c #262631",
"g#	c #302438",
"h#	c #5E3854",
"i#	c #7D425A",
"j#	c #A04E58",
"k#	c #974B58",
"l#	c #894659",
"m#	c #784159",
"n#	c #4D3049",
"o#	c #1E2130",
"p#	c #473D3F",
"q#	c #854346",
"r#	c #BE7361",
"s#	c #AB926C",
"t#	c #2A2135",
"u#	c #292135",
"v#	c #2B2236",
"w#	c #42393D",
"x#	c #693A3E",
"y#	c #282932",
"                                                                              ",
"                                                                              ",
"                          . + @ # $ % & *                                     ",
"                        = - ; > > , ' ) ! ~                                   ",
"                      { ] ^ / ( > _ : < ) [ =                                 ",
"                      } | 1 2 3 4 > 5 6 > 7 ~                                 ",
"                      8 9 0 a 1 b > c d > e f                                 ",
"                      g h i j 1 k l > m > > n                                 ",
"                      = o p q 1 r > > s > t u                                 ",
"                        v w x y z A B B C D ~                                 ",
"                        E F G H I J J K L M                                   ",
"                        = N O O P Q R S =                                     ",
"                      = T U V W X Y Z `  .                                    ",
"                    = ..+.@.#.$.%.&.*.=.-.;.                    >.,.'.).!.~.  ",
"                    {.].^./.(._.:.<.[.}.|.1.                2.3.4.5.6.7.8.9.  ",
"                  = 0.a.b.c.d.d.d.e.f.g.h.i.= j.        k.l.m.n.o.p.q.r.s.    ",
"                  ~ t.u.v.w.x.y.y.z.A.v.B.C.D.E.F.  G.H.I.J.K.L.v.M.N.O.      ",
"                  P.Q.R.S.T.U.V.W.X.Y.Z.`. +.+++@+#+$+%+&+*+=+-+;+>+=         ",
"                = -.,+'+)+!+~+{+{+]+^+/+(+_+:+<+[+}+|+1+2+3+4+5+3+            ",
"                = 6+7+8+9+0+a+b+b+c+^+d+v.e+f+g+h+i+j+k+l+m+=                 ",
"                = 6+7+v.n+d.o+p+p+q+^+r+s+t+u+v+w+x+k+y+z+A+                  ",
"                = B+C+D+E+F+G+H+I+J+K+L+M+N+O+P+Q+R+S+1 1 T+                  ",
"                = U+V+W+X+Y+Z+`+ @.@+@@@#@$@%@&@*@=@/ 1 1 T+                  ",
"                  -@ +t+;@>@,@W.{+^+'@)@!@~@{@]@^@/@(@_@1 T+                  ",
"                  :@<@[@`.}@|@1@2@w.3@4@5@6@v.X+7@8@9@0@1 T+                  ",
"                = = a@<@b@s+c@>@d@e@e+f@k+g@v.h@i@j@k@l@m@n@                  ",
"                = o@p@q@r@s@t@u@t@v@w@x@k+y@v./@z@A@B@C@D@E@                  ",
"                = F@G@H@I@J@J@J@J@J@K@L@k+M@v.v.N@O@P@Q@8+R@                  ",
"              = = P S@T@U@V@W@X@X@Y@Z@`@k+ #.#+#b @###d+M.$#                  ",
"              = = %#&#*#=#1 -#;#;#-#>#,#'#)#!#~#A {#]#v.^#                    ",
"                /#(#S@_#:#1 1 1 1 1 1 <#[#}#1 1 |#1#v.2#3#                    ",
"                = 4#5#T@6#-#1 1 1 -#7#8#9#0#a#b#c#d#e#f#                      ",
"                  = g#h#X@i#j#k#l#m#G@n#~ o#p#q#r#s#i+                        ",
"                    = /#t#t#u#t#v#u#~ = =   w#r@x#y#                          ",
"                      = = = =       = = =     = =                             ",
"                        = =           = =                                     ",
"                      = = =         = = =                                     ",
"                                                                              ",
"                                                                              ",
"                                                                              "};
