/* XPM */
static char * back_gobelin_R_xpm[] = {
"40 33 436 2",
"  	c None",
". 	c #DC9E5D",
"+ 	c #E7BA57",
"@ 	c #E4B259",
"# 	c #DA965E",
"$ 	c #D9945F",
"% 	c #161F30",
"& 	c #1B2E3E",
"* 	c #1C3140",
"= 	c #1B2E3D",
"- 	c #DFA75B",
"; 	c #DC9D5D",
"> 	c #DA965F",
", 	c #1A2A3A",
"' 	c #326C7D",
") 	c #3B7F91",
"! 	c #387581",
"~ 	c #2F5C60",
"{ 	c #1D313B",
"] 	c #EFCA52",
"^ 	c #F7DC4B",
"/ 	c #F9E04A",
"( 	c #F1D050",
"_ 	c #DFA65B",
": 	c #DC9C5E",
"< 	c #DA985E",
"[ 	c #191F33",
"} 	c #1D3645",
"| 	c #377889",
"1 	c #40899A",
"2 	c #49969B",
"3 	c #3F7D7C",
"4 	c #284D50",
"5 	c #D9935F",
"6 	c #DA975E",
"7 	c #E4B159",
"8 	c #ECC454",
"9 	c #E6B657",
"0 	c #E9BF55",
"a 	c #E9BC56",
"b 	c #DB9A5E",
"c 	c #1C2338",
"d 	c #323D5D",
"e 	c #2F3B5A",
"f 	c #2E5668",
"g 	c #3C8193",
"h 	c #408999",
"i 	c #4FA1A3",
"j 	c #458A87",
"k 	c #171F30",
"l 	c #D8915F",
"m 	c #EFCB51",
"n 	c #FDE846",
"o 	c #232C44",
"p 	c #3C4A6F",
"q 	c #3E4C73",
"r 	c #3B4D6F",
"s 	c #3E6883",
"t 	c #3E8094",
"u 	c #418B9A",
"v 	c #49969C",
"w 	c #3E7B78",
"x 	c #D8935F",
"y 	c #E7B957",
"z 	c #FCE747",
"A 	c #FBE448",
"B 	c #E0A95B",
"C 	c #1E5236",
"D 	c #2F8442",
"E 	c #417B41",
"F 	c #1F263D",
"G 	c #212940",
"H 	c #2E3856",
"I 	c #3F5175",
"J 	c #3F778D",
"K 	c #3E8395",
"L 	c #3F8798",
"M 	c #4D9DA1",
"N 	c #54A8A1",
"O 	c #376E6D",
"P 	c #2F663B",
"Q 	c #295937",
"R 	c #B97D54",
"S 	c #ECC355",
"T 	c #FEEB45",
"U 	c #F0CE50",
"V 	c #2A7D43",
"W 	c #54B054",
"X 	c #598A46",
"Y 	c #3D5839",
"Z 	c #2B3452",
"` 	c #3E4C71",
" .	c #354263",
"..	c #3D4E71",
"+.	c #3F788F",
"@.	c #4A989F",
"#.	c #4D9FA2",
"$.	c #55ABA8",
"%.	c #53A9A7",
"&.	c #3B787B",
"*.	c #1E3F38",
"=.	c #317D41",
"-.	c #65B053",
";.	c #547F43",
">.	c #B17E4F",
",.	c #F1CF51",
"'.	c #FFED44",
").	c #F6DB4C",
"!.	c #DEA15C",
"~.	c #264E41",
"{.	c #3C9057",
"].	c #7AC45C",
"^.	c #70A150",
"/.	c #303D53",
"(.	c #404F76",
"_.	c #404E75",
":.	c #405B7C",
"<.	c #3F748C",
"[.	c #448D9A",
"}.	c #47949E",
"|.	c #48959E",
"1.	c #448F9C",
"2.	c #2F5F71",
"3.	c #1F333D",
"4.	c #337151",
"5.	c #52B754",
"6.	c #67A24F",
"7.	c #786B36",
"8.	c #DFC349",
"9.	c #FDE847",
"0.	c #FAE449",
"a.	c #E1B654",
"b.	c #356657",
"c.	c #51A85B",
"d.	c #80C35B",
"e.	c #5F885B",
"f.	c #3F4C73",
"g.	c #3F617F",
"h.	c #3F6984",
"i.	c #3F607F",
"j.	c #3F758C",
"k.	c #3E8396",
"l.	c #3E8698",
"m.	c #428C9A",
"n.	c #4A9099",
"o.	c #36596B",
"p.	c #375F5A",
"q.	c #409E5B",
"r.	c #60B453",
"s.	c #588144",
"t.	c #BDB03A",
"u.	c #FEEC44",
"v.	c #FBE549",
"w.	c #D2AC4E",
"x.	c #284346",
"y.	c #3B7F5D",
"z.	c #46A452",
"A.	c #415D5F",
"B.	c #405579",
"C.	c #3F728A",
"D.	c #3E7C91",
"E.	c #3E8597",
"F.	c #417A8F",
"G.	c #3C516F",
"H.	c #3D6964",
"I.	c #43A757",
"J.	c #60A24E",
"K.	c #38332F",
"L.	c #DFCF3F",
"M.	c #FAE24A",
"N.	c #C79851",
"O.	c #181F31",
"P.	c #233941",
"Q.	c #284C4A",
"R.	c #405277",
"S.	c #3F6B86",
"T.	c #3F768D",
"U.	c #3E8295",
"V.	c #3E8195",
"W.	c #3F6683",
"X.	c #3D5274",
"Y.	c #33555B",
"Z.	c #357551",
"`.	c #345036",
" +	c #E2D23F",
".+	c #F2DA48",
"++	c #A67D48",
"@+	c #232C45",
"#+	c #344061",
"$+	c #3E4B71",
"%+	c #405177",
"&+	c #405C7D",
"*+	c #3E768D",
"=+	c #3E8194",
"-+	c #448897",
";+	c #488D8D",
">+	c #3C7776",
",+	c #1F3740",
"'+	c #DACA53",
")+	c #FCE94E",
"!+	c #FFED43",
"~+	c #D6C63F",
"{+	c #574934",
"]+	c #29334E",
"^+	c #3E4C72",
"/+	c #405A7B",
"(+	c #3F6F88",
"_+	c #3F6783",
":+	c #3E7F93",
"<+	c #3F899A",
"[+	c #45919D",
"}+	c #46949E",
"|+	c #44909C",
"1+	c #4EA0A3",
"2+	c #52A5A6",
"3+	c #55AAA4",
"4+	c #2E595B",
"5+	c #988666",
"6+	c #D6C48B",
"7+	c #F2E188",
"8+	c #F7E464",
"9+	c #F2E149",
"0+	c #E4D440",
"a+	c #8D8435",
"b+	c #192034",
"c+	c #404D74",
"d+	c #405578",
"e+	c #3F8698",
"f+	c #4A99A0",
"g+	c #45919C",
"h+	c #418A99",
"i+	c #458C8E",
"j+	c #213C44",
"k+	c #726753",
"l+	c #B4A27A",
"m+	c #DACA99",
"n+	c #EEDFA6",
"o+	c #D6C388",
"p+	c #B4A64F",
"q+	c #978D36",
"r+	c #1B2237",
"s+	c #3F4D74",
"t+	c #405679",
"u+	c #3F6D87",
"v+	c #3F6E88",
"w+	c #3F6C86",
"x+	c #3F8395",
"y+	c #408798",
"z+	c #3E7E93",
"A+	c #3E798F",
"B+	c #365E75",
"C+	c #223B47",
"D+	c #4A423D",
"E+	c #937E60",
"F+	c #978768",
"G+	c #DAC695",
"H+	c #A28D6A",
"I+	c #5A4F40",
"J+	c #17242F",
"K+	c #1E5336",
"L+	c #25703D",
"M+	c #1F5436",
"N+	c #20283F",
"O+	c #333F5F",
"P+	c #3B486D",
"Q+	c #3F4E74",
"R+	c #3E4D73",
"S+	c #3F4D73",
"T+	c #40597B",
"U+	c #405E7E",
"V+	c #3F5C7C",
"W+	c #3D4F72",
"X+	c #354162",
"Y+	c #202C40",
"Z+	c #171D2F",
"`+	c #3A333A",
" @	c #443B40",
".@	c #302C36",
"+@	c #7F6D55",
"@@	c #B39871",
"#@	c #363235",
"$@	c #181D2E",
"%@	c #33A04B",
"&@	c #38B151",
"*@	c #2A8342",
"=@	c #253435",
"-@	c #2D3958",
";@	c #3D4A6F",
">@	c #404E74",
",@	c #39466A",
"'@	c #323E5D",
")@	c #3A466A",
"!@	c #3D4E72",
"~@	c #35556E",
"{@	c #2C5566",
"]@	c #254B5A",
"^@	c #61504C",
"/@	c #7D675F",
"(@	c #4A3F44",
"_@	c #3C3638",
":@	c #6A5A4A",
"<@	c #171C2E",
"[@	c #161F2E",
"}@	c #287A3F",
"|@	c #38B351",
"1@	c #36AB4F",
"2@	c #23693B",
"3@	c #403B3F",
"4@	c #51474F",
"5@	c #3A4465",
"6@	c #384568",
"7@	c #394569",
"8@	c #3A476B",
"9@	c #3F587A",
"0@	c #3E6E87",
"a@	c #39778B",
"b@	c #337384",
"c@	c #25505F",
"d@	c #287940",
"e@	c #293E36",
"f@	c #6C5953",
"g@	c #7C665F",
"h@	c #40383F",
"i@	c #151B2E",
"j@	c #1E5035",
"k@	c #319A49",
"l@	c #298041",
"m@	c #183031",
"n@	c #2E2C3B",
"o@	c #60504D",
"p@	c #4F454D",
"q@	c #3B3A4D",
"r@	c #363E5C",
"s@	c #374264",
"t@	c #374466",
"u@	c #345067",
"v@	c #3D505B",
"w@	c #535A5A",
"x@	c #6C645D",
"y@	c #947F64",
"z@	c #49403C",
"A@	c #15132D",
"B@	c #2D634B",
"C@	c #38A44E",
"D@	c #4A7641",
"E@	c #463B40",
"F@	c #473D42",
"G@	c #1B4032",
"H@	c #18332F",
"I@	c #242D46",
"J@	c #394669",
"K@	c #3B425F",
"L@	c #4E454D",
"M@	c #6D5A56",
"N@	c #625353",
"O@	c #6B5955",
"P@	c #433C46",
"Q@	c #3F3944",
"R@	c #726253",
"S@	c #A28A6A",
"T@	c #9C8269",
"U@	c #B79B73",
"V@	c #977E66",
"W@	c #706051",
"X@	c #2B2A33",
"Y@	c #1F323A",
"Z@	c #3A675F",
"`@	c #42A658",
" #	c #7EC25A",
".#	c #5E8747",
"+#	c #1A1B2F",
"@#	c #303B59",
"##	c #303A58",
"$#	c #3D3B4C",
"%#	c #4F464E",
"&#	c #615254",
"*#	c #6A5857",
"=#	c #887361",
"-#	c #A18B6C",
";#	c #272F4A",
">#	c #2D3753",
",#	c #2F4D62",
"'#	c #192637",
")#	c #253E42",
"!#	c #3C6861",
"~#	c #3D9D5B",
"{#	c #55B954",
"]#	c #609A4B",
"^#	c #14132E",
"/#	c #222B43",
"(#	c #303C5B",
"_#	c #3D4A70",
":#	c #3B496E",
"<#	c #334063",
"[#	c #2F3D5F",
"}#	c #2C3C5F",
"|#	c #2F4167",
"1#	c #3C5676",
"2#	c #3E6581",
"3#	c #406986",
"4#	c #3C7A8E",
"5#	c #21414F",
"6#	c #272532",
"7#	c #36333B",
"8#	c #314B4B",
"9#	c #368B54",
"0#	c #2F9849",
"a#	c #1E683A",
"b#	c #161C2F",
"c#	c #1F273D",
"d#	c #27314B",
"e#	c #2C3754",
"f#	c #364264",
"g#	c #3C496F",
"h#	c #404E76",
"i#	c #39476A",
"j#	c #376279",
"k#	c #377385",
"l#	c #326979",
"m#	c #2A5867",
"n#	c #203E4C",
"o#	c #43393D",
"p#	c #62514F",
"q#	c #312C37",
"r#	c #205B38",
"s#	c #215D38",
"t#	c #161C2E",
"u#	c #181E31",
"v#	c #212941",
"w#	c #252E47",
"x#	c #232B43",
"y#	c #212B42",
"z#	c #1E3344",
"A#	c #1D3644",
"B#	c #383239",
"C#	c #222332",
"                                                                                ",
"                                                                                ",
"                                                                                ",
"                                                            . + @ # $           ",
"                        % & * =                             - ; >               ",
"                        , ' ) ! ~ {                 $ ; ] ^ / ( _ : <           ",
"                        [ } | 1 2 3 4           $ $ $ $ 5 6 7 8 9 0 a b         ",
"                      c d e f g h i j k                       l $ m n 8 5       ",
"                      o p q r s t u v w                         x y z A B       ",
"          C D E     F G H I J K L h M N O       P Q             R S T T U       ",
"            V W X Y Z `  ...+.h @.#.$.%.&.  *.=.-.;.            >.,.'.'.).!.    ",
"            ~.{.].^./.q (._.:.<.[.}.|.1.2.3.4.5.6.            7.8.9.'.'.0.a.    ",
"              b.c.d.e.f.g.h.i.j.k.l.m.n.o.p.q.r.s.            t.u.'.'.'.v.w.    ",
"              x.y.z.A._.B.C.D.E.l.l.l.F.G.H.I.J.            K.L.'.'.'.'.M.N.    ",
"              O.P.Q.p _._.R.:.S.T.U.V.W.X.Y.Z.`.               +'.'.'.'..+++    ",
"              @+#+$+_._.%+&+j.C.C.*+=+k.-+;+>+,+              '+)+!+'.u.~+{+    ",
"              ]+^+_._./+(+_+:+<+[+}+1.|+1+2+3+4+            5+6+7+8+9+0+a+      ",
"              b+d c+_.d+T.t U.e+[+f+m.m.g+h+i+j+          k+l+m+n+o+p+q+        ",
"                r+d s+_.t+u+v+w+x+y+k.z+A+B+C+            D+E+F+G+H+I+          ",
"        J+K+L+M+  N+O+P+s+Q+R+S+T+U+V+W+X+Y+Z+          `+ @.@+@@@#@$@          ",
"        M+%@&@*@=@-@;@$+>@,@'@#+)@f.!@~@{@]@            ^@/@(@_@:@<@            ",
"      [@}@|@1@2@3@4@5@^+_.$+6@7@8@9@0@a@b@c@        d@e@f@g@h@i@                ",
"        j@k@l@m@n@o@p@q@r@s@^+^+t@u@v@w@x@y@z@  A@B@C@D@E@F@                    ",
"          G@H@I@J@K@L@M@N@O@P@Q@R@S@T@U@V@W@X@  Y@Z@`@ #.#+#                    ",
"              @#$+c+8@##$#%#&#*#=#-#L@;#>#,#'#  )#!#~#{#]#^#                    ",
"              /#(#6@_#_.$+:#<#[#}#|#1#2#3#4#5#6#7#8#9#0#a#                      ",
"                b#c#d#e#f#6@g#h#$+i#j#k#l#m#n#o#p#q#r#s#                        ",
"                t#t#t#u#N+G v#w#x#y#z#A#}       B#C#                            ",
"                  t#                  t#t#                                      ",
"                                        t#                                      ",
"                                                                                ",
"                                                                                ",
"                                                                                "};
