/* XPM */
static char * back_gobelin_L_xpm[] = {
"42 40 385 2",
"  	c None",
". 	c #192838",
"+ 	c #213F4E",
"@ 	c #1E3948",
"# 	c #151A2C",
"$ 	c #1A2A3A",
"% 	c #377687",
"& 	c #3D8495",
"* 	c #397780",
"= 	c #294E52",
"- 	c #161C2E",
"; 	c #234756",
"> 	c #3E8698",
", 	c #3F8799",
"' 	c #4F9F9F",
") 	c #2D585A",
"! 	c #171E2F",
"~ 	c #2A334F",
"{ 	c #354163",
"] 	c #222C43",
"^ 	c #367485",
"/ 	c #3F8899",
"( 	c #57AEA9",
"_ 	c #1A3C32",
": 	c #161A2E",
"< 	c #151B2D",
"[ 	c #3B486C",
"} 	c #404E75",
"| 	c #3F4C73",
"1 	c #3B4D6F",
"2 	c #3F7089",
"3 	c #46929D",
"4 	c #49918E",
"5 	c #192533",
"6 	c #D9945F",
"7 	c #16172E",
"8 	c #36AC4F",
"9 	c #3E723E",
"0 	c #181E31",
"a 	c #232C44",
"b 	c #212941",
"c 	c #3F6B85",
"d 	c #3E7B91",
"e 	c #3E8798",
"f 	c #57AEAA",
"g 	c #41827F",
"h 	c #2C8A44",
"i 	c #61BC56",
"j 	c #395337",
"k 	c #2E3957",
"l 	c #3F4D74",
"m 	c #323D5D",
"n 	c #404D75",
"o 	c #3E7F93",
"p 	c #408899",
"q 	c #408999",
"r 	c #5AB3AC",
"s 	c #58AFA8",
"t 	c #1B2B37",
"u 	c #17282F",
"v 	c #369849",
"w 	c #266039",
"x 	c #306A4E",
"y 	c #38A856",
"z 	c #8FD060",
"A 	c #48683C",
"B 	c #303B59",
"C 	c #3F6683",
"D 	c #4D9EA2",
"E 	c #54AAA8",
"F 	c #4B9BA0",
"G 	c #192736",
"H 	c #1D4E35",
"I 	c #2F9548",
"J 	c #87CD5E",
"K 	c #4C6D3E",
"L 	c #21363C",
"M 	c #3F8463",
"N 	c #68BF59",
"O 	c #86BF5A",
"P 	c #304241",
"Q 	c #404F75",
"R 	c #405A7B",
"S 	c #3E8094",
"T 	c #4E9FA3",
"U 	c #3E8597",
"V 	c #182535",
"W 	c #22383E",
"X 	c #3A9758",
"Y 	c #61BE57",
"Z 	c #6F9F4E",
"` 	c #38615C",
" .	c #3FAB56",
"..	c #68B554",
"+.	c #557565",
"@.	c #3F6783",
"#.	c #3F748C",
"$.	c #3F617F",
"%.	c #4998A0",
"&.	c #457C8D",
"*.	c #2E4E4E",
"=.	c #407766",
"-.	c #3DB152",
";.	c #62A950",
">.	c #253531",
",.	c #264043",
"'.	c #31784F",
").	c #286644",
"!.	c #3F6C86",
"~.	c #3E8496",
"{.	c #408294",
"].	c #415477",
"^.	c #3A635E",
"/.	c #3E8E60",
"(.	c #5BB854",
"_.	c #405B39",
":.	c #192033",
"<.	c #2A3450",
"[.	c #374365",
"}.	c #405579",
"|.	c #405177",
"1.	c #3F6280",
"2.	c #3F6B86",
"3.	c #3E8497",
"4.	c #404D74",
"5.	c #334E59",
"6.	c #3A845B",
"7.	c #5F8C47",
"8.	c #1C2439",
"9.	c #3C496E",
"0.	c #3F768D",
"a.	c #3E7D92",
"b.	c #3F7B90",
"c.	c #41777D",
"d.	c #2F5C5E",
"e.	c #E5B458",
"f.	c #FFED44",
"g.	c #1D243A",
"h.	c #3F6D87",
"i.	c #3F6884",
"j.	c #405F7E",
"k.	c #3F8798",
"l.	c #428C9A",
"m.	c #50A3A5",
"n.	c #58B0AA",
"o.	c #59B1AA",
"p.	c #1C2F3A",
"q.	c #D9935F",
"r.	c #F3D54E",
"s.	c #161B2D",
"t.	c #333F60",
"u.	c #3F718A",
"v.	c #438E9B",
"w.	c #59B2AB",
"x.	c #59B1AB",
"y.	c #428D9B",
"z.	c #448F9C",
"A.	c #47959E",
"B.	c #1D303B",
"C.	c #E1AA5B",
"D.	c #FEEA45",
"E.	c #24693B",
"F.	c #256F3D",
"G.	c #161E2E",
"H.	c #374366",
"I.	c #404F76",
"J.	c #3F778D",
"K.	c #408A9A",
"L.	c #408A99",
"M.	c #387176",
"N.	c #F1D050",
"O.	c #26713D",
"P.	c #38B151",
"Q.	c #38B251",
"R.	c #256D3C",
"S.	c #171E30",
"T.	c #40587A",
"U.	c #3F6A85",
"V.	c #3F7A90",
"W.	c #38526F",
"X.	c #E1C14D",
"Y.	c #33A04B",
"Z.	c #2A7F41",
"`.	c #2E3856",
" +	c #344061",
".+	c #3F4D73",
"++	c #384467",
"@+	c #2B3552",
"#+	c #1A2135",
"$+	c #7C7533",
"%+	c #F8E743",
"&+	c #F6DB4C",
"*+	c #297D40",
"=+	c #34A34C",
"-+	c #38B351",
";+	c #27743E",
">+	c #242432",
",+	c #313449",
"'+	c #3E4C72",
")+	c #3A476C",
"!+	c #242C45",
"~+	c #242D47",
"{+	c #39466A",
"]+	c #3E4B71",
"^+	c #264456",
"/+	c #234554",
"(+	c #306676",
"_+	c #172232",
":+	c #00002D",
"<+	c #EBD546",
"[+	c #D9955F",
"}+	c #16192E",
"|+	c #17272F",
"1+	c #1F5336",
"2+	c #16202E",
"3+	c #322E39",
"4+	c #77625B",
"5+	c #44404F",
"6+	c #3A466A",
"7+	c #405076",
"8+	c #3E8598",
"9+	c #3E8699",
"0+	c #397B8C",
"a+	c #8C8334",
"b+	c #DFA85A",
"c+	c #514444",
"d+	c #78635B",
"e+	c #453C41",
"f+	c #303C5C",
"g+	c #397C8D",
"h+	c #387B8C",
"i+	c #285C6C",
"j+	c #434749",
"k+	c #1D202F",
"l+	c #AC8A46",
"m+	c #2D3856",
"n+	c #323E5E",
"o+	c #39333C",
"p+	c #7D665D",
"q+	c #5E4F4F",
"r+	c #564A4E",
"s+	c #252D45",
"t+	c #242D45",
"u+	c #222C45",
"v+	c #827666",
"w+	c #6C594E",
"x+	c #A38A66",
"y+	c #9E8468",
"z+	c #544842",
"A+	c #E0A65C",
"B+	c #354062",
"C+	c #364365",
"D+	c #242B41",
"E+	c #594B4B",
"F+	c #5D4D4B",
"G+	c #79635A",
"H+	c #695755",
"I+	c #9B8069",
"J+	c #C7A97B",
"K+	c #846D5D",
"L+	c #968060",
"M+	c #5C4D48",
"N+	c #675551",
"O+	c #191E2F",
"P+	c #151B2C",
"Q+	c #28324D",
"R+	c #3B486D",
"S+	c #384568",
"T+	c #2D3958",
"U+	c #27324E",
"V+	c #25314E",
"W+	c #222F4D",
"X+	c #2B3654",
"Y+	c #2E2F42",
"Z+	c #685652",
"`+	c #1D2734",
" @	c #26673F",
".@	c #24683B",
"+@	c #16162E",
"@@	c #191F32",
"#@	c #2F3A59",
"$@	c #40587B",
"%@	c #3F6F89",
"&@	c #367182",
"*@	c #1E3543",
"=@	c #386F5B",
"-@	c #3BA358",
";@	c #2C663A",
">@	c #171D30",
",@	c #333F5F",
"'@	c #374567",
")@	c #3B7A8D",
"!@	c #2C5C6C",
"~@	c #376059",
"{@	c #39AA55",
"]@	c #63BE57",
"^@	c #76AE53",
"/@	c #161C2D",
"(@	c #1E253B",
"_@	c #1C2338",
":@	c #1B303F",
"<@	c #1D3443",
"[@	c #161B2E",
"}@	c #2E4F4D",
"|@	c #37AF50",
"1@	c #64BF57",
"2@	c #81B957",
"3@	c #45633C",
"4@	c #171C2E",
"5@	c #2A8041",
"6@	c #5FBD56",
"7@	c #273532",
"8@	c #57494C",
"9@	c #473D43",
"0@	c #DEA15C",
"a@	c #EDC753",
"b@	c #DD9F5D",
"c@	c #1F5937",
"d@	c #2E2D35",
"e@	c #8A7164",
"f@	c #74605C",
"g@	c #38323B",
"h@	c #B67D53",
"i@	c #F2D24F",
"j@	c #FAE249",
"k@	c #7F685D",
"l@	c #7D6760",
"m@	c #3B343C",
"n@	c #4D433D",
"o@	c #3A3537",
"p@	c #9C8041",
"q@	c #E3AF59",
"r@	c #F5D94D",
"s@	c #302C35",
"t@	c #4F4448",
"u@	c #1E2031",
"v@	c #B59A71",
"w@	c #978061",
"x@	c #151C2E",
"y@	c #42402F",
"z@	c #BDB03A",
"A@	c #F6DC4A",
"B@	c #DB9A5E",
"C@	c #E5B558",
"D@	c #FCE747",
"E@	c #7A6852",
"F@	c #4C433D",
"G@	c #D9C290",
"H@	c #948567",
"I@	c #877750",
"J@	c #8F8635",
"K@	c #E3D340",
"L@	c #EECA52",
"M@	c #FDE846",
"N@	c #A49774",
"O@	c #B8A47B",
"P@	c #EDDEA9",
"Q@	c #E6D192",
"R@	c #FBE754",
"S@	c #FFEE44",
"T@	c #FBE548",
"U@	c #F4D54E",
"V@	c #574E43",
"W@	c #D8BF8E",
"X@	c #EDDDA7",
"Y@	c #F2E292",
"Z@	c #F9E149",
"`@	c #DFA55C",
" #	c #131B2E",
".#	c #473F3B",
"+#	c #C1A377",
"@#	c #E8D35C",
"##	c #F9E249",
"$#	c #DDA05D",
"%#	c #383336",
"&#	c #9B9136",
"*#	c #F8E643",
"=#	c #FDEB44",
"-#	c #D59A5A",
";#	c #7A5440",
">#	c #03112E",
",#	c #847B34",
"'#	c #9C9236",
")#	c #927540",
"!#	c #392C32",
"                              . + @ #                                               ",
"                              $ % & * = -                                           ",
"                            - - ; > , ' ) !                                         ",
"                          - ~ { ] ^ > / ( =                                         ",
"              - _ :       < [ } | 1 2 > 3 4 5                       6               ",
"              7 8 9     0 a b } c d > > e f g                       6 6             ",
"              - h i j - k l m n o > p q 3 r s t     u v w             6             ",
"                x y z A B } } } C > D E E E F G   H I J K             6 6           ",
"                L M N O P } Q } } R S > > T U V W X Y Z               6 6 6         ",
"                  `  ...+.} @.#.$.o > > > %.&.*.=.-.;.>.              6 6 6         ",
"                  ,.'.).| } } !.~.> > > > {.].^./.(._.              6 6 6 6         ",
"                  :.<.[.} } } }.|.1.2.o 3.R 4.5.6.7.                6 6 6           ",
"                8.9.} } } } } 0.a.d d b.3.U b.c.d.-                   6 6 e.f.      ",
"                g.l } } } h.i.j.~.k.l.l.k.q m.n.o.p.                    q.r.f.      ",
"                s.t.} } } u.> > > v.w.x.y.z.A.v.r B.                    C.D.        ",
"      - E.F.G.    0 H.} } I.J.U d > K.L.> > > U M.                      N.f.        ",
"    : O.P.Q.R.      S.[.} } } T.Q U.b.V.V.V.V.W.#                     6 X.f.f.      ",
"    7 Y.Q.Q.Z.      `. + +} 4..+.+} } } .+++@+#+                        $+%+&+      ",
"    : *+=+-+;+-   >+,+'+} } )+!+~+t.{+]+^+/+(+_+                        :+<+[+      ",
"      }+|+1+2+  - 3+4+5+6+} } } } } 7+J.8+9+0+_+                        a+b+        ",
"                #+ +c+d+e+f+]+} } } U.g+h+i+j+k+                        l+6         ",
"                m+} n+o+p+q+r+s+t+u+v+w+x+y+z+k+                        A+6         ",
"              - B+.+} C+D+E+F+G+H+I+J+K+L+M+N+O+                        6 6         ",
"                P+Q+R+} } R+S+T+U+V+W+X+S+Y+Z+`+ @.@+@                6 6 6 6 6     ",
"                  - @@#@]+} } } } } } $@%@&@*@=@-@Q.;@                  6 6 6 6     ",
"                  - - - >@,@S+} } '+'@)@> !@~@{@Q.]@^@                    6 6 6     ",
"                    - -   /@- (@(@_@< :@<@[@}@|@1@2@3@4@                  6 6 6     ",
"                                        - - - 5@6@7@8@9@                  0@a@b@    ",
"                                          -     c@d@e@f@g@-             h@i@f.j@    ",
"                                                    k@l@m@n@o@        p@q@r@i@      ",
"                                                    s@t@u@v@w@x@  y@z@A@B@C@D@      ",
"                                                    - E@F@G@H@I@J@K@f.L@C.M@f.      ",
"                                                    - N@O@P@Q@R@S@f.f.T@D@U@        ",
"                                                      V@W@X@Y@f.f.f.f.f.Z@`@        ",
"                                                       #.#+#@#f.f.f.f.##$#          ",
"                                                          %#&#*#=#f.j@-#;#          ",
"                                                              >#,#'#)#!#            ",
"                                                                                    ",
"                                                                                    ",
"                                                                                    "};
