/* XPM */
static char * border_xpm[] = {
"44 44 6 1",
" 	c None",
".	c #161C2E",
"+	c #8CC3C4",
"@	c #669D9D",
"#	c #506A69",
"$	c #D0DEB5",
"                                            ",
"                                            ",
"                                            ",
"                                            ",
"                                            ",
"                                            ",
"                                            ",
"                     ..........             ",
"                .................           ",
"              .........+++++++....          ",
"           .......+++++++++++++....         ",
"          .....++++++++++++++++@...         ",
"         ...@++++++++++++++++++@@...        ",
"        ...@@+++++++++++++++++@@@...        ",
"       ...@@@@+++++++++++++@@@@@@....       ",
"       ..@@@@@+++++++++++@@@@@@@.......     ",
"      ...@@@@@@@@@@++++++++++@@..@@@...     ",
"      ...+++++++++++++++++++++++++@@@...    ",
"     ....++++++++++++++++++++++++++@@@..    ",
"     ..##.++++++++++++++++++++$$$++@@@...   ",
"    ..###.@@@+++++++++++++$$$$$$+++@@@...   ",
"    ..####@@@@@++++++++$$$$$$$$++++@@....   ",
"   ..#####.+++++++++$$$$$$$$$+++++@......   ",
"   ..#####..$$$++++++++++$$$++++$$...##..   ",
"   .#######..$$$$+++++++$$$++$$$...####...  ",
"   .#######@.$$$$$$$$$$$$$$+++@@##.#####..  ",
"   .######@@@@$$$$$$$$$$$....@@@@#.#####..  ",
"   ..####@@@@@@@$$$$$$$$..@@@@@@@##@####..  ",
"   ..####@@@@@@@@$$$@@@@@@@@@@@####@@###..  ",
"   ...##@@@@@@@@@$$$@@@@@@@@@@@@@@#@@###..  ",
"    ....@@@@@@@@@@$@@@@@@@@@@@@@@@#@####..  ",
"     ...@@@@@@@@@@$@@@@@@@@@@@@@@@#####..   ",
"       ..@@@@@@@@@$@@@@@@@@@@@@@@#####..    ",
"         @@@@@@@@.$@@@@@@@@@@@@@@####       ",
"          ...@@@...@@@@@@@@@@@@@##          ",
"           .........@@@@@@@@@@###           ",
"             .........@@@@@@@@              ",
"                ........@@@                 ",
"                                            ",
"                                            ",
"                                            ",
"                                            ",
"                                            ",
"                                            "};
