/* XPM */
static char * exit_xpm[] = {
"40 38 724 2",
"  	c None",
". 	c #5B7071",
"+ 	c #B6A48B",
"@ 	c #D2D168",
"# 	c #535237",
"$ 	c #43595A",
"% 	c #506A69",
"& 	c #639797",
"* 	c #669D9D",
"= 	c #659D9D",
"- 	c #649C9D",
"; 	c #659B9B",
"> 	c #53767A",
", 	c #4D6C71",
"' 	c #527174",
") 	c #52706F",
"! 	c #608F8F",
"~ 	c #588080",
"{ 	c #435D5F",
"] 	c #649999",
"^ 	c #517576",
"/ 	c #3D5358",
"( 	c #4C6D71",
"_ 	c #436166",
": 	c #5A8989",
"< 	c #455C5D",
"[ 	c #333E44",
"} 	c #2F373E",
"| 	c #91BAAC",
"1 	c #F0F2B9",
"2 	c #EDE5BB",
"3 	c #756535",
"4 	c #64635D",
"5 	c #706E65",
"6 	c #608C8C",
"7 	c #669E9E",
"8 	c #59888A",
"9 	c #7EB4B5",
"0 	c #8DC4C5",
"a 	c #8BC2C3",
"b 	c #709B9B",
"c 	c #567372",
"d 	c #537372",
"e 	c #5E8C8B",
"f 	c #659C9C",
"g 	c #629595",
"h 	c #4F6C6C",
"i 	c #415658",
"j 	c #5C8686",
"k 	c #69A0A0",
"l 	c #74AAAB",
"m 	c #7DB0B1",
"n 	c #84B8B9",
"o 	c #8CC4C5",
"p 	c #87BCBE",
"q 	c #79ADAE",
"r 	c #5C8C8C",
"s 	c #426164",
"t 	c #578687",
"u 	c #739E9D",
"v 	c #AEBE66",
"w 	c #A5953E",
"x 	c #57433D",
"y 	c #B6A554",
"z 	c #C4B58B",
"A 	c #9B805D",
"B 	c #5F5C57",
"C 	c #375055",
"D 	c #42595B",
"E 	c #74A7A7",
"F 	c #87BEBF",
"G 	c #8CC3C4",
"H 	c #87BCBD",
"I 	c #85B9BA",
"J 	c #64898A",
"K 	c #466263",
"L 	c #5D8A8A",
"M 	c #5F8D8D",
"N 	c #577C7C",
"O 	c #4D6665",
"P 	c #29373F",
"Q 	c #577777",
"R 	c #83BABB",
"S 	c #A4CCC0",
"T 	c #B5D2BC",
"U 	c #ACC8B0",
"V 	c #91B6A9",
"W 	c #435B5D",
"X 	c #2D454D",
"Y 	c #22313C",
"Z 	c #3F5E61",
"` 	c #4F7779",
" .	c #6AA0A0",
"..	c #84BBBC",
"+.	c #88BEBF",
"@.	c #8AB5AA",
"#.	c #D6DA88",
"$.	c #F9FAE5",
"%.	c #ECF277",
"&.	c #CDC850",
"*.	c #7C5F4E",
"=.	c #4B6464",
"-.	c #5D8888",
";.	c #6BA2A2",
">.	c #86B8B6",
",.	c #ACCEBE",
"'.	c #ACCFBE",
").	c #AACCBB",
"!.	c #526764",
"~.	c #455B5C",
"{.	c #506968",
"].	c #4F6867",
"^.	c #324349",
"/.	c #1C2634",
"(.	c #3B5054",
"_.	c #567474",
":.	c #618484",
"<.	c #9EBDAC",
"[.	c #9EBCA8",
"}.	c #78A6A0",
"|.	c #679E9D",
"1.	c #516D6C",
"2.	c #3D5255",
"3.	c #587E7E",
"4.	c #5F8787",
"5.	c #89C0C1",
"6.	c #7CB2B3",
"7.	c #B4CEB5",
"8.	c #BBC892",
"9.	c #EAF14A",
"0.	c #F3F7B7",
"a.	c #EBE0BF",
"b.	c #CBAA6C",
"c.	c #4A3D38",
"d.	c #4D6766",
"e.	c #587D7D",
"f.	c #689E9D",
"g.	c #73A39F",
"h.	c #81ABA2",
"i.	c #AAC4AB",
"j.	c #AAC4AA",
"k.	c #96AD99",
"l.	c #36464A",
"m.	c #608789",
"n.	c #6A9495",
"o.	c #658E90",
"p.	c #79A9AB",
"q.	c #87BDBE",
"r.	c #5A7A7A",
"s.	c #547575",
"t.	c #649A9A",
"u.	c #536A68",
"v.	c #8F7760",
"w.	c #9D7D5D",
"x.	c #997D62",
"y.	c #8A9B96",
"z.	c #86BBBC",
"A.	c #6BA09E",
"B.	c #739886",
"C.	c #DAE55A",
"D.	c #C7C842",
"E.	c #CFAC52",
"F.	c #B8944D",
"G.	c #414341",
"H.	c #4E6766",
"I.	c #516C6B",
"J.	c #5E8B8B",
"K.	c #557575",
"L.	c #314247",
"M.	c #628686",
"N.	c #89BFC0",
"O.	c #8AC1C2",
"P.	c #8FC4C4",
"Q.	c #A4CBBE",
"R.	c #A4C6B7",
"S.	c #638A8B",
"T.	c #4B6969",
"U.	c #769591",
"V.	c #7A928C",
"W.	c #444F44",
"X.	c #D1D742",
"Y.	c #E6EC44",
"Z.	c #F1F3B5",
"`.	c #CBCBA3",
" +	c #679A99",
".+	c #689F9F",
"++	c #608F8D",
"@+	c #554939",
"#+	c #847859",
"$+	c #425455",
"%+	c #2E3D44",
"&+	c #475E5F",
"*+	c #669C9C",
"=+	c #547473",
"-+	c #26333C",
";+	c #689E9E",
">+	c #78AFAF",
",+	c #92B8AC",
"'+	c #80AAA2",
")+	c #699F9E",
"!+	c #4C6E6F",
"~+	c #4F7273",
"{+	c #5A8B8C",
"]+	c #A19753",
"^+	c #D2CB9F",
"/+	c #72716B",
"(+	c #816D3F",
"_+	c #E1DE48",
":+	c #EEF09D",
"<+	c #F8FBDB",
"[+	c #ECF273",
"}+	c #8BA478",
"|+	c #456A6D",
"1+	c #5E8F8F",
"2+	c #6BA1A1",
"3+	c #415F61",
"4+	c #506B69",
"5+	c #1C2533",
"6+	c #486060",
"7+	c #4F7778",
"8+	c #649898",
"9+	c #5F7471",
"0+	c #505554",
"a+	c #526B6A",
"b+	c #659A9A",
"c+	c #679E9E",
"d+	c #38575C",
"e+	c #4C696A",
"f+	c #638E8E",
"g+	c #385056",
"h+	c #C4AA4E",
"i+	c #EFF2A8",
"j+	c #918E48",
"k+	c #6F5A39",
"l+	c #C9A152",
"m+	c #D2B154",
"n+	c #E9EE48",
"o+	c #E1E842",
"p+	c #7A854C",
"q+	c #669A9A",
"r+	c #74A2A4",
"s+	c #78A8A9",
"t+	c #6F9B9B",
"u+	c #5D7F80",
"v+	c #405557",
"w+	c #25323B",
"x+	c #23343E",
"y+	c #577C7F",
"z+	c #73A0A2",
"A+	c #588284",
"B+	c #639696",
"C+	c #619292",
"D+	c #66716C",
"E+	c #B5A158",
"F+	c #CABF82",
"G+	c #7A756B",
"H+	c #639796",
"I+	c #699E9E",
"J+	c #6DA4A4",
"K+	c #6EA4A4",
"L+	c #5E8C8D",
"M+	c #55797C",
"N+	c #7CADAE",
"O+	c #6D776D",
"P+	c #B0CEA2",
"Q+	c #78A4A4",
"R+	c #685C46",
"S+	c #8D7448",
"T+	c #C1B056",
"U+	c #6C826C",
"V+	c #739FA0",
"W+	c #89BEBF",
"X+	c #5A7A79",
"Y+	c #3D5153",
"Z+	c #415C5E",
"`+	c #72A4A4",
" @	c #8CC2C3",
".@	c #6F9999",
"+@	c #689595",
"@@	c #629494",
"#@	c #475557",
"$@	c #BB9D49",
"%@	c #F0EDC2",
"&@	c #6E705B",
"*@	c #557979",
"=@	c #3F5457",
"-@	c #709A9A",
";@	c #9AC8C3",
">@	c #9FCAC2",
",@	c #98C6C0",
"'@	c #85BCBD",
")@	c #76ACAD",
"!@	c #3C5053",
"~@	c #597979",
"{@	c #8BC3C4",
"]@	c #81B5B5",
"^@	c #5C7E7D",
"/@	c #3B4F52",
"(@	c #3D5154",
"_@	c #506B6A",
":@	c #76A7A8",
"<@	c #8CC3C5",
"[@	c #86BDBE",
"}@	c #82B8BA",
"|@	c #7FB1B3",
"1@	c #7EB0B1",
"2@	c #89B2AF",
"3@	c #99B29B",
"4@	c #5D7D78",
"5@	c #4F6969",
"6@	c #202B37",
"7@	c #608887",
"8@	c #71A7A8",
"9@	c #84AEA5",
"0@	c #8BB0A3",
"a@	c #82ABA1",
"b@	c #679D9D",
"c@	c #74A5A5",
"d@	c #C5D9B8",
"e@	c #C6D9B8",
"f@	c #B3CDB4",
"g@	c #9BB6A4",
"h@	c #4F6B6B",
"i@	c #415759",
"j@	c #37494D",
"k@	c #70A6A6",
"l@	c #87BAB8",
"m@	c #BCD3B6",
"n@	c #BDD6BB",
"o@	c #79ACAA",
"p@	c #6FA6A6",
"q@	c #2C3A42",
"r@	c #4F6968",
"s@	c #5E8C8C",
"t@	c #7EA9A1",
"u@	c #7FA9A1",
"v@	c #6EA19E",
"w@	c #577E7E",
"x@	c #5E8D8C",
"y@	c #76A59F",
"z@	c #7FAAA1",
"A@	c #6B9F9E",
"B@	c #506C6B",
"C@	c #35474B",
"D@	c #5B8584",
"E@	c #5D8988",
"F@	c #557675",
"G@	c #384A4E",
"H@	c #1E2533",
"I@	c #364549",
"J@	c #5A8282",
"K@	c #679D9C",
"L@	c #5F9192",
"M@	c #466568",
"N@	c #936F4F",
"O@	c #936C4A",
"P@	c #65645B",
"Q@	c #415557",
"R@	c #5C8989",
"S@	c #669D9C",
"T@	c #4A6E6F",
"U@	c #4B6261",
"V@	c #38494D",
"W@	c #619393",
"X@	c #4B6362",
"Y@	c #35474C",
"Z@	c #171E2F",
"`@	c #906948",
" #	c #AD7E53",
".#	c #84674D",
"+#	c #846D56",
"@#	c #8C9082",
"##	c #647A77",
"$#	c #9C8E78",
"%#	c #919383",
"&#	c #929383",
"*#	c #9B8F79",
"=#	c #9E815B",
"-#	c #816B4F",
";#	c #C19960",
">#	c #CEA668",
",#	c #C69C62",
"'#	c #BD925E",
")#	c #7F6547",
"!#	c #9E7F58",
"~#	c #937355",
"{#	c #826750",
"]#	c #867562",
"^#	c #434C4E",
"/#	c #7D654F",
"(#	c #836951",
"_#	c #836145",
":#	c #AE8055",
"<#	c #916C4B",
"[#	c #5C8786",
"}#	c #415758",
"|#	c #334449",
"1#	c #1A2131",
"2#	c #946C4A",
"3#	c #CBA467",
"4#	c #C69D63",
"5#	c #D4AE6D",
"6#	c #CAA768",
"7#	c #524339",
"8#	c #C59B62",
"9#	c #C8A065",
"0#	c #D6B16E",
"a#	c #CCA467",
"b#	c #AA8A59",
"c#	c #8D754F",
"d#	c #D7B26F",
"e#	c #D0A96A",
"f#	c #D5B06E",
"g#	c #B0925D",
"h#	c #C0955F",
"i#	c #C9A265",
"j#	c #594B3C",
"k#	c #C79E63",
"l#	c #B1925D",
"m#	c #5B8686",
"n#	c #888A7F",
"o#	c #75ABAB",
"p#	c #5B8585",
"q#	c #587F7F",
"r#	c #5F473A",
"s#	c #977054",
"t#	c #A27755",
"u#	c #98704E",
"v#	c #876446",
"w#	c #3B3033",
"x#	c #9D7451",
"y#	c #966F54",
"z#	c #AE8459",
"A#	c #AB8058",
"B#	c #7A5A43",
"C#	c #4B3B39",
"D#	c #A07654",
"E#	c #A37855",
"F#	c #976F53",
"G#	c #8F6949",
"H#	c #5D463A",
"I#	c #745640",
"J#	c #B9945F",
"K#	c #A37754",
"L#	c #9E7451",
"M#	c #8E6948",
"N#	c #3C3033",
"O#	c #856346",
"P#	c #A27754",
"Q#	c #956E4E",
"R#	c #60483A",
"S#	c #455D5E",
"T#	c #8B6955",
"U#	c #537879",
"V#	c #425759",
"W#	c #4F6868",
"X#	c #3E5255",
"Y#	c #7A5941",
"Z#	c #AD7E55",
"`#	c #B38355",
" $	c #A97B54",
".$	c #AB7D52",
"+$	c #4C3A36",
"@$	c #B78959",
"#$	c #B4885A",
"$$	c #B48355",
"%$	c #B28155",
"&$	c #956D4A",
"*$	c #765740",
"=$	c #B38255",
"-$	c #A47854",
";$	c #B58355",
">$	c #A87B54",
",$	c #4B3A36",
"'$	c #966E51",
")$	c #B28255",
"!$	c #465D5E",
"~$	c #70593E",
"{$	c #6E8D89",
"]$	c #54797A",
"^$	c #24303A",
"/$	c #4E6767",
"($	c #455C5C",
"_$	c #2B3941",
":$	c #151A2D",
"<$	c #71543F",
"[$	c #A97B55",
"}$	c #9E7352",
"|$	c #A57850",
"1$	c #473734",
"2$	c #9F7655",
"3$	c #B98A59",
"4$	c #B58455",
"5$	c #9C7252",
"6$	c #8D6748",
"7$	c #6E513E",
"8$	c #5F473D",
"9$	c #8D6747",
"0$	c #976F51",
"a$	c #AF7F53",
"b$	c #463634",
"c$	c #9D734F",
"d$	c #A87B55",
"e$	c #475F5F",
"f$	c #4E4439",
"g$	c #766341",
"h$	c #476669",
"i$	c #6B9598",
"j$	c #7CACAD",
"k$	c #76A4A6",
"l$	c #4D6869",
"m$	c #161B2E",
"n$	c #664C3C",
"o$	c #503D36",
"p$	c #141B2E",
"q$	c #493838",
"r$	c #6A4F3D",
"s$	c #6B4F3D",
"t$	c #4E3C36",
"u$	c #302931",
"v$	c #151C2E",
"w$	c #654B3C",
"x$	c #161C2E",
"y$	c #2F2831",
"z$	c #342B31",
"A$	c #4D3B36",
"B$	c #131B2E",
"C$	c #473735",
"D$	c #674C3C",
"E$	c #77A8AA",
"F$	c #77A6A8",
"G$	c #636F69",
"H$	c #86BCBD",
"I$	c #9BC8C2",
"J$	c #A4C9BC",
"K$	c #739088",
"L$	c #4D6565",
"M$	c #202936",
"N$	c #463739",
"O$	c #352C34",
"P$	c #382D35",
"Q$	c #48383A",
"R$	c #433538",
"S$	c #443538",
"T$	c #49393A",
"U$	c #372D35",
"V$	c #BED4B6",
"W$	c #A8CDBF",
"X$	c #75AAAB",
"Y$	c #9EC3B5",
"Z$	c #ACC6AD",
"`$	c #7EA79F",
" %	c #5E8D8D",
".%	c #252E38",
"+%	c #826051",
"@%	c #7E5D4F",
"#%	c #684E46",
"$%	c #876353",
"%%	c #856253",
"&%	c #795A4D",
"*%	c #694E46",
"=%	c #7D5D4F",
"-%	c #98B8A6",
";%	c #659C9D",
">%	c #587F7E",
",%	c #222C38",
"'%	c #664C45",
")%	c #956D53",
"!%	c #805E4B",
"~%	c #986F54",
"{%	c #966E54",
"]%	c #624A43",
"^%	c #151B2E",
"/%	c #513E3D",
"(%	c #725445",
"_%	c #8D6851",
":%	c #966E53",
"<%	c #77594C",
"[%	c #242D38",
"}%	c #614942",
"|%	c #B08155",
"1%	c #AF7F55",
"2%	c #7B5B4E",
"3%	c #121A2D",
"4%	c #121B2E",
"5%	c #88644D",
"6%	c #5B8484",
"7%	c #34464A",
"8%	c #604842",
"9%	c #B08055",
"0%	c #9F7454",
"a%	c #9C7254",
"b%	c #AE7F55",
"c%	c #946C4F",
"d%	c #0D192D",
"e%	c #0F1A2D",
"f%	c #99704F",
"g%	c #BB8D5A",
"h%	c #AD8056",
"i%	c #A17554",
"j%	c #3D474A",
"k%	c #907760",
"l%	c #99816C",
"m%	c #6F9996",
"n%	c #619090",
"o%	c #36484C",
"p%	c #171D2E",
"q%	c #2C2731",
"r%	c #AF8054",
"s%	c #AB7D54",
"t%	c #A07755",
"u%	c #BB8E5B",
"v%	c #A47850",
"w%	c #0C192D",
"x%	c #A97F58",
"y%	c #B3895C",
"z%	c #494633",
"A%	c #DCDB66",
"B%	c #F0EFD1",
"C%	c #828F6A",
"D%	c #86BBBB",
"E%	c #729E9F",
"F%	c #648E90",
"G%	c #4E787A",
"H%	c #406366",
"I%	c #242431",
"J%	c #A67953",
"K%	c #AE7F53",
"L%	c #8D6D4D",
"M%	c #C39860",
"N%	c #A5784F",
"O%	c #D5AF6D",
"P%	c #927050",
"Q%	c #C59B63",
"R%	c #3C403F",
"S%	c #BB9D67",
"T%	c #DDE08E",
"U%	c #8EB3A0",
"V%	c #78AEAF",
"W%	c #639999",
"X%	c #25343E",
"Y%	c #8F694B",
"Z%	c #B08054",
"`%	c #B79661",
" &	c #503D37",
".&	c #3B2F36",
"+&	c #AA7B53",
"@&	c #CDA567",
"#&	c #8C6949",
"$&	c #BC8E5B",
"%&	c #619596",
"&&	c #689394",
"*&	c #7DACAC",
"=&	c #88BFC0",
"-&	c #7AAEAF",
";&	c #406063",
">&	c #1F2935",
",&	c #7C5B42",
"'&	c #B18155",
")&	c #BD9A65",
"!&	c #D3AC6B",
"~&	c #5E463C",
"{&	c #C59A61",
"]&	c #A07554",
"^&	c #ADCBB6",
"/&	c #87ABA2",
"(&	c #6B9797",
"_&	c #5F8989",
":&	c #598181",
"<&	c #4A6262",
"[&	c #312C34",
"}&	c #B18154",
"|&	c #C59D64",
"1&	c #B28154",
"2&	c #526F6E",
"3&	c #393A3E",
"4&	c #B28254",
"5&	c #B98B59",
"6&	c #AB7D55",
"7&	c #A97B51",
"8&	c #35383D",
"9&	c #4A6566",
"0&	c #629898",
"a&	c #3C5D61",
"b&	c #44696C",
"c&	c #32474D",
"d&	c #496061",
"e&	c #455353",
"f&	c #976E50",
"g&	c #A77A55",
"h&	c #A57854",
"i&	c #896446",
"j&	c #3B4E52",
"k&	c #384B4F",
"l&	c #1B2635",
"m&	c #486F72",
"n&	c #3C5C61",
"o&	c #639898",
"p&	c #527F81",
"q&	c #13152A",
"r&	c #212C38",
"s&	c #6B5045",
"t&	c #946D54",
"u&	c #9A704C",
"v&	c #0D192E",
"w&	c #99704C",
"x&	c #202A37",
"y&	c #304A50",
"z&	c #5D9091",
"A&	c #533F3D",
"B&	c #684E41",
"C&	c #A17551",
"D&	c #7E5D4B",
"E&	c #A2764E",
"F&	c #0B182D",
"G&	c #101A2E",
"H&	c #4B3937",
"I&	c #87634A",
"J&	c #9B7254",
"K&	c #73553F",
"L&	c #55413D",
"M&	c #7C5B4A",
"N&	c #2A2531",
"O&	c #6D5146",
". + @ # $ % & * = - ; > , ' ) ! ; * * * * * ~ { ] * * ^ / ( _ : * * * & % < [ } ",
"| 1 2 3 4 5 6 7 * 8 9 0 0 a b c d e f * * g h i j k l m n o p q 8 * 7 r % % s t ",
"u v w x y z A B C D E F G G G H I J K L M N O P Q R G G S T U V W C X Y Z `  ...",
"G +.@.#.$.%.&.*.=.% -.;.>.,.,.'.'.).!.~.{.].^./.(._.:.<.[.}.|.f 1.O 2.3.4...5.G ",
"6.7.8.9.0.a.b.c.d.% e.f f.g.h.i.j.k.l.m.n.o.p.q.q.n r.s.t.* * f 1.u.v.w.x.y.z.a ",
"* A.B.C.D.E.F.G.H.I.j J.* * * * * K.L.M.N.O.G P.Q.R.S.T.t.* U.V.I.W.X.Y.Z.`. +.+",
"* * * ++@+#+$+%+&+) *+* * * * * * =+-+d.-.;+>+,+'+)+!+~+* {+]+^+/+(+_+:+<+[+}+* ",
"|+1+2+t.3+4+< 5+6+7+* * * * * ] 8+9+0+a+b+* * * * c+d+e+f+g+h+i+j+k+l+m+n+o+p+q+",
"r+s+O.t+u+v+w+x+y+z+A+B+* * * C+D+E+F+G+; H+I+J+K+L+M+N+G n O+P+Q+y+R+S+T+U+V+N.",
"G G G G W+X+Y+Z+`+G  @.@+@k ; @@#@$@%@&@*@=@-@W+o ;@>@,@'@'@)@6.a `+Z+!@~@W+G G ",
"{@{@{@N.]@^@/@(@_@:@G G <@[@}@|@1@2@3@4@5@6@].7@8@9@0@a@f * * b@c@_@(@/@^@]@N.{@",
"d@e@f@g@h@I.i@j@% 1.k@l@m@d@d@d@n@o@p@;.1.q@r@s@* * * * * * * *+I.% j@i@I.h@g@f@",
"t@u@v@w@% % i@j@% I.x@B+y@u@u@u@z@A@* B+B@C@r@) D@* * * * * * E@F@% j@i@% % w@v@",
"* * * D@% % G@H@I@J@& ; * * * * * K@L@M@N@O@P@Q@R@S@*+* * *+*+f T@U@V@G@% % D@* ",
"* * * W@X@Y@Z@`@ #.#+#@###$#%#&#*#=#-#;#>#,#'#)#!#~#{#]#%#^#/#(#_#:#<#Z@Y@X@W@b@",
".+* * [#}#|#1#2#3#4#5#6#7#8#9#0#a#b#c#d#0#e#f#c#g#0#8#h#i#j#6#f#5#k#l#1#|#}#m#n#",
"o#p#q#% % % i r#s#t#u#v#w#x#y#z#A#B#C#D#E#F#G#H#I#J#K#L#M#N#O#P#E#Q#R#i % % S#T#",
"* U#V#% % W#X#Y#Z#`# $.$+$@$#$$$%$&$*$$$=$-$$$*$&$P#;$>$;$,$'$$$)$-$Y#X#W#% !$~$",
"{$]$^$/$($_$:$<$=$[$}$|$1$2$3$4$5$6$7$=$[$;$%$8$9$4$4$0$a$b$c$d$;$$$<$:$_$($e$f$",
"g$h$i$j$k$l$G@m$n$8$o$b$p$q$r$s$t$u$v$w$8$r$n$x$y$s$s$z$A$B$C$8$r$D$m$G@l$k$E$F$",
"G$H$I$J$K${.L$M$N$O$P$Q$R$p$x$x$x$x$x$x$x$x$x$x$x$x$x$x$p$S$T$U$O$N$M$L${.K$V$W$",
"X$Y$Z$`$ %1.% .%+%@%#%$%%%T$x$x$x$x$x$x$x$x$x$x$x$x$x$x$T$&%*%#%=%+%.%% 1. %`$-%",
"* ;%;%* * >%% ,%'%)%!%~%{%]%^%x$x$x$x$x$x$x$x$x$x$x$x$x$/%{%(%_%:%<%[%% >%* * * ",
"* * * * * ! % Y+}%|%P#$$1%2%3%x$x$x$x$x$x$x$x$x$x$x$x$4%5%$$}$P#|%}%Y+% ! * * * ",
"* * * * *+6%{.7%8%9%0%a%b%c%d%x$x$x$x$x$x$x$x$x$x$x$x$e%f%g%h%i%9%8%j%k%l%m%* * ",
".+.+.+n%d r@o%p%q%r%s%t%u%v%w%x$x$x$x$x$x$x$x$x$x$x$x$w%|$a#x%y%r%q%z%A%B%C%n%.+",
"a a a D%E%F%G%H%I%J%K%L%M%|$w%x$x$x$x$x$x$x$x$x$x$x$x$w%N%O%P%Q%J%I%R%S%T%U%D%a ",
"G G G G G G V%W%X%Y%Z%`%8#K% &x$x$x$x$x$x$x$x$x$x$x$x$.&+&@&#&$&Y%X%%&&&*&G G G ",
"{@G G G G =&-&;&>&,&'&)&!&$$D$x$x$x$x$x$x$x$x$x$x$x$x$~&%${&]&$$,&>&;&-&=&G G G ",
"^&/&(&(&(&_&:&% <&[&}&|&3$4$D$x$x$x$x$x$x$x$x$x$x$x$x$D$;$$$b%1&[&<&% :&_&(&(&(&",
"- = * * * c+] 2&r@3&4&5&9%6&D$x$x$x$x$x$x$x$x$x$x$x$x$D$%$=$$$7&8&W#9&] c+* * * ",
"* * * * 0&a&b&c&d&e&f&$$b%g&n$x$x$x$            x$x$x$n$g&b%h&i&j&k&l&m&n&o&* * ",
"* * * * p&q&      r&s&K#b%t&u&v&x$              x$x$v&w&g&b%]&i&x&x$  :$  y&z&* ",
"                  x$A&B&C&D&E&F&x$x$              x$G&*$H&I&J&K&                ",
"                  x$v$  L&M&E&F&                  x$      N&O&                  ",
"                                                                                ",
"                                                                                ",
"                                                                                "};
