/* XPM */
static char * front_gobelin_R_xpm[] = {
"40 36 612 2",
"  	c None",
". 	c #DA965E",
"+ 	c #D9955F",
"@ 	c #E2AC5A",
"# 	c #FBE648",
"$ 	c #FEEC45",
"% 	c #FEEB45",
"& 	c #E1A85B",
"* 	c #E4B158",
"= 	c #E7BA56",
"- 	c #E3AE5A",
"; 	c #E1AA5B",
"> 	c #F0CD51",
", 	c #F2D24F",
"' 	c #F3D44E",
") 	c #F1D150",
"! 	c #F0CE4F",
"~ 	c #FCE752",
"{ 	c #FFEE4D",
"] 	c #FAE349",
"^ 	c #ECC454",
"/ 	c #DD9E5D",
"( 	c #D9965F",
"_ 	c #D8925F",
": 	c #DA975E",
"< 	c #DEA25C",
"[ 	c #FBE661",
"} 	c #FFF4AD",
"| 	c #FFF292",
"1 	c #FFED4F",
"2 	c #FCE747",
"3 	c #F1CE51",
"4 	c #E4B05A",
"5 	c #D9945F",
"6 	c #D9935F",
"7 	c #131129",
"8 	c #274E5B",
"9 	c #285362",
"0 	c #295463",
"a 	c #1C3342",
"b 	c #EDDABB",
"c 	c #FFF5B4",
"d 	c #FFF9DA",
"e 	c #FFF3A1",
"f 	c #F2D356",
"g 	c #F5DA4C",
"h 	c #D7BB49",
"i 	c #C1954F",
"j 	c #15182C",
"k 	c #27494D",
"l 	c #3F7D7D",
"m 	c #3E828D",
"n 	c #3A7C8E",
"o 	c #356A7D",
"p 	c #203949",
"q 	c #D2CCC9",
"r 	c #FFFFF5",
"s 	c #FFFDF4",
"t 	c #FFF4A4",
"u 	c #E6B95E",
"v 	c #CC9B53",
"w 	c #775D3C",
"x 	c #1C2E3A",
"y 	c #366B6C",
"z 	c #458D8E",
"A 	c #458E94",
"B 	c #3D8190",
"C 	c #3C6F86",
"D 	c #38506F",
"E 	c #212D43",
"F 	c #161C2E",
"G 	c #A8A79D",
"H 	c #F6F0CF",
"I 	c #FFFDF0",
"J 	c #FFF5B2",
"K 	c #EFCE5E",
"L 	c #956E45",
"M 	c #294E53",
"N 	c #4C9998",
"O 	c #41828F",
"P 	c #2D5263",
"Q 	c #21404E",
"R 	c #273F53",
"S 	c #323F5F",
"T 	c #354163",
"U 	c #1F273D",
"V 	c #AFA553",
"W 	c #E2D56B",
"X 	c #FFF9D7",
"Y 	c #FFFADC",
"Z 	c #FBE971",
"` 	c #877A37",
" .	c #26272F",
"..	c #D6925E",
"+.	c #2A404C",
"@.	c #40838B",
"#.	c #448E9A",
"$.	c #3E798D",
"%.	c #396079",
"&.	c #37697E",
"*.	c #377788",
"=.	c #3A6C81",
"-.	c #3E5475",
";.	c #333E5E",
">.	c #1C2338",
",.	c #988D2E",
"'.	c #E7DEA3",
").	c #FDFAE7",
"!.	c #FBEE9A",
"~.	c #AEA14F",
"{.	c #413D36",
"].	c #5D9549",
"^.	c #458B46",
"/.	c #345137",
"(.	c #B07A51",
"_.	c #CE8D5C",
":.	c #777370",
"<.	c #519EA0",
"[.	c #51A3A1",
"}.	c #479097",
"|.	c #357081",
"1.	c #306676",
"2.	c #367585",
"3.	c #3B7187",
"4.	c #3E5476",
"5.	c #3E4C72",
"6.	c #2D3856",
"7.	c #192034",
"8.	c #1D5336",
"9.	c #53994A",
"0.	c #588B46",
"a.	c #1B202B",
"b.	c #9F9250",
"c.	c #E9D88A",
"d.	c #EBD997",
"e.	c #DDC790",
"f.	c #918062",
"g.	c #272732",
"h.	c #578645",
"i.	c #6DBE58",
"j.	c #3A9A4A",
"k.	c #47653E",
"l.	c #A8754F",
"m.	c #CE8F60",
"n.	c #C0906F",
"o.	c #597686",
"p.	c #325566",
"q.	c #234550",
"r.	c #1E3848",
"s.	c #1F3B49",
"t.	c #244958",
"u.	c #274657",
"v.	c #324763",
"w.	c #3B4C6E",
"x.	c #3C496E",
"y.	c #232C45",
"z.	c #1A3132",
"A.	c #266E3D",
"B.	c #44A24D",
"C.	c #67B454",
"D.	c #547C42",
"E.	c #000027",
"F.	c #8B785D",
"G.	c #D3BE8E",
"H.	c #EBDBA6",
"I.	c #ECDCA7",
"J.	c #C6B184",
"K.	c #47403C",
"L.	c #517440",
"M.	c #7CB957",
"N.	c #67C158",
"O.	c #379652",
"P.	c #465946",
"Q.	c #917160",
"R.	c #B58C73",
"S.	c #6E6F79",
"T.	c #386778",
"U.	c #387580",
"V.	c #346E7D",
"W.	c #377888",
"X.	c #3D8395",
"Y.	c #3D7A8E",
"Z.	c #3E7188",
"`.	c #3F5C7C",
" +	c #3E4D72",
".+	c #29354D",
"++	c #2B5B48",
"@+	c #40A553",
"#+	c #6EC259",
"$+	c #70A450",
"%+	c #00082B",
"&+	c #6C5C4A",
"*+	c #C7B386",
"=+	c #DECB99",
"-+	c #CAB98C",
";+	c #D0B888",
">+	c #585045",
",+	c #608A47",
"'+	c #74C159",
")+	c #4BA15D",
"!+	c #396F5D",
"~+	c #2E606B",
"{+	c #458B97",
"]+	c #4B98A0",
"^+	c #4FA1A4",
"/+	c #51A5A6",
"(+	c #4C9CA1",
"_+	c #49969E",
":+	c #428394",
"<+	c #3F758C",
"[+	c #3F6C87",
"}+	c #405478",
"|+	c #3D4B70",
"1+	c #2F4852",
"2+	c #3D7762",
"3+	c #51AE59",
"4+	c #78BC57",
"5+	c #5C8445",
"6+	c #000129",
"7+	c #7F6C54",
"8+	c #BCA479",
"9+	c #9E8967",
"0+	c #937E60",
"a+	c #B6A37B",
"b+	c #4D4941",
"c+	c #43613A",
"d+	c #55A04D",
"e+	c #489B5F",
"f+	c #407667",
"g+	c #45898E",
"h+	c #52A6A5",
"i+	c #56ADA9",
"j+	c #53A8A7",
"k+	c #50A3A5",
"l+	c #4D9EA2",
"m+	c #4A989F",
"n+	c #42798D",
"o+	c #404D75",
"p+	c #404E75",
"q+	c #404F74",
"r+	c #3E5D6B",
"s+	c #407966",
"t+	c #4AA35B",
"u+	c #589A4B",
"v+	c #344634",
"w+	c #584D42",
"x+	c #665748",
"y+	c #3E3738",
"z+	c #6A5B4B",
"A+	c #625446",
"B+	c #235D3E",
"C+	c #326A51",
"D+	c #437E77",
"E+	c #54A5A1",
"F+	c #53A7A7",
"G+	c #49969D",
"H+	c #428B98",
"I+	c #418A9A",
"J+	c #3D8598",
"K+	c #3E8295",
"L+	c #3F6E88",
"M+	c #405579",
"N+	c #3F4D73",
"O+	c #405377",
"P+	c #405671",
"Q+	c #3A625F",
"R+	c #306B4E",
"S+	c #205E3C",
"T+	c #252533",
"U+	c #55484B",
"V+	c #5F4F50",
"W+	c #2C2936",
"X+	c #1B2C3B",
"Y+	c #2F5E6A",
"Z+	c #448B92",
"`+	c #3F8591",
" @	c #295563",
".@	c #254C5C",
"+@	c #31697A",
"@@	c #3B778A",
"#@	c #3C627D",
"$@	c #3D5374",
"%@	c #364364",
"&@	c #293450",
"*@	c #305469",
"=@	c #3C7389",
"-@	c #3F5F7D",
";@	c #3A4C6A",
">@	c #2B3950",
",@	c #181E32",
"'@	c #3B353D",
")@	c #705D58",
"!@	c #8C7265",
"~@	c #443A3E",
"{@	c #2C5D6C",
"]@	c #4B999C",
"^@	c #4C9BA0",
"/@	c #3E8593",
"(@	c #264F5B",
"_@	c #23623D",
":@	c #277740",
"<@	c #215343",
"[@	c #213E48",
"}@	c #202E41",
"|@	c #223940",
"1@	c #2A5249",
"2@	c #315652",
"3@	c #213A44",
"4@	c #2A5968",
"5@	c #3D7A8F",
"6@	c #3F5E7E",
"7@	c #3B486C",
"8@	c #29334F",
"9@	c #413940",
"0@	c #6F5C59",
"a@	c #8F7467",
"b@	c #463C3F",
"c@	c #336B79",
"d@	c #51A4A4",
"e@	c #48969E",
"f@	c #316978",
"g@	c #254547",
"h@	c #379255",
"i@	c #37A951",
"j@	c #35A64D",
"k@	c #329748",
"l@	c #2F9448",
"m@	c #319B49",
"n@	c #389C54",
"o@	c #3D7A62",
"p@	c #2A4749",
"q@	c #1F3844",
"r@	c #377485",
"s@	c #3E778E",
"t@	c #3E5074",
"u@	c #2F3A58",
"v@	c #131828",
"w@	c #252433",
"x@	c #584B4D",
"y@	c #7C665D",
"z@	c #3E3A3C",
"A@	c #28515F",
"B@	c #3F838F",
"C@	c #3F8696",
"D@	c #2B5865",
"E@	c #305452",
"F@	c #3D6E62",
"G@	c #31774F",
"H@	c #40A24D",
"I@	c #56B954",
"J@	c #3FB251",
"K@	c #37B151",
"L@	c #37AF50",
"M@	c #367B56",
"N@	c #39635D",
"O@	c #355D59",
"P@	c #3C7A8E",
"Q@	c #3D5A79",
"R@	c #2E3856",
"S@	c #273631",
"T@	c #42563D",
"U@	c #3A453A",
"V@	c #235137",
"W@	c #24693B",
"X@	c #285160",
"Y@	c #387A8B",
"Z@	c #326B7B",
"`@	c #223C46",
" #	c #38665B",
".#	c #488045",
"+#	c #7DC45B",
"@#	c #63BF57",
"##	c #37B251",
"$#	c #33A44C",
"%#	c #326F51",
"&#	c #3D6A63",
"*#	c #355C57",
"=#	c #22414F",
"-#	c #386F83",
";#	c #354D6A",
">#	c #20283F",
",#	c #13112D",
"'#	c #45723E",
")#	c #7CB556",
"!#	c #68964B",
"~#	c #306C3C",
"{#	c #309848",
"]#	c #193631",
"^#	c #2A5363",
"/#	c #396F83",
"(#	c #294257",
"_#	c #294148",
":#	c #39625D",
"<#	c #395A45",
"[#	c #74A951",
"}#	c #7AC85C",
"|#	c #2A8241",
"1#	c #315D51",
"2#	c #355B57",
"3#	c #233D47",
"4#	c #305B6E",
"5#	c #356177",
"6#	c #212840",
"7#	c #13002C",
"8#	c #3C8E46",
"9#	c #78C55A",
"0#	c #87CA5D",
"a#	c #4C7D42",
"b#	c #28743E",
"c#	c #172A2F",
"d#	c #2A4A5D",
"e#	c #3A647D",
"f#	c #3C5F7B",
"g#	c #32415E",
"h#	c #325055",
"i#	c #375953",
"j#	c #628E4D",
"k#	c #79C45A",
"l#	c #48A74E",
"m#	c #286246",
"n#	c #345656",
"o#	c #2C4750",
"p#	c #325369",
"q#	c #3E607D",
"r#	c #39476A",
"s#	c #212A41",
"t#	c #14002C",
"u#	c #298342",
"v#	c #46B251",
"w#	c #5BBB55",
"x#	c #479147",
"y#	c #19272F",
"z#	c #161B2E",
"A#	c #141227",
"B#	c #2F6171",
"C#	c #3D8194",
"D#	c #3F7E93",
"E#	c #3E627F",
"F#	c #38516C",
"G#	c #384B64",
"H#	c #406156",
"I#	c #54A44D",
"J#	c #3D8E4A",
"K#	c #334F5F",
"L#	c #374A63",
"M#	c #384768",
"N#	c #3F5578",
"O#	c #3D4A70",
"P#	c #27314B",
"Q#	c #22653A",
"R#	c #2E9247",
"S#	c #2E9648",
"T#	c #21653A",
"U#	c #16202E",
"V#	c #15172B",
"W#	c #2A5867",
"X#	c #3C8192",
"Y#	c #3E8698",
"Z#	c #3E7F93",
"`#	c #3F788F",
" $	c #3F6683",
".$	c #374A67",
"+$	c #245F43",
"@$	c #295C4A",
"#$	c #3A476B",
"$$	c #2D3857",
"%$	c #1D2439",
"&$	c #16192D",
"*$	c #1A3831",
"=$	c #22623A",
"-$	c #1C4734",
";$	c #1D4C35",
">$	c #244C36",
",$	c #2F3538",
"'$	c #171D2E",
")$	c #191D2E",
"!$	c #203341",
"~$	c #275261",
"{$	c #357182",
"]$	c #3C8395",
"^$	c #3D8496",
"/$	c #3F7A90",
"($	c #3E5175",
"_$	c #394669",
":$	c #3A476A",
"<$	c #3F4C73",
"[$	c #404E74",
"}$	c #3E4B71",
"|$	c #39405A",
"1$	c #3C3B4F",
"2$	c #594B4C",
"3$	c #493E42",
"4$	c #14292E",
"5$	c #26733D",
"6$	c #339E4B",
"7$	c #2D8C45",
"8$	c #1D4D35",
"9$	c #1A1D2F",
"0$	c #5E4E4E",
"a$	c #5E4E4C",
"b$	c #1A1E2F",
"c$	c #342E37",
"d$	c #6E5C51",
"e$	c #87745B",
"f$	c #4B4C4E",
"g$	c #4B5558",
"h$	c #41555C",
"i$	c #305B6D",
"j$	c #384560",
"k$	c #4C4E61",
"l$	c #464960",
"m$	c #333E5D",
"n$	c #373C56",
"o$	c #77685D",
"p$	c #A58C6C",
"q$	c #7F695D",
"r$	c #64534F",
"s$	c #473C41",
"t$	c #183B31",
"u$	c #2D8D45",
"v$	c #38B351",
"w$	c #17242F",
"x$	c #191E2F",
"y$	c #4F4244",
"z$	c #554746",
"A$	c #554946",
"B$	c #9E8667",
"C$	c #987F66",
"D$	c #B79B73",
"E$	c #A48A6B",
"F$	c #645552",
"G$	c #6F6051",
"H$	c #B89C75",
"I$	c #A2896A",
"J$	c #5E514A",
"K$	c #735F57",
"L$	c #917B62",
"M$	c #89755B",
"N$	c #413C45",
"O$	c #303347",
"P$	c #2D334B",
"Q$	c #192E32",
"R$	c #28793F",
"S$	c #35A94E",
"T$	c #37AD50",
"U$	c #1D2C3E",
"V$	c #32425C",
"W$	c #394354",
"X$	c #373F4F",
"Y$	c #43414D",
"Z$	c #5C4E4C",
"`$	c #574846",
" %	c #726150",
".%	c #A0856B",
"+%	c #7F695A",
"@%	c #493F3D",
"#%	c #41383C",
"$%	c #3D3E51",
"%%	c #3E4664",
"&%	c #3C496D",
"*%	c #242D45",
"=%	c #17262E",
"-%	c #215B38",
";%	c #246A3B",
">%	c #1A3A32",
",%	c #3B7589",
"'%	c #3E788D",
")%	c #3D7289",
"!%	c #3C5173",
"~%	c #2C2F44",
"{%	c #68584B",
"]%	c #8B755D",
"^%	c #514543",
"/%	c #4F4242",
"(%	c #665450",
"_%	c #453C3F",
":%	c #2F3855",
"<%	c #3A486C",
"[%	c #364264",
"}%	c #354062",
"|%	c #28324D",
"1%	c #14192B",
"2%	c #1B2E3D",
"3%	c #2E6272",
"4%	c #367586",
"5%	c #326A7A",
"6%	c #316777",
"7%	c #2F4962",
"8%	c #464044",
"9%	c #988064",
"0%	c #89735D",
"a%	c #272731",
"b%	c #0F192D",
"c%	c #524548",
"d%	c #5B4C4B",
"e%	c #302F3E",
"f%	c #262E48",
"g%	c #232C44",
"h%	c #151B2D",
"i%	c #1F3D4B",
"j%	c #224251",
"k%	c #161C2F",
"l%	c #141428",
"m%	c #121528",
"n%	c #52483F",
"o%	c #9E8665",
"p%	c #907B5E",
"q%	c #3B3537",
"r%	c #594A48",
"s%	c #2F2B35",
"t%	c #443D3A",
"u%	c #564B41",
"                                                                                ",
"              . + @ # $ %                                                       ",
"          & * = - ; > , , ' )                                                   ",
"          ! ~ { ] ^ / ( _ : <                                                   ",
"          [ } | 1 2 3 4 5 5 6 5             7   8 9 0 a                         ",
"        b c d e f g h i   5 5 5           j k l m n o p                         ",
"        q r s t u v w       5 5         x y z A B C D E F                       ",
"        G H I J K L                     M N O P Q R S T U                       ",
"        V W X Y Z `  .          ..5   +.@.#.$.%.&.*.=.-.;.>.                    ",
"          ,.'.).!.~.{.    ].^./.(..._.:.<.[.}.|.1.2.3.4.5.6.7.    8.9.0.        ",
"          a.b.c.d.e.f.g.  h.i.j.k.l.m.n.o.p.q.r.s.t.u.v.w.x.y.z.A.B.C.D.        ",
"          E.F.G.H.I.J.K.  L.M.N.O.P.Q.R.S.T.U.V.W.X.Y.Z.`. +.+++@+#+$+          ",
"          %+&+*+=+-+;+>+    ,+'+)+!+~+{+]+^+/+(+_+:+<+[+}+|+1+2+3+4+5+          ",
"          6+7+8+9+0+a+b+    c+d+e+f+g+h+i+j+k+l+m+n+}+o+p+q+r+s+t+u+v+          ",
"            w+x+y+z+A+        B+C+D+E+F+G+H+I+J+K+L+M+N+O+O+P+Q+R+S+            ",
"              T+U+V+W+        X+Y+Z+(+`+ @.@+@@@#@$@%@&@*@=@-@;@>@,@            ",
"              '@)@!@~@        {@]@^@/@(@_@:@<@[@}@|@1@2@3@4@5@6@7@8@            ",
"              9@0@a@b@        c@d@e@f@g@h@i@j@k@l@m@n@o@p@q@r@s@t@u@v@          ",
"              w@x@y@z@        A@B@C@D@E@F@G@H@I@J@K@L@M@N@O@A@P@Q@R@v@          ",
"              S@T@U@V@W@        X@Y@Z@`@N@ #.#+#@###$#%#&#*#=#-#;#>#            ",
"            ,#'#)#!#~#{#]#        ^#/#(#_#:#<#[#}#J@|#1#2#3#4#5#6#              ",
"            7#8#9#0#a#b#c#        d#e#f#g#h#i#j#k#l#m#n#o#p#q#r#s#              ",
"            t#u#v#w#x#y#z#F F   A#B#C#D#E#F#G#H#I#J#K#L#M#N#p+O#P#              ",
"              Q#R#S#T#U#  F F F V#W#X#Y#Z#`# $.$+$@$#$p+p+o+O#$$%$&$*$=$-$      ",
"                ;$>$,$'$        )$!$~${$]$^$/$($_$:$<$[$}$|$1$2$3$4$5$6$7$8$    ",
"                9$0$a$b$        c$d$e$f$g$h$i$j$k$l$m$n$o$p$q$r$s$t$u$v$L@W@w$  ",
"                x$y$z$          x$A$B$C$D$E$F$G$H$I$J$K$L$M$N$O$P$Q$R$S$T$W@    ",
"                                U$V$W$X$Y$Z$`$ %.%+%@%#%$%%%&%5.#$*%=%-%;%>%    ",
"                              F 0 ,%'%)%!%~%{%]%^%/%(%_%:%7@<%[%}%|%1%          ",
"                              2%3%4%5%6%7%8%9%0%a%b%c%d%e%f%g%h%h%h%            ",
"                                i%j%k%l%m%n%o%p%q%    r%s%    F F               ",
"                                    F F     t%u%              F F               ",
"                                    F F                       F F               ",
"                                                                                ",
"                                                                                ",
"                                                                                "};
