/* XPM */
static char * front_gobelin_L_xpm[] = {
"40 36 527 2",
"  	c None",
". 	c #F4D74D",
"+ 	c #E9BF55",
"@ 	c #DB995D",
"# 	c #E0A55B",
"$ 	c #ECC653",
"% 	c #F9E148",
"& 	c #F5D94E",
"* 	c #EAC264",
"= 	c #E3AF61",
"- 	c #E2AC5A",
"; 	c #E1A85B",
"> 	c #F7DE60",
", 	c #FEF2AC",
"' 	c #FFF7C8",
") 	c #F8E38D",
"! 	c #EABF57",
"~ 	c #DB985E",
"{ 	c #192838",
"] 	c #295464",
"^ 	c #306778",
"/ 	c #2C5C6B",
"( 	c #1D3644",
"_ 	c #C99554",
": 	c #F1CF4F",
"< 	c #FEED74",
"[ 	c #FFFCE9",
"} 	c #FEF7D9",
"| 	c #F0D083",
"1 	c #DEA25E",
"2 	c #D9945F",
"3 	c #316267",
"4 	c #47929A",
"5 	c #3A7B8D",
"6 	c #30576B",
"7 	c #222B43",
"8 	c #CAA54C",
"9 	c #FBE455",
"0 	c #FFF399",
"a 	c #FFFDF1",
"b 	c #FDED99",
"c 	c #DFA55F",
"d 	c #D7925E",
"e 	c #336466",
"f 	c #489293",
"g 	c #46919A",
"h 	c #3D7F92",
"i 	c #3E6480",
"j 	c #2F3958",
"k 	c #1B2236",
"l 	c #C1AC3C",
"m 	c #FCF1BB",
"n 	c #FFF9D4",
"o 	c #FFFDF5",
"p 	c #FAE78A",
"q 	c #CF955B",
"r 	c #855B43",
"s 	c #2A5256",
"t 	c #4A9494",
"u 	c #3D7785",
"v 	c #244653",
"w 	c #224050",
"x 	c #314762",
"y 	c #3B4B6E",
"z 	c #2D3755",
"A 	c #1A2135",
"B 	c #D0BF3A",
"C 	c #F1E37E",
"D 	c #FFF8C9",
"E 	c #FFFBED",
"F 	c #EFD284",
"G 	c #AF7D51",
"H 	c #20343F",
"I 	c #3D7D82",
"J 	c #458C99",
"K 	c #3B6F85",
"L 	c #357081",
"M 	c #357282",
"N 	c #3A7085",
"O 	c #3F5B7B",
"P 	c #3D496E",
"Q 	c #242C45",
"R 	c #3B743E",
"S 	c #538D47",
"T 	c #48442D",
"U 	c #B9AD4B",
"V 	c #F4EFD6",
"W 	c #FCF6DB",
"X 	c #EBCC6F",
"Y 	c #9D724A",
"Z 	c #D3905D",
"` 	c #9E6D4B",
" .	c #3E545E",
"..	c #469099",
"+.	c #49969E",
"@.	c #3D8190",
"#.	c #326C7C",
"$.	c #326D7D",
"%.	c #3A7286",
"&.	c #3D5979",
"*.	c #3F4C73",
"=.	c #323E5E",
"-.	c #1B2337",
";.	c #286E3D",
">.	c #5AB152",
",.	c #6DA24F",
"'.	c #0A002C",
").	c #67612F",
"!.	c #C5B792",
"~.	c #E8D8AF",
"{.	c #E2C886",
"].	c #947B5C",
"^.	c #4D8845",
"/.	c #2F713D",
"(.	c #4A3E40",
"_.	c #3A7181",
":.	c #448492",
"<.	c #437881",
"[.	c #2C5866",
"}.	c #1D3545",
"|.	c #244857",
"1.	c #284C5D",
"2.	c #304A63",
"3.	c #3A4D6F",
"4.	c #3F4D73",
"5.	c #242E44",
"6.	c #255940",
"7.	c #49AD50",
"8.	c #78BD58",
"9.	c #547941",
"0.	c #302C33",
"a.	c #B4A078",
"b.	c #E6D5A0",
"c.	c #E9DBA6",
"d.	c #C4AF83",
"e.	c #4E4841",
"f.	c #639E4C",
"g.	c #62B855",
"h.	c #368E46",
"i.	c #1F4A39",
"j.	c #224352",
"k.	c #3B7C8E",
"l.	c #3D5E7B",
"m.	c #30556A",
"n.	c #316672",
"o.	c #35707D",
"p.	c #3C8293",
"q.	c #3E8295",
"r.	c #3F7A90",
"s.	c #406582",
"t.	c #3F5076",
"u.	c #293D4B",
"v.	c #397759",
"w.	c #57B955",
"x.	c #7AB656",
"y.	c #2A3C32",
"z.	c #272731",
"A.	c #968263",
"B.	c #DDC896",
"C.	c #C6B78B",
"D.	c #C2AA7D",
"E.	c #86795F",
"F.	c #618C47",
"G.	c #7DBD59",
"H.	c #5BBB56",
"I.	c #338052",
"J.	c #274B4F",
"K.	c #3A7C8D",
"L.	c #437E90",
"M.	c #4A939C",
"N.	c #50A4A5",
"O.	c #50A3A5",
"P.	c #48939C",
"Q.	c #40798E",
"R.	c #3F6A85",
"S.	c #40577A",
"T.	c #404F75",
"U.	c #395762",
"V.	c #417D65",
"W.	c #52B056",
"X.	c #6DA951",
"Y.	c #262631",
"Z.	c #927E60",
"`.	c #B6A077",
" +	c #71624F",
".+	c #887A5E",
"++	c #645C4C",
"@+	c #669149",
"#+	c #5FB754",
"$+	c #3E975E",
"%+	c #376B64",
"&+	c #428A95",
"*+	c #52A5A5",
"=+	c #57AEAA",
"-+	c #55ABA8",
";+	c #4FA2A4",
">+	c #48929B",
",+	c #416A84",
"'+	c #404E75",
")+	c #405B71",
"!+	c #3F7066",
"~+	c #3A8258",
"{+	c #3C7241",
"]+	c #705F4D",
"^+	c #5C4F43",
"/+	c #3E373D",
"(+	c #504444",
"_+	c #131A2E",
":+	c #3E5738",
"<+	c #3F924B",
"[+	c #3F8862",
"}+	c #468681",
"|+	c #53A6A5",
"1+	c #56ADA9",
"2+	c #4A9AA1",
"3+	c #45919D",
"4+	c #3F8899",
"5+	c #3F6884",
"6+	c #3D4C71",
"7+	c #40597B",
"8+	c #405877",
"9+	c #3A5567",
"0+	c #2A404B",
"a+	c #151B2F",
"b+	c #312D38",
"c+	c #6D5A56",
"d+	c #77625A",
"e+	c #1E2030",
"f+	c #110E2D",
"g+	c #1F4A38",
"h+	c #2C534E",
"i+	c #4C9592",
"j+	c #52A6A5",
"k+	c #46929C",
"l+	c #38798A",
"m+	c #367586",
"n+	c #3C7A8D",
"o+	c #406B86",
"p+	c #3C5173",
"q+	c #2F3957",
"r+	c #25324A",
"s+	c #2D5165",
"t+	c #3C7288",
"u+	c #3E5778",
"v+	c #364264",
"w+	c #252E48",
"x+	c #262633",
"y+	c #685755",
"z+	c #8C7265",
"A+	c #574847",
"B+	c #1A2B3B",
"C+	c #326976",
"D+	c #428B97",
"E+	c #428B99",
"F+	c #34707F",
"G+	c #224D4D",
"H+	c #214B49",
"I+	c #22414D",
"J+	c #24374A",
"K+	c #233A42",
"L+	c #2B5049",
"M+	c #315551",
"N+	c #203942",
"O+	c #336B7C",
"P+	c #3E778D",
"Q+	c #3E4F73",
"R+	c #2E3957",
"S+	c #151A2C",
"T+	c #57494C",
"U+	c #7A645D",
"V+	c #504443",
"W+	c #182A2F",
"X+	c #2B5A68",
"Y+	c #4E9E9D",
"Z+	c #48959E",
"`+	c #367584",
" @	c #25554B",
".@	c #349D4E",
"+@	c #34A44C",
"@@	c #2E9046",
"#@	c #2D8E45",
"$@	c #319C4A",
"%@	c #399D56",
"&@	c #3D7761",
"*@	c #2D4C4C",
"=@	c #25444E",
"-@	c #3A7A8C",
";@	c #3D6A83",
">@	c #151B2C",
",@	c #323736",
"'@	c #40463D",
")@	c #2C4736",
"!@	c #26733D",
"~@	c #1A3A31",
"{@	c #141328",
"]@	c #336A79",
"^@	c #51A4A4",
"/@	c #46939D",
"(@	c #2A5461",
"_@	c #355F57",
":@	c #3B895D",
"<@	c #38AA4F",
"[@	c #40B251",
"}@	c #3CB151",
"|@	c #38B251",
"1@	c #35A54D",
"2@	c #387659",
"3@	c #3E6C64",
"4@	c #284649",
"5@	c #33697A",
"6@	c #385E77",
"7@	c #1A232F",
"8@	c #507B42",
"9@	c #6D9F4E",
"0@	c #538143",
"a@	c #2D8342",
"b@	c #26733E",
"c@	c #234552",
"d@	c #3D808B",
"e@	c #3F8697",
"f@	c #274D5A",
"g@	c #38605B",
"h@	c #3D6E62",
"i@	c #43834D",
"j@	c #6CBC57",
"k@	c #5CBC56",
"l@	c #37B351",
"m@	c #2F9148",
"n@	c #3B715F",
"o@	c #3A645E",
"p@	c #25434D",
"q@	c #387285",
"r@	c #2C3B55",
"s@	c #151C2E",
"t@	c #1B2A2F",
"u@	c #59A34E",
"v@	c #7CC75B",
"w@	c #78BC57",
"x@	c #2D643A",
"y@	c #16262F",
"z@	c #377788",
"A@	c #306172",
"B@	c #284449",
"C@	c #3A6454",
"D@	c #689E4D",
"E@	c #77C65B",
"F@	c #3FB151",
"G@	c #287341",
"H@	c #38615B",
"I@	c #284548",
"J@	c #2E5568",
"K@	c #365F76",
"L@	c #232D45",
"M@	c #1A3D32",
"N@	c #1C4634",
"O@	c #246E3C",
"P@	c #39AB4F",
"Q@	c #46AD50",
"R@	c #21673A",
"S@	c #15172E",
"T@	c #161C2E",
"U@	c #295061",
"V@	c #3A687F",
"W@	c #2E435B",
"X@	c #2E4950",
"Y@	c #325754",
"Z@	c #537944",
"`@	c #79BF58",
" #	c #50A94F",
".#	c #296449",
"+#	c #304E52",
"@#	c #2C4255",
"##	c #3D5777",
"$#	c #3F4E74",
"%#	c #313C5C",
"&#	c #141A2C",
"*#	c #256F3D",
"=#	c #2F9548",
"-#	c #246A3B",
";#	c #277940",
">#	c #2B7941",
",#	c #2F4039",
"'#	c #1A1D2F",
")#	c #161B2D",
"!#	c #264859",
"~#	c #3C7489",
"{#	c #3D7188",
"]#	c #375D73",
"^#	c #35515F",
"/#	c #3B5556",
"(#	c #50964C",
"_#	c #42934B",
":#	c #34565E",
"<#	c #364564",
"[#	c #3C4B6F",
"}#	c #3F4E75",
"|#	c #39466B",
"1#	c #2A314A",
"2#	c #272633",
"3#	c #193431",
"4#	c #2D8B45",
"5#	c #329D4A",
"6#	c #1C4533",
"7#	c #40383E",
"8#	c #645350",
"9#	c #262532",
"0#	c #264F5D",
"a#	c #3E8698",
"b#	c #3E7F93",
"c#	c #3C6F86",
"d#	c #3A5573",
"e#	c #2A584E",
"f#	c #265946",
"g#	c #39496A",
"h#	c #404E76",
"i#	c #3E4C72",
"j#	c #2C3B5E",
"k#	c #403E4F",
"l#	c #6A5852",
"m#	c #493E42",
"n#	c #131A2D",
"o#	c #17252F",
"p#	c #256C3C",
"q#	c #33A14B",
"r#	c #309848",
"s#	c #1C4333",
"t#	c #39323A",
"u#	c #564847",
"v#	c #242431",
"w#	c #1C3140",
"x#	c #306676",
"y#	c #3D8395",
"z#	c #3E8597",
"A#	c #3E7089",
"B#	c #374166",
"C#	c #2E3858",
"D#	c #364265",
"E#	c #303C5C",
"F#	c #464553",
"G#	c #958065",
"H#	c #7F685C",
"I#	c #61514E",
"J#	c #373038",
"K#	c #141B2D",
"L#	c #1A3731",
"M#	c #1E5336",
"N#	c #1E4E35",
"O#	c #3B3439",
"P#	c #6A6056",
"Q#	c #3A464E",
"R#	c #36505A",
"S#	c #37545F",
"T#	c #2D4758",
"U#	c #3E3D4B",
"V#	c #766657",
"W#	c #5D524D",
"X#	c #5E4F4E",
"Y#	c #937B65",
"Z#	c #A68D6B",
"`#	c #5D504F",
" $	c #383D57",
".$	c #333D5D",
"+$	c #202840",
"@$	c #2A2833",
"#$	c #8E785E",
"$$	c #9F8569",
"%$	c #AB916F",
"&$	c #AA8F6F",
"*$	c #756158",
"=$	c #7D6B55",
"-$	c #B89C74",
";$	c #977F63",
">$	c #554844",
",$	c #514543",
"'$	c #504F63",
")$	c #404B6E",
"!$	c #3D4A70",
"~$	c #3C496E",
"{$	c #374466",
"]$	c #242D46",
"^$	c #192132",
"/$	c #343B4D",
"($	c #3A4153",
"_$	c #404755",
":$	c #514D51",
"<$	c #5D5045",
"[$	c #7E6959",
"}$	c #64524C",
"|$	c #65534E",
"1$	c #3E363C",
"2$	c #2E3855",
"3$	c #344061",
"4$	c #28314C",
"5$	c #202940",
"6$	c #2D3855",
"7$	c #28324D",
"8$	c #234452",
"9$	c #3B6880",
"0$	c #3E7088",
"a$	c #3C788C",
"b$	c #534745",
"c$	c #796556",
"d$	c #4B413E",
"e$	c #171D2E",
"f$	c #4C4043",
"g$	c #594A49",
"h$	c #252532",
"i$	c #161D2F",
"j$	c #171D2F",
"k$	c #161C2F",
"l$	c #2D5E6E",
"m$	c #377585",
"n$	c #357181",
"o$	c #2C5D6D",
"p$	c #21404E",
"q$	c #66554B",
"r$	c #7F695A",
"s$	c #312C36",
"t$	c #302C35",
"u$	c #594B47",
"v$	c #272632",
"w$	c #244958",
"x$	c #224452",
"y$	c #15182C",
"z$	c #15192C",
"A$	c #615446",
"B$	c #6B5C4B",
"                                                                                ",
"                                                                                ",
"              . + @                                                             ",
"          # $ % & * = -                                                         ",
"          ; + > , ' ) ! ~                 { ] ^ / (                             ",
"          _ : < [ } | 1 2 2 2               3 4 5 6 7                           ",
"          8 9 0 a b c d                   e f g h i j k                         ",
"          l m n o p q r                 s t u v w x y z A                       ",
"          B C D E F G           2 2   H I J K L M N O P Q       R S             ",
"          T U V W X Y           Z 2 `  ...+.@.#.$.%.&.*.=.-.  ;.>.,.'.          ",
"            ).!.~.{.].      ^./.    (._.:.<.[.}.|.1.2.3.4.5.6.7.8.9.            ",
"            0.a.b.c.d.e.    f.g.h.i.j.k.l.m.n.o.p.q.r.s.t.u.v.w.x.y.            ",
"            z.A.B.C.D.E.    F.G.H.I.J.K.L.M.N.O.P.Q.R.S.T.U.V.W.X.              ",
"            Y.Z.`. +.+++      @+#+$+%+&+*+=+-+;+>+,+'+'+'+)+!+~+{+              ",
"              ]+^+/+(+_+      :+<+[+}+|+1+2+3+4+q.5+4.6+7+8+9+0+a+              ",
"                b+c+d+e+      f+g+h+i+j+k+l+m+n+o+p+q+r+s+t+u+v+w+              ",
"                x+y+z+A+        B+C+D+E+F+G+H+I+J+K+L+M+N+O+P+Q+R+S+            ",
"                  T+U+V+W+      X+Y+Z+`+ @.@+@@@#@$@%@&@*@=@-@;@R+>@            ",
"                  ,@'@)@!@~@  {@]@^@/@(@_@:@<@[@}@|@1@2@3@4@5@6@Q               ",
"                7@8@9@0@a@b@    c@d@e@f@g@h@i@j@k@l@m@n@o@p@q@r@s@              ",
"                t@u@v@w@x@y@      ] z@A@B@o@C@D@E@F@G@H@I@J@K@L@      M@N@      ",
"                  O@P@Q@R@S@T@      U@V@W@X@Y@Z@`@ #.#+#@###$#%#&#    *#=#-#    ",
"                    ;#>#,#'#  T@T@)#!#~#{#]#^#/#(#_#:#<#[#}#|#1#2#  3#4#|@5#6#  ",
"                    '#7#8#9#        0#p.a#b#c#d#e#f#g#h#i#j#k#l#m#n#o#p#q#r#s#  ",
"                      t#u#v#        w#x#l+y#z#A#B#C#D#E#F#G#H#I#J#K#  L#M#N#    ",
"                                    O#P#Q#R#S#T#U#V#W#X#Y#Z#`# $.$+$            ",
"                                    @$#$$$%$&$*$=$-$;$>$,$'$)$!$~${$]$          ",
"                                    ^$/$($_$:$,$<$[$}$|$1$2$3$4$5$6$7$          ",
"                                    8$9$0$a$A@b$c$d$e$f$g$h$i$j$T@i$k$          ",
"                                    l$m$n$o$p$q$r$s$n#t$u$v$    T@T@            ",
"                                    w$x$T@y$z$A$B$              T@              ",
"                                        T@T@                                    ",
"                                        T@T@                                    ",
"                                                                                ",
"                                                                                ",
"                                                                                "};
