/* XPM */
static char * front_warrior_R_xpm[] = {
"49 40 539 2",
"  	c None",
". 	c #161C2E",
"+ 	c #101B2E",
"@ 	c #0B1B2D",
"# 	c #0C1B2D",
"$ 	c #101A2D",
"% 	c #684744",
"& 	c #734E48",
"* 	c #945550",
"= 	c #9E4A4D",
"- 	c #9B494C",
"; 	c #6A353D",
"> 	c #362332",
", 	c #181C2E",
"' 	c #7C4345",
") 	c #BD7163",
"! 	c #C27A69",
"~ 	c #BD6D61",
"{ 	c #B65756",
"] 	c #B75756",
"^ 	c #B65555",
"/ 	c #A14C4E",
"( 	c #302131",
"_ 	c #3A2C35",
": 	c #79504A",
"< 	c #BF7365",
"[ 	c #C17968",
"} 	c #C17867",
"| 	c #C27B69",
"1 	c #C5826E",
"2 	c #BF7164",
"3 	c #B75957",
"4 	c #8F464F",
"5 	c #80564E",
"6 	c #BB7D69",
"7 	c #C5836E",
"8 	c #BC685F",
"9 	c #C4806C",
"0 	c #C3826D",
"a 	c #7F4F4A",
"b 	c #A94F50",
"c 	c #924958",
"d 	c #3C283E",
"e 	c #7E544D",
"f 	c #C07666",
"g 	c #BE7063",
"h 	c #AB7262",
"i 	c #141C2E",
"j 	c #783A41",
"k 	c #B35455",
"l 	c #462C44",
"m 	c #1C1E2F",
"n 	c #B36B5F",
"o 	c #C07566",
"p 	c #A8685C",
"q 	c #916155",
"r 	c #33253A",
"s 	c #98484E",
"t 	c #954A58",
"u 	c #603855",
"v 	c #121B2D",
"w 	c #8F5A52",
"x 	c #A86D5F",
"y 	c #936256",
"z 	c #8A4D4B",
"A 	c #56344E",
"B 	c #7B425A",
"C 	c #4B2F47",
"D 	c #151C2E",
"E 	c #6B353D",
"F 	c #BE6F62",
"G 	c #A16B5D",
"H 	c #9D504F",
"I 	c #C4816D",
"J 	c #874547",
"K 	c #54334D",
"L 	c #6C3E5B",
"M 	c #663B58",
"N 	c #1D1E30",
"O 	c #2A2030",
"P 	c #A26157",
"Q 	c #B97B68",
"R 	c #693E40",
"S 	c #BE6E62",
"T 	c #5E3039",
"U 	c #242033",
"V 	c #442B43",
"W 	c #4D2E37",
"X 	c #AF7162",
"Y 	c #7B4555",
"Z 	c #936159",
"` 	c #AB695D",
" .	c #2E2431",
"..	c #171C2E",
"+.	c #433B3A",
"@.	c #887459",
"#.	c #756058",
"$.	c #7D4358",
"%.	c #482D46",
"&.	c #7F565B",
"*.	c #A79572",
"=.	c #6D5D4B",
"-.	c #151B2E",
";.	c #131B2D",
">.	c #D1BE9D",
",.	c #F9F4E7",
"'.	c #D5D0C5",
").	c #CDC5AD",
"!.	c #DFD4B7",
"~.	c #ECDFBA",
"{.	c #917B5D",
"].	c #332E37",
"^.	c #332E36",
"/.	c #917864",
"(.	c #89755A",
"_.	c #5C5552",
":.	c #B8A893",
"<.	c #DFD9D2",
"[.	c #F0E6DB",
"}.	c #F6F0E9",
"|.	c #F0E7DC",
"1.	c #CBB698",
"2.	c #AA8E70",
"3.	c #4E4142",
"4.	c #6A5751",
"5.	c #C0A27B",
"6.	c #D5B583",
"7.	c #D7BC8A",
"8.	c #EBDEAC",
"9.	c #E8DBAA",
"0.	c #D0C397",
"a.	c #F0E3B3",
"b.	c #E3CE9A",
"c.	c #D1B181",
"d.	c #A78A71",
"e.	c #746056",
"f.	c #202130",
"g.	c #846C60",
"h.	c #B79A77",
"i.	c #D4B583",
"j.	c #E6D3A3",
"k.	c #FBF8EC",
"l.	c #BBBBBD",
"m.	c #7F8084",
"n.	c #FEFDF9",
"o.	c #EFE1AE",
"p.	c #D7B987",
"q.	c #AE9273",
"r.	c #353037",
"s.	c #544645",
"t.	c #B29475",
"u.	c #D4B483",
"v.	c #D7B886",
"w.	c #ECDDAB",
"x.	c #F2E6BC",
"y.	c #B1A98C",
"z.	c #797464",
"A.	c #F3E7BD",
"B.	c #EFE0AB",
"C.	c #E3CD99",
"D.	c #D8BA87",
"E.	c #CFAF81",
"F.	c #745F56",
"G.	c #121A2D",
"H.	c #D5B685",
"I.	c #D5B684",
"J.	c #705D53",
"K.	c #C7A87D",
"L.	c #E2CC99",
"M.	c #EFE1AD",
"N.	c #F6EED5",
"O.	c #8B8B8D",
"P.	c #57595E",
"Q.	c #EAE3C9",
"R.	c #F1E4B7",
"S.	c #ECDDA7",
"T.	c #DCC28F",
"U.	c #DABE8C",
"V.	c #9C816A",
"W.	c #1E2030",
"X.	c #AF9672",
"Y.	c #E0CAAD",
"Z.	c #F3EDE5",
"`.	c #A69B8E",
" +	c #191D2F",
".+	c #826B5E",
"++	c #B19374",
"@+	c #D3B383",
"#+	c #ECDBA5",
"$+	c #F9F3DE",
"%+	c #F4F4F5",
"&+	c #3F424A",
"*+	c #030E27",
"=+	c #D6D5D1",
"-+	c #F5ECCB",
";+	c #F0E2AC",
">+	c #DCC08D",
",+	c #A1866B",
"'+	c #433A3D",
")+	c #B8A27B",
"!+	c #EAE7E3",
"~+	c #FFFFFF",
"{+	c #E9E7D8",
"]+	c #2C2F38",
"^+	c #665848",
"/+	c #1B1F2F",
"(+	c #1A1E2F",
"_+	c #9B7F6B",
":+	c #D6B684",
"<+	c #7D6B53",
"[+	c #625D4E",
"}+	c #676665",
"|+	c #55565C",
"1+	c #3D3C3A",
"2+	c #625E4F",
"3+	c #635E4F",
"4+	c #5C5246",
"5+	c #CDAE7F",
"6+	c #997E69",
"7+	c #342F37",
"8+	c #C5B093",
"9+	c #F3EDD4",
"0+	c #FCFAF8",
"a+	c #EEE5CD",
"b+	c #B6B187",
"c+	c #7A6852",
"d+	c #B2976F",
"e+	c #635547",
"f+	c #CAB284",
"g+	c #968D6F",
"h+	c #3C3B3B",
"i+	c #10182D",
"j+	c #131A2D",
"k+	c #1D2334",
"l+	c #807F7A",
"m+	c #C5B38A",
"n+	c #BEA07A",
"o+	c #A0846F",
"p+	c #4D4141",
"q+	c #64624F",
"r+	c #EBE9D5",
"s+	c #EADFBB",
"t+	c #DEC7A5",
"u+	c #DFC993",
"v+	c #616050",
"w+	c #1A1D2E",
"x+	c #462734",
"y+	c #7C6A53",
"z+	c #C6A87B",
"A+	c #5C5044",
"B+	c #866E5F",
"C+	c #C9AA7E",
"D+	c #E0C794",
"E+	c #F0E2AE",
"F+	c #E1DABF",
"G+	c #ABA385",
"H+	c #857D63",
"I+	c #D3C699",
"J+	c #F4EBC8",
"K+	c #E7D5A5",
"L+	c #CAAB7E",
"M+	c #9F8669",
"N+	c #524544",
"O+	c #676553",
"P+	c #E1DAA4",
"Q+	c #E5D79F",
"R+	c #D8BF8C",
"S+	c #928566",
"T+	c #444540",
"U+	c #231E2F",
"V+	c #AE5252",
"W+	c #904448",
"X+	c #856A54",
"Y+	c #826F56",
"Z+	c #1D2030",
"`+	c #6D5A52",
" @	c #B59776",
".@	c #DFC793",
"+@	c #EEE0AB",
"@@	c #F2E8C1",
"#@	c #E0DBCA",
"$@	c #343640",
"%@	c #0C152A",
"&@	c #C4C4C1",
"*@	c #FCFAF3",
"=@	c #E6D29E",
"-@	c #B29575",
";@	c #696654",
">@	c #E0DAA3",
",@	c #E4D69F",
"'@	c #D2B381",
")@	c #10192D",
"!@	c #B35454",
"~@	c #B45555",
"{@	c #876258",
"]@	c #AC8F73",
"^@	c #B79B74",
"/@	c #574B41",
"(@	c #06122C",
"_@	c #786259",
":@	c #C4A97F",
"<@	c #DDC390",
"[@	c #E5D19D",
"}@	c #EFE1AB",
"|@	c #646362",
"1@	c #2F3035",
"2@	c #DDD09F",
"3@	c #EFE1AC",
"4@	c #DBC08D",
"5@	c #AC8F71",
"6@	c #06182D",
"7@	c #696754",
"8@	c #DFD8A2",
"9@	c #948D6C",
"0@	c #C5A77A",
"a@	c #D1B281",
"b@	c #796851",
"c@	c #C5896C",
"d@	c #B79C72",
"e@	c #A39671",
"f@	c #BDAA7E",
"g@	c #D0C896",
"h@	c #969371",
"i@	c #837056",
"j@	c #D6B583",
"k@	c #EADAA4",
"l@	c #F3E9C5",
"m@	c #CBC6B6",
"n@	c #9F9E9D",
"o@	c #FCF9EF",
"p@	c #F0E3B0",
"q@	c #EBDBA6",
"r@	c #D6B785",
"s@	c #C6A87A",
"t@	c #7E6B55",
"u@	c #141B2E",
"v@	c #0C1A2D",
"w@	c #A56E5E",
"x@	c #50393C",
"y@	c #635849",
"z@	c #9D9173",
"A@	c #C1A478",
"B@	c #786751",
"C@	c #B85C58",
"D@	c #BD6E62",
"E@	c #C99673",
"F@	c #D6B885",
"G@	c #CEAF7F",
"H@	c #B39870",
"I@	c #685C4B",
"J@	c #9A8968",
"K@	c #9B8765",
"L@	c #262631",
"M@	c #AC926C",
"N@	c #E2CC98",
"O@	c #F7F1DB",
"P@	c #FCFBF5",
"Q@	c #F5EFDD",
"R@	c #F0E4B5",
"S@	c #E0C895",
"T@	c #C3A579",
"U@	c #453D3A",
"V@	c #5F4241",
"W@	c #995651",
"X@	c #8D544E",
"Y@	c #763D41",
"Z@	c #615446",
"`@	c #C9AC7D",
" #	c #898367",
".#	c #A58C6A",
"+#	c #766550",
"@#	c #BC6B60",
"##	c #D8B98E",
"$#	c #EBE2A8",
"%#	c #D9BF8B",
"&#	c #BDA075",
"*#	c #989270",
"=#	c #9B8665",
"-#	c #1F1E31",
";#	c #202031",
">#	c #AC946F",
",#	c #E9DCA7",
"'#	c #E5D7A4",
")#	c #BFA77C",
"!#	c #915851",
"~#	c #3C2432",
"{#	c #655748",
"]#	c #C7A97B",
"^#	c #74634F",
"/#	c #786652",
"(#	c #75644F",
"_#	c #252130",
":#	c #B8695C",
"<#	c #B85B58",
"[#	c #C88D74",
"}#	c #E0CD97",
"|#	c #E1CF99",
"1#	c #C1A479",
"2#	c #907A5D",
"3#	c #9A8362",
"4#	c #38263C",
"5#	c #603955",
"6#	c #302139",
"7#	c #645F50",
"8#	c #BCB188",
"9#	c #EDDFAA",
"0#	c #D0C496",
"a#	c #1B1A31",
"b#	c #52324B",
"c#	c #1C1E30",
"d#	c #452734",
"e#	c #B05253",
"f#	c #8E4347",
"g#	c #5A4E43",
"h#	c #5B4F43",
"i#	c #715D54",
"j#	c #A4886F",
"k#	c #272731",
"l#	c #D1B080",
"m#	c #CA9A74",
"n#	c #BC6D60",
"o#	c #BD7062",
"p#	c #DEC893",
"q#	c #E0CC97",
"r#	c #9A8264",
"s#	c #4E2C3B",
"t#	c #78415A",
"u#	c #663B59",
"v#	c #1C1D30",
"w#	c #8B8368",
"x#	c #A39A78",
"y#	c #262633",
"z#	c #6D3C53",
"A#	c #874558",
"B#	c #492E46",
"C#	c #181D2E",
"D#	c #5C4C49",
"E#	c #694143",
"F#	c #AF5253",
"G#	c #6C394B",
"H#	c #40373C",
"I#	c #8E7466",
"J#	c #504343",
"K#	c #EAE1A8",
"L#	c #D7B68C",
"M#	c #D1AB7D",
"N#	c #5F303A",
"O#	c #B75555",
"P#	c #9E4D57",
"Q#	c #79415A",
"R#	c #613956",
"S#	c #2B2236",
"T#	c #593550",
"U#	c #76415A",
"V#	c #AE5256",
"W#	c #A14E57",
"X#	c #3F373B",
"Y#	c #997D6C",
"Z#	c #9F846C",
"`#	c #5E383D",
" $	c #753F58",
".$	c #53324C",
"+$	c #513048",
"@$	c #322231",
"#$	c #1A1F2F",
"$$	c #AE946D",
"%$	c #E2D09A",
"&$	c #E8DDA6",
"*$	c #C3866B",
"=$	c #D0A97D",
"-$	c #BFA277",
";$	c #AA8E6F",
">$	c #4F2C3B",
",$	c #B25456",
"'$	c #B45455",
")$	c #9F4D57",
"!$	c #673B58",
"~$	c #77415A",
"{$	c #AF5256",
"]$	c #864559",
"^$	c #252033",
"/$	c #6E5A53",
"($	c #BB9D79",
"_$	c #D6B683",
":$	c #947E5F",
"<$	c #653B58",
"[$	c #3D283F",
"}$	c #563042",
"|$	c #73383F",
"1$	c #D6B886",
"2$	c #DDC794",
"3$	c #BC6A60",
"4$	c #AB6F5C",
"5$	c #7B6855",
"6$	c #988161",
"7$	c #4D2B3B",
"8$	c #B05356",
"9$	c #7A4055",
"0$	c #432B41",
"a$	c #312C36",
"b$	c #AE9272",
"c$	c #1D202F",
"d$	c #322439",
"e$	c #353135",
"f$	c #B79B72",
"g$	c #D4B382",
"h$	c #BE7563",
"i$	c #B9615B",
"j$	c #62524D",
"k$	c #7D6958",
"l$	c #5E3854",
"m$	c #723D52",
"n$	c #824251",
"o$	c #5F3752",
"p$	c #422B42",
"q$	c #2B2934",
"r$	c #7D6B55",
"s$	c #191E2E",
"t$	c #B69B72",
"u$	c #C68E6E",
"v$	c #964D4E",
"w$	c #7D675C",
"x$	c #383238",
"y$	c #141C2D",
"z$	c #221F32",
"A$	c #272134",
"B$	c #2D2B33",
"C$	c #CEA47A",
"D$	c #B65455",
"E$	c #95464A",
"F$	c #5C4B48",
"G$	c #383138",
"H$	c #302D34",
"I$	c #AB8365",
"J$	c #934549",
"K$	c #67544E",
"L$	c #2E1F30",
"M$	c #272030",
"N$	c #5D4D4A",
"                                          . + @ #                                                 ",
"                                      $ % & * = - ; > .                                           ",
"                                  . , ' ) ! ~ { ] ^ / (                                           ",
"                                  _ : < [ } | 1 2 3 ^ 4 .                                         ",
"                                  5 6 7 7 8 9 7 0 a b c d                                         ",
"                                  e 7 7 f g 7 7 h i j k l .                                       ",
"                                  m n 7 o p 7 7 q r s t u v                                       ",
"                                  . w 7 x y 7 7 z A c B C D                                       ",
"                                    E F G H 7 I J K L M N                                         ",
"                                    O P Q R 7 S T U V r .                                         ",
"                                    . W X Y Z `  .. . .                                           ",
"                                  ..+.@.#.$.%.&.*.=.-.                                            ",
"                                . ;.@.>.,.'.).!.~.{.].D                                           ",
"                                ^./.(._.:.<.[.}.|.1.2.3..                                         ",
"                              -.4.5.6.7.8.9.0.a.b.c.d.e...                                        ",
"                              f.g.h.i.j.k.l.m.n.o.p.6.q.r.                                        ",
"                              s.t.u.v.w.x.y.z.A.B.C.D.E.F.G.                              H.I.6.  ",
"                            . J.K.u.L.M.N.O.P.Q.R.S.T.U.V.W.                          X.Y.Z.`.    ",
"                             +.+++@+#+$+%+&+*+=+-+;+>+u.,+'+.                       )+!+~+{+]+    ",
"          . ^+/+            (+_+:+<+[+}+|+-.. 1+2+3+4+5+6+7+.                     8+9+0+a+b+      ",
"          . c+d+e+          (+_+6.f+g+h+i+. . j+k+l+m+n+o+p+.                   q+r+s+t+u+v+      ",
"          w+x+y+z+A+.        +B+C+D+E+F+G+D . H+I+J+K+L+M+N+D                 O+P+Q+:+R+S+T+      ",
"          U+V+W+X+z+Y+Z+    . `+ @.@+@@@#@$@%@&@*@x.=@6.-@s..               ;@>@,@:+'@c+)@        ",
"          U+!@^ ~@{@]@^@@./@(@_@:@<@[@}@a.|@1@2@3@}@4@6.5@^.      6@      7@8@9@0@a@b@..          ",
"          U+!@^ ^ c@d@y+e@f@g@h@i@j@k@}@l@m@n@o@p@q@r@s@t@u@    v@w@x@. y@8@z@A@a@B@)@            ",
"          U+!@C@D@E@F@G@H@I@J@K@L@M@N@}@O@P@Q@R@3@S@T@U@-.    V@W@X@Y@Z@`@ #.#c.+#G.              ",
"          U+!@^ @###$#%#6.&#*#=#-#;#>#,#}@3@3@}@'#)#U@.       !#2 ~#{#]#^#/#a@(#.                 ",
"          _#:#^ <#[#}#|#I.1#2#3#4#5#6#7#8#9#}@0#3+a#b#c#      d#e#f#g#h#i#j#(#                    ",
"          k#l#m#n#o#p#q#:+C+r#3#s#t#u#l v#w#x#y#d z#A#B#    C#D#E#F#G#H#I#J#-.                    ",
"          k#'@F@K#L#M#6.6.C+-@3#N#O#P#Q#R#S#N T#U#V#W#U     X#Y#Z#`# $.$N +$@$                    ",
"          #$$$F@%$&$~ *$=$-$;$3#>$,$^ '$)$!$R#~${$^ ]$^$  . /$($_$:$r <$[$}$|$                    ",
"            Y+6.1$2$| 3$~ 4$5$6$7$W#'$^ ^ k k '$8$9$0$..  c#a$b$i.G@c$d$u d$.                     ",
"            e$f$6.g$h$i$^ / j$k$d$l$m$n$n$n$n$n$o$S#.   . p$V q$r$Y+s$. D .                       ",
"              e$t$6.u$^ ^ v$w$x$. y$y$y$y$y$y$y$y$.       z$A$. . .                               ",
"                B$t$C$D$E$F$G$  . . .           . . .                                             ",
"                  H$I$J$K$G.      . .           . . .                                             ",
"                    L$M$N$      . . .           . . .                                             ",
"                      .                           . .                                             ",
"                                                                                                  ",
"                                                                                                  "};
