/* XPM */
static char * front_warrior_L_xpm[] = {
"37 40 472 2",
"  	c None",
". 	c #141C2E",
"+ 	c #63323B",
"@ 	c #8C4347",
"# 	c #9C4A4C",
"$ 	c #975550",
"% 	c #7B534C",
"& 	c #654543",
"* 	c #161C2E",
"= 	c #D5B583",
"- 	c #121B2E",
"; 	c #783A41",
"> 	c #B65555",
", 	c #B85B58",
"' 	c #B95F5A",
") 	c #BD6C61",
"! 	c #C27A69",
"~ 	c #BC6D61",
"{ 	c #6F373E",
"] 	c #131B2E",
"^ 	c #EADCC9",
"/ 	c #817B77",
"( 	c #37263D",
"_ 	c #B15355",
": 	c #B45454",
"< 	c #BE7063",
"[ 	c #C4816D",
"} 	c #C27B69",
"| 	c #BF7264",
"1 	c #C37E6B",
"2 	c #C17C6A",
"3 	c #171C2E",
"4 	c #D3B381",
"5 	c #FBF8F5",
"6 	c #BAB7A1",
"7 	c #6E3A4E",
"8 	c #AA5055",
"9 	c #552D37",
"0 	c #AA7161",
"a 	c #C5836E",
"b 	c #BC6B60",
"c 	c #C4806C",
"d 	c #C3826D",
"e 	c #191D2E",
"f 	c #A69C91",
"g 	c #FFFEFE",
"h 	c #EFEAC1",
"i 	c #1E2230",
"j 	c #1B1D30",
"k 	c #7C4054",
"l 	c #AB5153",
"m 	c #2A2032",
"n 	c #624342",
"o 	c #C6836E",
"p 	c #BA6E61",
"q 	c #C17968",
"r 	c #C5826E",
"s 	c #AE7262",
"t 	c #C1B498",
"u 	c #F9F6F1",
"v 	c #DBC28F",
"w 	c #958F6E",
"x 	c #1C1D30",
"y 	c #623A57",
"z 	c #9E4D57",
"A 	c #764057",
"B 	c #5B393E",
"C 	c #C5816D",
"D 	c #966257",
"E 	c #B97666",
"F 	c #C5826D",
"G 	c #6A4041",
"H 	c #DFD3C0",
"I 	c #F1EACC",
"J 	c #D5B482",
"K 	c #8C775B",
"L 	c #492E46",
"M 	c #7A425A",
"N 	c #693D5B",
"O 	c #572D39",
"P 	c #C37D6B",
"Q 	c #965651",
"R 	c #AB7262",
"S 	c #BB6E62",
"T 	c #4C2935",
"U 	c #AAA99F",
"V 	c #EAE1AB",
"W 	c #D5B483",
"X 	c #1D1E30",
"Y 	c #4C2F48",
"Z 	c #442B43",
"` 	c #3F2533",
" .	c #B5645C",
"..	c #C6846E",
"+.	c #7C4646",
"@.	c #B87B68",
"#.	c #97534F",
"$.	c #0D1B2D",
"%.	c #CBC594",
"&.	c #E5D7A0",
"*.	c #915650",
"=.	c #AA6C63",
"-.	c #5F3E49",
";.	c #B97766",
">.	c #232030",
",.	c #D4C491",
"'.	c #8C785B",
").	c #151B2E",
"!.	c #574C42",
"~.	c #8D785B",
"{.	c #877262",
"].	c #6F3850",
"^.	c #4C2B48",
"/.	c #A28972",
"(.	c #9D8664",
"_.	c #2F2C33",
":.	c #BAB085",
"<.	c #292832",
"[.	c #1E2030",
"}.	c #594D43",
"|.	c #BCAD93",
"1.	c #FBF8F0",
"2.	c #E7E3D8",
"3.	c #E5DFCD",
"4.	c #F3EBD4",
"5.	c #C8BBA2",
"6.	c #574944",
"7.	c #1D2030",
"8.	c #CBC595",
"9.	c #AAA47D",
"0.	c #C2A579",
"a.	c #1F212F",
"b.	c #0F192D",
"c.	c #8D7463",
"d.	c #B69A72",
"e.	c #8B795D",
"f.	c #BAA880",
"g.	c #E1D6BF",
"h.	c #ECDFC3",
"i.	c #F2E8D3",
"j.	c #E3CFB3",
"k.	c #BFA17A",
"l.	c #6F5B53",
"m.	c #C9C090",
"n.	c #94866D",
"o.	c #BEA276",
"p.	c #534645",
"q.	c #B49776",
"r.	c #D3B482",
"s.	c #DBC08D",
"t.	c #F4EAC7",
"u.	c #CDC4A8",
"v.	c #C1BBA9",
"w.	c #F2E7BE",
"x.	c #DCC18E",
"y.	c #C9AA7E",
"z.	c #A68A70",
"A.	c #363037",
"B.	c #B79D73",
"C.	c #343035",
"D.	c #B99D74",
"E.	c #1E212F",
"F.	c #766157",
"G.	c #BC9E79",
"H.	c #D2B282",
"I.	c #EDDEAE",
"J.	c #F8F3E0",
"K.	c #9E9B93",
"L.	c #B8B4A9",
"M.	c #F5EDD1",
"N.	c #EAD9A4",
"O.	c #CDAE80",
"P.	c #6B5950",
"Q.	c #6A4845",
"R.	c #5C333B",
"S.	c #B79C72",
"T.	c #353135",
"U.	c #866D61",
"V.	c #1A1E2F",
"W.	c #272632",
"X.	c #B29475",
"Y.	c #EBDAA5",
"Z.	c #F2E8C4",
"`.	c #8C887E",
" +	c #A6A193",
".+	c #F1E4B5",
"++	c #EAD8A3",
"@+	c #DDC390",
"#+	c #A0856D",
"$+	c #0C182C",
"%+	c #1C1E2F",
"&+	c #804B49",
"*+	c #743C41",
"=+	c #A38B67",
"-+	c #302D33",
";+	c #786258",
">+	c #282234",
",+	c #69384A",
"'+	c #452734",
")+	c #4D4142",
"!+	c #977D69",
"~+	c #E4CF9B",
"{+	c #F5ECCD",
"]+	c #F7F6F4",
"^+	c #12192C",
"/+	c #535459",
"(+	c #F9F5E8",
"_+	c #E4D09B",
":+	c #B69976",
"<+	c #4F4242",
"[+	c #292331",
"}+	c #BD7967",
"|+	c #AB5252",
"1+	c #833E44",
"2+	c #6A3746",
"3+	c #4B2F48",
"4+	c #35263B",
"5+	c #1A1D2F",
"6+	c #6A5750",
"7+	c #C3A47C",
"8+	c #AF956E",
"9+	c #877D63",
"0+	c #908D85",
"a+	c #717276",
"b+	c #131A2D",
"c+	c #77715A",
"d+	c #8B8368",
"e+	c #84795F",
"f+	c #BB9F74",
"g+	c #9E846A",
"h+	c #352F37",
"i+	c #532B37",
"j+	c #934549",
"k+	c #97474A",
"l+	c #86424C",
"m+	c #56344F",
"n+	c #57344F",
"o+	c #56344E",
"p+	c #282135",
"q+	c #121A2D",
"r+	c #796851",
"s+	c #0F182D",
"t+	c #C2A47B",
"u+	c #D1B383",
"v+	c #A29977",
"w+	c #4A4742",
"x+	c #0D172C",
"y+	c #0A152C",
"z+	c #595B62",
"A+	c #B1A98F",
"B+	c #A48770",
"C+	c #564846",
"D+	c #393239",
"E+	c #7B6559",
"F+	c #A38B68",
"G+	c #988163",
"H+	c #413A39",
"I+	c #7B6952",
"J+	c #BA9E74",
"K+	c #49413C",
"L+	c #524444",
"M+	c #A98D6F",
"N+	c #D6B887",
"O+	c #F0E2AC",
"P+	c #ECE5CD",
"Q+	c #ACA487",
"R+	c #C0B58E",
"S+	c #EADEB4",
"T+	c #F0E3B5",
"U+	c #D0B181",
"V+	c #A88D6E",
"W+	c #5C4C49",
"X+	c #594A47",
"Y+	c #AF9174",
"Z+	c #8A765A",
"`+	c #3E2533",
" @	c #763A40",
".@	c #786751",
"+@	c #C0A377",
"@@	c #49403C",
"#@	c #433A3D",
"$@	c #A58870",
"%@	c #D5B785",
"&@	c #E8D5A1",
"*@	c #F0E3B2",
"=@	c #E2DBC4",
"-@	c #46464A",
";@	c #F0ECE0",
">@	c #F6EFD6",
",@	c #EBDBA6",
"'@	c #BA9C78",
")@	c #212231",
"!@	c #786359",
"~@	c #9E8468",
"{@	c #8A755B",
"]@	c #181D2E",
"^@	c #492935",
"/@	c #B75555",
"(@	c #A94F50",
"_@	c #986E5A",
":@	c #AC9070",
"<@	c #7E6958",
"[@	c #433C3A",
"}@	c #0E182D",
"|@	c #2E2A34",
"1@	c #AA8D71",
"2@	c #DEC592",
"3@	c #E7D4A0",
"4@	c #EFE1AB",
"5@	c #F1E7C2",
"6@	c #797A7E",
"7@	c #8E8874",
"8@	c #F1E4B3",
"9@	c #E3CE9A",
"0@	c #B49774",
"a@	c #1C1F2F",
"b@	c #312439",
"c@	c #3D283F",
"d@	c #151C2E",
"e@	c #B45D59",
"f@	c #B99672",
"g@	c #AB916B",
"h@	c #B7A278",
"i@	c #BAA57A",
"j@	c #9B9572",
"k@	c #78705A",
"l@	c #BEA176",
"m@	c #E1CB97",
"n@	c #F6EED4",
"o@	c #DCD8CB",
"p@	c #E8E3D2",
"q@	c #EDDFA9",
"r@	c #D8BA88",
"s@	c #B0966E",
"t@	c #52473F",
"u@	c #252033",
"v@	c #34253A",
"w@	c #B9615B",
"x@	c #BA665D",
"y@	c #988262",
"z@	c #69614F",
"A@	c #BFB285",
"B@	c #8B7F62",
"C@	c #363135",
"D@	c #C2AA7D",
"E@	c #F6EED2",
"F@	c #F2E7BF",
"G@	c #EAD8A2",
"H@	c #AF956D",
"I@	c #1A1F2E",
"J@	c #B75A57",
"K@	c #C27C6A",
"L@	c #EAE0A7",
"M@	c #DCC590",
"N@	c #BDA175",
"O@	c #A29A75",
"P@	c #857157",
"Q@	c #39273D",
"R@	c #43353D",
"S@	c #958C6E",
"T@	c #E0D3A1",
"U@	c #EEE0AB",
"V@	c #D7CA9A",
"W@	c #5C5448",
"X@	c #412F3F",
"Y@	c #5C3652",
"Z@	c #3C283F",
"`@	c #4E383A",
" #	c #BA625A",
".#	c #D8BA8C",
"+#	c #E4D49D",
"@#	c #D7BA87",
"##	c #C5A77B",
"$#	c #988162",
"%#	c #857257",
"&#	c #4E3049",
"*#	c #643A58",
"=#	c #3D293F",
"-#	c #181E2E",
";#	c #B4AA83",
">#	c #A79E7B",
",#	c #000F2B",
"'#	c #462C44",
")#	c #673C59",
"!#	c #5F3854",
"~#	c #141C2D",
"{#	c #564B41",
"]#	c #C79170",
"^#	c #BD7264",
"/#	c #D4B186",
"(#	c #DCC490",
"_#	c #D8BB88",
":#	c #CBAC7F",
"<#	c #A48A6A",
"[#	c #703F5A",
"}#	c #5D3753",
"|#	c #211F32",
"1#	c #2A2236",
"2#	c #623956",
"3#	c #80435A",
"4#	c #B05356",
"5#	c #A44F57",
"6#	c #754059",
"7#	c #2F2338",
"8#	c #554A41",
"9#	c #DEC893",
"0#	c #E9DFA7",
"a#	c #CDA17C",
"b#	c #D3B181",
"c#	c #CAAB7F",
"d#	c #B69876",
"e#	c #6D3E5B",
"f#	c #994B58",
"g#	c #954A58",
"h#	c #683B57",
"i#	c #6D3D58",
"j#	c #9C4C58",
"k#	c #AF5356",
"l#	c #62364C",
"m#	c #0D182D",
"n#	c #D7B987",
"o#	c #D1A783",
"p#	c #BE7163",
"q#	c #C79271",
"r#	c #BD9B73",
"s#	c #A78C6C",
"t#	c #533149",
"u#	c #894659",
"v#	c #AA5156",
"w#	c #462D45",
"x#	c #89755A",
"y#	c #D6B785",
"z#	c #C58C6E",
"A#	c #BF7365",
"B#	c #A65251",
"C#	c #705E53",
"D#	c #816E56",
"E#	c #79415A",
"F#	c #B25455",
"G#	c #B25456",
"H#	c #783D4D",
"I#	c #A08966",
"J#	c #CDA178",
"K#	c #B65455",
"L#	c #A54D4F",
"M#	c #766158",
"N#	c #4A3F40",
"O#	c #643B58",
"P#	c #7E435A",
"Q#	c #A95056",
"R#	c #B55455",
"S#	c #7E3F4C",
"T#	c #171D2F",
"U#	c #131A2E",
"V#	c #A08865",
"W#	c #D6B683",
"X#	c #B86059",
"Y#	c #AF5252",
"Z#	c #714C4A",
"`#	c #3E293F",
" $	c #5E3753",
".$	c #7A3F51",
"+$	c #864350",
"@$	c #703B50",
"#$	c #3A273C",
"$$	c #9E8765",
"%$	c #B15D57",
"&$	c #6B4747",
"*$	c #2C2934",
"=$	c #0B182D",
"-$	c #462734",
";$	c #604F4B",
"                                                                          ",
"                                                                          ",
"                          . + @ # $ % & *                   =             ",
"                        - ; > , ' ) ! ~ { ]                 ^ /           ",
"                        ( _ : < [ } | 1 2 % 3             4 5 6           ",
"                      * 7 8 9 0 a a b c a d e             f g h i         ",
"                      j k l m n o a p q r s 3             t u v w         ",
"                      x y z A B C a D E F G *             H I J K         ",
"                      * L M N O P a Q R S T               U V W K         ",
"                        X Y Z `  ...+.@.#.$.              %.&.= K         ",
"                          * * . *.=.-.;.>.                %.,.= '.        ",
"                          ).!.~.{.].^./.(._.              %.:.= <.        ",
"                          [.}.|.1.2.3.4.5.6.7.            8.9.0.a.        ",
"                        b.c.d.e.f.g.h.i.j.k.l.).          m.n.o.a.        ",
"                        p.q.r.s.t.u.v.w.x.y.z.A.          B.C.D.E.        ",
"                      * F.G.H.I.J.K.L.M.N.s.O.P.*     Q.R.S.T.U.V.*       ",
"                      W.X.= s.Y.Z.`. +.+++s.@+#+$+  %+&+*+=+-+;+>+,+'+    ",
"                    * )+!+y.~+{+]+^+/+(+w._+= :+<+  [+}+|+1+2+3+Y 4+5+    ",
"                    * 6+7+8+9+0+a+* b+c+d+e+f+g+h+    i+j+k+l+m+n+o+p+    ",
"      q+r+s+        * 6+t+u+v+w+x+* * y+z+A+y.B+C+      D+E+F+G+H+*       ",
"      ).I+J+K+      * L+M+N+O+P+Q+* b+R+S+T+U+V+W+      X+Y+= = Z+        ",
"      `+ @.@+@@@      #@$@%@&@*@=@).-@;@>@,@= '@C+      )@!@~@{@]@        ",
"      ^@/@(@_@:@<@[@}@|@1@2@3@4@5@6@7@8@4@9@= 0@a@        b@c@d@          ",
"      ^@/@> e@f@g@h@i@j@k@l@m@4@n@o@p@M.q@r@s@t@*         u@v@            ",
"      ^@/@w@x@J +@y@z@A@B@C@D@4@w.E@F@4@G@H@I@*                           ",
"      ^@/@J@K@L@M@= N@O@P@Q@R@S@T@4@U@V@W@X@Y@Z@                          ",
"      `@ #> | .#+#@###$#%#&#*#=#-#;#>#,#'#)#N !#~#                        ",
"      {#J ]#^#/#(#_#:#<#%#&#N [#}#|#1#2#3#4#5#6#7#*                       ",
"      8#= 9#0#a#b#= c#d#%#&#e#f#g#h#i#j#> > > k#l#*                       ",
"      m#l@n#&.o#p#q#r#s#%#t#z u#> > > > > > > v#w#*                       ",
"        x#= y#z#A#' B#C#D#&#E#u#F#> > > > > G#H#5+* *                     ",
"        q+I#= J#K#> L#M#N#7#O#P#Q#> > > > R#S#T#* * *                     ",
"          U#V#W#X#Y#Z#C+* * `#}# $.$+$+$@$#$3 *   * * *                   ",
"            a@$$%$&$*$      * d@d@d@d@d@d@*       * *                     ",
"              =$-$;$          * * *                                       ",
"                *               * *                                       ",
"                                * *                                       ",
"                              * * *                                       ",
"                                                                          ",
"                                                                          "};
