/* XPM */
static char * herbe_xpm[] = {
"41 40 518 2",
"  	c None",
". 	c #161C2E",
"+ 	c #08132D",
"@ 	c #06122D",
"# 	c #171E2E",
"$ 	c #466243",
"% 	c #425D41",
"& 	c #12142D",
"* 	c #0D162D",
"= 	c #A5A151",
"- 	c #ADA954",
"; 	c #A6A252",
"> 	c #0C152D",
", 	c #10122D",
"' 	c #689158",
") 	c #7AA963",
"! 	c #78A763",
"~ 	c #4E6E48",
"{ 	c #23262F",
"] 	c #AFAA55",
"^ 	c #383932",
"/ 	c #827F45",
"( 	c #BFBA5B",
"_ 	c #848146",
": 	c #13192E",
"< 	c #516237",
"[ 	c #65793C",
"} 	c #384532",
"| 	c #0D112D",
"1 	c #3A4733",
"2 	c #63773C",
"3 	c #00002B",
"4 	c #5E8351",
"5 	c #79A963",
"6 	c #79A863",
"7 	c #7BAB64",
"8 	c #223132",
"9 	c #605E3B",
"0 	c #C1BC5C",
"a 	c #7C7A43",
"b 	c #7C7943",
"c 	c #010E2D",
"d 	c #22262F",
"e 	c #A09C4F",
"f 	c #BAB559",
"g 	c #515037",
"h 	c #7E7C44",
"i 	c #BAB659",
"j 	c #495335",
"k 	c #99B74D",
"l 	c #9BB94E",
"m 	c #95B24C",
"n 	c #809945",
"o 	c #151B2E",
"p 	c #96B34C",
"q 	c #87A954",
"r 	c #3C533D",
"s 	c #7AA964",
"t 	c #5F804F",
"u 	c #535338",
"v 	c #BCB75A",
"w 	c #9B984E",
"x 	c #1A1F2E",
"y 	c #25282F",
"z 	c #424234",
"A 	c #817F45",
"B 	c #00082D",
"C 	c #8C8948",
"D 	c #B0BA56",
"E 	c #B0BA55",
"F 	c #7A9143",
"G 	c #9CBA4E",
"H 	c #88A247",
"I 	c #11162E",
"J 	c #9DBB4F",
"K 	c #9CB655",
"L 	c #A1B260",
"M 	c #A0B15F",
"N 	c #A2B25F",
"O 	c #A5A051",
"P 	c #BEB95B",
"Q 	c #5E5D3A",
"R 	c #838045",
"S 	c #2C2E30",
"T 	c #444434",
"U 	c #363732",
"V 	c #798C42",
"W 	c #9AB84E",
"X 	c #5A6C39",
"Y 	c #6B813E",
"Z 	c #9CB94E",
"` 	c #BDBA5A",
" .	c #A2B950",
"..	c #ADB954",
"+.	c #BCBA5A",
"@.	c #BEBA5B",
"#.	c #9E9B4F",
"$.	c #1F232F",
"%.	c #828045",
"&.	c #B8B358",
"*.	c #4B4B36",
"=.	c #2A2D30",
"-.	c #1C212E",
";.	c #A7A352",
">.	c #B0AC55",
",.	c #918E4A",
"'.	c #6C843F",
").	c #A5B952",
"!.	c #9AB94E",
"~.	c #AAB953",
"{.	c #ACB954",
"].	c #AEBA55",
"^.	c #C0BA5B",
"/.	c #A0B950",
"(.	c #A7B952",
"_.	c #514F37",
":.	c #819345",
"<.	c #A7BB52",
"[.	c #ABB954",
"}.	c #B7B458",
"|.	c #000029",
"1.	c #768D41",
"2.	c #8B9248",
"3.	c #8A8748",
"4.	c #000D2D",
"5.	c #1F242F",
"6.	c #C0BB5B",
"7.	c #B8B858",
"8.	c #9DB94F",
"9.	c #AFBA55",
"0.	c #B5BA57",
"a.	c #B4B857",
"b.	c #99B64D",
"c.	c #B1BA56",
"d.	c #757341",
"e.	c #20242F",
"f.	c #A8B953",
"g.	c #A8BA53",
"h.	c #9BBA4E",
"i.	c #99B84F",
"j.	c #85AE5D",
"k.	c #8AB05A",
"l.	c #A4B951",
"m.	c #A3B951",
"n.	c #69753E",
"o.	c #566839",
"p.	c #8AA448",
"q.	c #8AA648",
"r.	c #364332",
"s.	c #628853",
"t.	c #8DB158",
"u.	c #82AC5E",
"v.	c #9AB84F",
"w.	c #B2BA56",
"x.	c #99B850",
"y.	c #94B554",
"z.	c #97B752",
"A.	c #97B54D",
"B.	c #4F5F37",
"C.	c #86A047",
"D.	c #89A448",
"E.	c #7F9845",
"F.	c #0F142E",
"G.	c #141A2E",
"H.	c #13182E",
"I.	c #0D0D2D",
"J.	c #678F57",
"K.	c #78A863",
"L.	c #AEB75A",
"M.	c #B7BA58",
"N.	c #B8BA58",
"O.	c #AFB759",
"P.	c #81AC5F",
"Q.	c #88AF5B",
"R.	c #7FAB60",
"S.	c #7CA962",
"T.	c #98B751",
"U.	c #839D46",
"V.	c #03042D",
"W.	c #394532",
"X.	c #94B14C",
"Y.	c #9AB94F",
"Z.	c #84AD5D",
"`.	c #8EB257",
" +	c #77A863",
".+	c #76A763",
"++	c #A6B35F",
"@+	c #B5B75D",
"#+	c #ACB45E",
"$+	c #86AE5D",
"%+	c #8CB159",
"&+	c #80AB5F",
"*+	c #96B652",
"=+	c #8FB357",
"-+	c #51714A",
";+	c #61743B",
">+	c #7BA962",
",+	c #8FB257",
"'+	c #9BB851",
")+	c #A1B950",
"!+	c #97B751",
"~+	c #98B850",
"{+	c #95B653",
"]+	c #8EB258",
"^+	c #75A260",
"/+	c #1E2930",
"(+	c #4A5A36",
"_+	c #98B54D",
":+	c #9CBA4D",
"<+	c #86A962",
"[+	c #88A961",
"}+	c #89AA60",
"|+	c #8BAC5F",
"1+	c #94B553",
"2+	c #78A764",
"3+	c #91B455",
"4+	c #92B455",
"5+	c #7DAA61",
"6+	c #83AD5E",
"7+	c #1E2931",
"8+	c #576939",
"9+	c #5F723B",
"0+	c #0F132E",
"a+	c #343F31",
"b+	c #6D823D",
"c+	c #73996F",
"d+	c #6D9572",
"e+	c #87A961",
"f+	c #93B257",
"g+	c #6C9572",
"h+	c #779D6D",
"i+	c #9BB94F",
"j+	c #A6B952",
"k+	c #BAB75E",
"l+	c #819B70",
"m+	c #6D9374",
"n+	c #679175",
"o+	c #84A764",
"p+	c #719870",
"q+	c #6C9374",
"r+	c #709573",
"s+	c #74A06A",
"t+	c #7AA863",
"u+	c #709C5D",
"v+	c #293A35",
"w+	c #4C5C36",
"x+	c #9AB74E",
"y+	c #536538",
"z+	c #565538",
"A+	c #908C4A",
"B+	c #6E6B3E",
"C+	c #3F5F54",
"D+	c #7A8B60",
"E+	c #99A66A",
"F+	c #628F76",
"G+	c #9FA968",
"H+	c #659076",
"I+	c #9DAE60",
"J+	c #C0BB5A",
"K+	c #B4B460",
"L+	c #669175",
"M+	c #6A9274",
"N+	c #B2B361",
"O+	c #BCB95C",
"P+	c #7D9971",
"Q+	c #799F6B",
"R+	c #A4B25F",
"S+	c #8DB159",
"T+	c #7CAA61",
"U+	c #80AB60",
"V+	c #84AD5E",
"W+	c #79A964",
"X+	c #758C42",
"Y+	c #748B40",
"Z+	c #586939",
"`+	c #BDB85A",
" @	c #BBB659",
".@	c #BCB85D",
"+@	c #BCB85C",
"@@	c #B8B85C",
"#@	c #6B9274",
"$@	c #B7B65F",
"%@	c #BBBA5A",
"&@	c #BDB95C",
"*@	c #B1B65D",
"=@	c #84AA62",
"-@	c #97B650",
";@	c #526338",
">@	c #AEB55D",
",@	c #98AF60",
"'@	c #B0B55D",
")@	c #A3B25F",
"!@	c #AAB45E",
"~@	c #B3BA57",
"{@	c #9CB94D",
"]@	c #98B061",
"^@	c #ABB55F",
"/@	c #788B51",
"(@	c #456143",
"_@	c #0C0E2D",
":@	c #1E222F",
"<@	c #B3B056",
"[@	c #BABA59",
"}@	c #8AAD5E",
"|@	c #B5B75C",
"1@	c #7CA963",
"2@	c #7BA863",
"3@	c #88AF5C",
"4@	c #96B653",
"5@	c #B9BA59",
"6@	c #90B356",
"7@	c #86AD5F",
"8@	c #B8BA59",
"9@	c #888E47",
"0@	c #24272F",
"a@	c #1B202E",
"b@	c #313E31",
"c@	c #93B04B",
"d@	c #93B454",
"e@	c #7D9544",
"f@	c #0E122D",
"g@	c #12192E",
"h@	c #020D2D",
"i@	c #576A39",
"j@	c #93B554",
"k@	c #7EA963",
"l@	c #92AD61",
"m@	c #8AAB62",
"n@	c #475635",
"o@	c #12172E",
"p@	c #6E6C3F",
"q@	c #AEA954",
"r@	c #A1A850",
"s@	c #9AB74D",
"t@	c #8BB15A",
"u@	c #B6B75C",
"v@	c #A1B951",
"w@	c #768E42",
"x@	c #414F34",
"y@	c #1E242F",
"z@	c #B9BC59",
"A@	c #87AF5C",
"B@	c #87AE5C",
"C@	c #9BB94D",
"D@	c #A9B953",
"E@	c #97B44C",
"F@	c #465535",
"G@	c #1C232E",
"H@	c #9BB74E",
"I@	c #ABB955",
"J@	c #BCB95B",
"K@	c #BBBA59",
"L@	c #98B64E",
"M@	c #687D3D",
"N@	c #465435",
"O@	c #758C41",
"P@	c #738941",
"Q@	c #77A763",
"R@	c #76A764",
"S@	c #82AD5E",
"T@	c #86AE5C",
"U@	c #9BB060",
"V@	c #9FB160",
"W@	c #648E57",
"X@	c #0E152E",
"Y@	c #657A3D",
"Z@	c #3B4A35",
"`@	c #252E2F",
" #	c #677C3D",
".#	c #9CBA4F",
"+#	c #87A247",
"@#	c #1A212E",
"##	c #14192E",
"$#	c #455435",
"%#	c #97B653",
"&#	c #8DAE5D",
"*#	c #689274",
"=#	c #699274",
"-#	c #6A9374",
";#	c #85A763",
">#	c #99B751",
",#	c #1C232F",
"'#	c #98B64D",
")#	c #97B652",
"!#	c #6E9672",
"~#	c #769673",
"{#	c #A9AE64",
"]#	c #9BA769",
"^#	c #659075",
"/#	c #7B9F6A",
"(#	c #648F76",
"_#	c #A2AB67",
":#	c #A4AC66",
"<#	c #6E9771",
"[#	c #9FB15F",
"}#	c #62763C",
"|#	c #87A147",
"1#	c #799042",
"2#	c #181F2E",
"3#	c #6F9671",
"4#	c #7EA169",
"5#	c #8DAE5C",
"6#	c #669075",
"7#	c #839C70",
"8#	c #9EA968",
"9#	c #8CA26B",
"0#	c #B6BA57",
"a#	c #A2B951",
"b#	c #B6B358",
"c#	c #64623C",
"d#	c #19202E",
"e#	c #171D2E",
"f#	c #839C44",
"g#	c #658D70",
"h#	c #95A46B",
"i#	c #A7AD65",
"j#	c #91A26C",
"k#	c #B3B361",
"l#	c #AEB955",
"m#	c #9E9A4F",
"n#	c #8CA849",
"o#	c #63783C",
"p#	c #98954F",
"q#	c #8DA26E",
"r#	c #92A36C",
"s#	c #B4BA57",
"t#	c #B3B65D",
"u#	c #61753B",
"v#	c #2C3630",
"w#	c #445234",
"x#	c #5A5839",
"y#	c #B2B65D",
"z#	c #87AB62",
"A#	c #86AB62",
"B#	c #BEBA5A",
"C#	c #9EB94F",
"D#	c #7DA963",
"E#	c #090C2D",
"F#	c #6D7E3F",
"G#	c #C2BD5C",
"H#	c #8CB257",
"I#	c #A5B35E",
"J#	c #A7B45F",
"K#	c #9AB94D",
"L#	c #80AC5F",
"M#	c #A5B65A",
"N#	c #789042",
"O#	c #040D2D",
"P#	c #677D3F",
"Q#	c #9DB84F",
"R#	c #98B64C",
"S#	c #4D6B47",
"T#	c #99B74F",
"U#	c #97B651",
"V#	c #78A661",
"W#	c #34493A",
"X#	c #859F47",
"Y#	c #B1B156",
"Z#	c #20232F",
"`#	c #202B31",
" $	c #82AE61",
".$	c #AAB954",
"+$	c #5C7744",
"@$	c #78A662",
"#$	c #476443",
"$$	c #618853",
"%$	c #3F5A41",
"&$	c #729E5E",
"*$	c #8BB159",
"=$	c #75A25F",
"-$	c #5A7E4F",
";$	c #7D9F52",
">$	c #03022D",
",$	c #9CBB4F",
"'$	c #9CB94F",
")$	c #91A24A",
"!$	c #1F272F",
"~$	c #1F2A31",
"{$	c #76A461",
"]$	c #54754B",
"^$	c #374D3B",
"/$	c #739F5F",
"($	c #668E56",
"_$	c #3E563E",
":$	c #516E46",
"<$	c #7EAA60",
"[$	c #7EAA61",
"}$	c #12152D",
"|$	c #8AA548",
"1$	c #5A6D3A",
"2$	c #92AF4B",
"3$	c #9CBB4E",
"4$	c #324739",
"5$	c #77A561",
"6$	c #354B3A",
"7$	c #0F0F2C",
"8$	c #11132D",
"9$	c #4F6E48",
"0$	c #2C3B34",
"a$	c #8BA648",
"b$	c #8BAD53",
"c$	c #08092D",
"d$	c #759B56",
"e$	c #080B2D",
"f$	c #6C823F",
"g$	c #1D242F",
"h$	c #1B242F",
"i$	c #20282F",
"j$	c #94B04B",
"k$	c #89A348",
"l$	c #19212F",
"m$	c #1F262F",
"n$	c #86A147",
"o$	c #8DA849",
"p$	c #394632",
"q$	c #586B39",
"r$	c #596B39",
"s$	c #0D122D",
"        . + @ + .                 . # $ % & .                   . + @             ",
"      . * = - ; > . . . . .   . . , ' ) ! ~ . . { { . .       . > ; ] ^ .         ",
"      . / ( ( ( _ : < [ } | . 1 2 3 4 5 6 7 8 9 ( 0 a b c     d e ( ( f g .       ",
"      . h ( ( ( i j k l m n o p l q r s 6 t u v ( ( ( ( w x y z 0 ( ( ( A .       ",
"      . B C 0 D E F G l l H I J l K L M N O P ( ( ( ( ( 0 Q b 0 ( ( ( 0 R .       ",
"  . S T U x V l l l l l l W X Y Z `  ...( ( ( ( ( ` +.@.#.$.%.+.( P &.*.=..       ",
"  -.;.0 >.,.'.l l l l l l l G G l ).l !.~.{.].^.+./.!.(._.:.<.l [.}.|.1.2.3.4.    ",
"  5.6.( ( ( 7.8.l l l l l l l l l l l l l l l 9.0.!.l l a.l l l l Z b.l c.( d..   ",
"  e.0 {.f.g.h.i.j.j.j.k.l l l l l l l l l l l l !.l l l l.l l l l l G l m.g.n..   ",
"  . o.p.q.r.s.6 6 6 6 6 t.6 6 u.v.!.m.c.( w.l l l l l l x.y.z.l l A.B.C.D.E.F..   ",
"    G.H.I.J.) 6 6 6 6 6 6 6 6 K.L.M.@.( ( ( N.M.O.P.Q.l R.6 S.T.l l G U.V.I .     ",
"  . W.X.G Y.Z.v.l l `.6 K.j.j.K. +.+++@+( @+#+#+S.$+K.K.%+l &+6 *+l l =+-+.       ",
"  . ;+l l l l l l l Z >+,+l l *+*+*+*+'+)+'+*+*+!+Y.*+*+l Y.~+{+~+l ]+6 ^+/+. .   ",
"    (+_+G :+:+:+l l :+:+l l !.<+[+[+}+:+v.[+|+1+k.2+3+4+]+5+K.6 1+l 6+6 7 7+8+9+0+",
"  . o a+b+c+d+d+e+f+g+h+i+j++.k+l+m+n+o+p+q+r+s+6 6 t+t+6 6 6 6 >+5+6 u+v+w+x+W y+",
"  . z+A+B+C+D+E+F+m+G+H+I+( ( ( J+K+m+L+M+N+O+P+Q+R+K.6 S+T+U+%+V+6 W+X+Y+Z l h.Z+",
"  $.`+( `+ @`+( .@+@( +@P ( ( @@@@( k+#@$@` %@&@O+( *@=@l v.v.l l 5+6 >+>+U+T.-@;@",
"  5.6.( ( ^.>@,@'@^.( ^.^.^.)@ +K.!@^.K+O+)+Z N.^.^.^.^.~@/.l l {@5+ + +]@^@/@(@_@",
"  :@<@ .[@}@P.U+t+=@|@1@2@2@6 6 6 t+2@3@4@~+l l Z Z m.5@c.l l l 6@7@5@8@9@0@a@.   ",
"    b@c@l l l l 4+4+u.6 6 6 6 6 6 6 6 6 6 R.V+d@l %+V+6+6+!+l l l l !.l G e@f@. . ",
"    g@h@i@b.l l l l *+d@j@6 6 V+6+K.6 6 6 6 6 K.K.K.k@l@m@{+l l l l l l G e@n@B.o@",
"  . p@q@r@s@l 6+P.P.T+6 6 6 =+l l t@6 6 t+6 y.{+4@{+u@( O+v@l l l l l l w@x@A.b.B.",
"  y@z@^.^.{.l l l l l l l l l l l y.A@B@v.C@D@M.+.D@( ^.^.( !.!.l l l l G G G E@F@",
"  G@H@/././.l l l l l l l l l l l l l l l I@J@J@J@J@*@=@,@( K@K@9.8.8.8.L@_+M@}   ",
"  . N@O@P@A.l l l l l l l l l l l l Z {@%+Q@R@S@T@.+ +6 K.U@)@)@)@)@)@V@W@X@I     ",
"      . Y@W l l l l l l l l l l l l 6+U+5+S.T.Y.l B@5+t+6 6 6 6 6 6 6 6 s Z@`@.   ",
"      .  #l l l l l l l :+:+:+l l l :+:+:+Z l l l C@C@3+6 6 `.]+j.6 K.K.j..#+#@#  ",
"    ##$#l l l l l l %#&#*#=#-#%#l ;#=#=#d+>#l l (.@.N.Z K.1+l l l Z.l Y.l l G ,#  ",
"  . B.'#l C@l l C@)#!#~#{#]#^#d+/#(#_#{#:#<#v.[.( ( ( M.[#6+l l l l G }#|#G 1#2#  ",
"  ,#G l :+3#4#5#6#L+^#P ( ( @.7#q+8#( ( ( ^.9#0#( ( ( ( ( a#l l l l.l.b#c#d#e#.   ",
"  ,#G l f#g#n+L+h#i#^#j#^.( ( ^.k#^.( ( ( ( ( ( ( ( ( ( ( 5@l#l !.+.( ( 6.m#+ .   ",
"  @#n#l o#p#q#r#J+( J+E+^.( ^.^.( ( ( [@s#s#( ( ( t#*@( ( ( M.f. .l l l l l u#.   ",
"  . v#w#H.:@x#f @.@.@.( ( y#z#A#|@@.B#C#l l ).@.|@D#1@t#( ( ( @.+.C#l l l Z 9+.   ",
"      . E#F#G#@.l.i.H#I#J#K.6 6 K.K#..l l 1+]+L# +6 W+M#c.c.c.C#!.l l A.N#3.O#    ",
"      e#P#Q#` +.R#5+6 6 S#6 6 6 3+L@T#l U#V#6 6 S.) W#X#l l l l '#l 8.Y#Z#.       ",
"      `# $v.K#.$+$@$6 ) #$$$) 6 K.%$&$*$=$-$6 j.l 3+;$>$,$l l k M@'$].].)$!$      ",
"      ~${$>+>+>+]$^$/$' # # ($s _$:$<$[$^+}$u+=+l l |$F.1$2$c@N@Y l l l 3$`@      ",
"      . 4${$s 5$6$o 7$8$. . }$9$0$a$Z {@b$c$~$d$.#J X ##H.e$e$G.f$l l l n g$      ",
"        . h$h$h$.               i$j$l G k$E#. l$m$m$.         . I n$o$C.I .       ",
"                                . p$q$r$g$.                       f@s$0+.         "};
