/* XPM */
static char * left_warrior_R_xpm[] = {
"40 43 498 2",
"  	c None",
". 	c #382332",
"+ 	c #5C2F39",
"@ 	c #151C2E",
"# 	c #6C4946",
"$ 	c #7B4E49",
"% 	c #B45B57",
"& 	c #141C2E",
"* 	c #68353D",
"= 	c #945F55",
"- 	c #B67364",
"; 	c #C07666",
"> 	c #C6836E",
", 	c #BF7164",
"' 	c #AF5353",
") 	c #884145",
"! 	c #2B2031",
"~ 	c #764947",
"{ 	c #C3816D",
"] 	c #C5836E",
"^ 	c #C37E6B",
"/ 	c #BE7164",
"( 	c #C47F6C",
"_ 	c #C5826D",
": 	c #BF7264",
"< 	c #B65555",
"[ 	c #82414F",
"} 	c #2D2030",
"| 	c #55343A",
"1 	c #B96B60",
"2 	c #C17767",
"3 	c #BD6D61",
"4 	c #BB655D",
"5 	c #AF5356",
"6 	c #723A48",
"7 	c #221F32",
"8 	c #945751",
"9 	c #AB6A5E",
"0 	c #B77363",
"a 	c #C5826E",
"b 	c #AF7463",
"c 	c #6D4A46",
"d 	c #563B3D",
"e 	c #60303A",
"f 	c #9F4B4D",
"g 	c #B05356",
"h 	c #774057",
"i 	c #2A2135",
"j 	c #3C2432",
"k 	c #B77464",
"l 	c #AA7161",
"m 	c #87584F",
"n 	c #A87060",
"o 	c #272231",
"p 	c #1C1D30",
"q 	c #4D2F48",
"r 	c #50314A",
"s 	c #663749",
"t 	c #B35454",
"u 	c #A64F57",
"v 	c #32253B",
"w 	c #412634",
"x 	c #B46962",
"y 	c #553B3D",
"z 	c #BE7566",
"A 	c #AB6259",
"B 	c #291F2F",
"C 	c #55334E",
"D 	c #693D5B",
"E 	c #904859",
"F 	c #A75057",
"G 	c #703D56",
"H 	c #231F32",
"I 	c #3F2940",
"J 	c #944D5A",
"K 	c #7F424E",
"L 	c #AA595A",
"M 	c #6C3848",
"N 	c #161C2E",
"O 	c #3B283E",
"P 	c #5E3854",
"Q 	c #6F3E5A",
"R 	c #723D53",
"S 	c #3D293F",
"T 	c #181C2E",
"U 	c #713946",
"V 	c #783B43",
"W 	c #8D444A",
"X 	c #66333C",
"Y 	c #1B1D30",
"Z 	c #1F1E31",
"` 	c #D5B583",
" .	c #09162C",
"..	c #3A2131",
"+.	c #803F4B",
"@.	c #593245",
"#.	c #653441",
"$.	c #1A1E2F",
"%.	c #3D353A",
"&.	c #0D182D",
"*.	c #C9AE88",
"=.	c #DABF97",
"-.	c #717276",
";.	c #C3BBB2",
">.	c #BBB0A3",
",.	c #252335",
"'.	c #222434",
").	c #5D3A54",
"!.	c #443243",
"~.	c #A1866E",
"{.	c #A08769",
"].	c #333035",
"^.	c #757475",
"/.	c #F9F5EF",
"(.	c #D9BD93",
"_.	c #282731",
":.	c #56514B",
"<.	c #D1C3AE",
"[.	c #EFE6D8",
"}.	c #F6F4F2",
"|.	c #F9F7F4",
"1.	c #F8F6F3",
"2.	c #DED3C3",
"3.	c #9B9A9A",
"4.	c #312C35",
"5.	c #696652",
"6.	c #FAF8E7",
"7.	c #F8F4EF",
"8.	c #968776",
"9.	c #0F182D",
"0.	c #A18966",
"a.	c #DEC491",
"b.	c #F1E5B7",
"c.	c #F0E5BF",
"d.	c #EADAB6",
"e.	c #E7D59F",
"f.	c #EFE1AA",
"g.	c #EFE1AB",
"h.	c #D8CB9B",
"i.	c #A79170",
"j.	c #927768",
"k.	c #181D2E",
"l.	c #696754",
"m.	c #EFE7BD",
"n.	c #FEFDFC",
"o.	c #DEDAC5",
"p.	c #C3A578",
"q.	c #49403C",
"r.	c #DAC391",
"s.	c #F0E5C7",
"t.	c #FDFCF9",
"u.	c #FFFFFF",
"v.	c #FAF6E8",
"w.	c #F6EFD6",
"x.	c #F4EBCA",
"y.	c #E2CC98",
"z.	c #CBAB7E",
"A.	c #997D6C",
"B.	c #5B4B48",
"C.	c #E2D099",
"D.	c #EADCCA",
"E.	c #F7F4E0",
"F.	c #D0BEA7",
"G.	c #A28F6C",
"H.	c #EEE0AA",
"I.	c #DCC595",
"J.	c #76746F",
"K.	c #F6EED1",
"L.	c #EFE1AC",
"M.	c #EDDEA9",
"N.	c #DFC794",
"O.	c #9E826E",
"P.	c #886F62",
"Q.	c #10192D",
"R.	c #4A4B43",
"S.	c #C8BA8A",
"T.	c #D8BC8B",
"U.	c #EDE3C0",
"V.	c #DCDBD6",
"W.	c #2A2D33",
"X.	c #0F192D",
"Y.	c #B5AC89",
"Z.	c #EDDFC3",
"`.	c #9C8563",
" +	c #5F5F5F",
".+	c #FBF6E7",
"++	c #F2E7BE",
"@+	c #EEDFA9",
"#+	c #DDC390",
"$+	c #B29475",
"%+	c #7E675C",
"&+	c #282633",
"*+	c #6B614F",
"=+	c #D2B482",
"-+	c #DCC38F",
";+	c #EFE9B6",
">+	c #7D7A61",
",+	c #6B5C4C",
"'+	c #E3D7BD",
")+	c #DBBF8B",
"!+	c #5C5044",
"~+	c #FAF6E6",
"{+	c #F5EDCF",
"]+	c #E8D5A0",
"^+	c #D9BC89",
"/+	c #BB9D78",
"(+	c #987C6C",
"_+	c #4E4242",
":+	c #584C42",
"<+	c #292832",
"[+	c #B59A71",
"}+	c #E3D39C",
"|+	c #CEC896",
"1+	c #171D2E",
"2+	c #1F2230",
"3+	c #E2D5A7",
"4+	c #B89C72",
"5+	c #1B1F2F",
"6+	c #5E5F64",
"7+	c #FBF9F1",
"8+	c #F0E3B2",
"9+	c #ECDCA6",
"0+	c #D0B081",
"a+	c #4E4142",
"b+	c #857257",
"c+	c #B1976F",
"d+	c #2E2C33",
"e+	c #695A4A",
"f+	c #C3AA7D",
"g+	c #DCD6A0",
"h+	c #7B785F",
"i+	c #0F172D",
"j+	c #171C2E",
"k+	c #131A2D",
"l+	c #8C8D90",
"m+	c #9A937A",
"n+	c #978D6E",
"o+	c #877358",
"p+	c #957F5F",
"q+	c #C3A679",
"r+	c #C3A57C",
"s+	c #A68970",
"t+	c #6A5750",
"u+	c #302C36",
"v+	c #917C5E",
"w+	c #C0A377",
"x+	c #3F3A39",
"y+	c #3D2533",
"z+	c #222430",
"A+	c #BFA277",
"B+	c #A09875",
"C+	c #CCC695",
"D+	c #000C2A",
"E+	c #8E866A",
"F+	c #B6AB94",
"G+	c #51473F",
"H+	c #756F5A",
"I+	c #ADA47F",
"J+	c #DCCA99",
"K+	c #D6B684",
"L+	c #CBAC7D",
"M+	c #705D52",
"N+	c #4D433F",
"O+	c #9E8664",
"P+	c #6E4643",
"Q+	c #9C494C",
"R+	c #843F44",
"S+	c #685A49",
"T+	c #746454",
"U+	c #E0D7A2",
"V+	c #76725B",
"W+	c #000329",
"X+	c #E9D7A9",
"Y+	c #11192D",
"Z+	c #9A9B9D",
"`+	c #F2EEE0",
" @	c #E8DCAC",
".@	c #EADBA6",
"+@	c #DCC492",
"@@	c #CFB181",
"#@	c #978060",
"$@	c #4D433D",
"%@	c #978161",
"&@	c #B29574",
"*@	c #967B67",
"=@	c #9A5C55",
"-@	c #B45454",
";@	c #853F44",
">@	c #08162C",
",@	c #AC926C",
"'@	c #A99E7B",
")@	c #BCA77C",
"!@	c #262631",
"~@	c #D7C898",
"{@	c #F7F1DE",
"]@	c #D5BE9B",
"^@	c #4B423D",
"/@	c #C2C1BE",
"(@	c #F3E9C6",
"_@	c #DECB99",
":@	c #493F3B",
"<@	c #B8B387",
"[@	c #BCAE82",
"}@	c #CCB989",
"|@	c #917E60",
"1@	c #9A8362",
"2@	c #C8A479",
"3@	c #B75C58",
"4@	c #6D5D4B",
"5@	c #CEAF7F",
"6@	c #4A403F",
"7@	c #C6A87B",
"8@	c #6A5B4A",
"9@	c #4D2936",
"0@	c #A79975",
"a@	c #EFE0AA",
"b@	c #E7D49F",
"c@	c #7D6A52",
"d@	c #BFBBB0",
"e@	c #F1E5B9",
"f@	c #CBB081",
"g@	c #00092A",
"h@	c #CDB585",
"i@	c #727059",
"j@	c #71604D",
"k@	c #BA9E74",
"l@	c #CDAE7F",
"m@	c #BC6B5F",
"n@	c #BB685F",
"o@	c #121A2D",
"p@	c #A68C6C",
"q@	c #766157",
"r@	c #8B775A",
"s@	c #B69B71",
"t@	c #5D2F39",
"u@	c #363739",
"v@	c #E3D29F",
"w@	c #EDDEA8",
"x@	c #F6F3EA",
"y@	c #F5F0DF",
"z@	c #C9AB7D",
"A@	c #000B2A",
"B@	c #D1BE8D",
"C@	c #5F5346",
"D@	c #D4B483",
"E@	c #DFCA95",
"F@	c #EBE2A9",
"G@	c #C4836D",
"H@	c #B85E5A",
"I@	c #937868",
"J@	c #827056",
"K@	c #121B2E",
"L@	c #766351",
"M@	c #DFCA97",
"N@	c #F5EDD1",
"O@	c #E7D9A5",
"P@	c #A18967",
"Q@	c #00122C",
"R@	c #C7A97B",
"S@	c #6A5A4B",
"T@	c #D6B683",
"U@	c #D8BB88",
"V@	c #E2D09A",
"W@	c #DBC091",
"X@	c #C07667",
"Y@	c #B65455",
"Z@	c #894F4A",
"`@	c #402533",
" #	c #63333F",
".#	c #452E43",
"+#	c #4F4242",
"@#	c #372B3A",
"##	c #703A49",
"$#	c #65333B",
"%#	c #312439",
"&#	c #5E3753",
"*#	c #847E64",
"=#	c #DACD9C",
"-#	c #DACC9A",
";#	c #AC9B75",
">#	c #5F5B4D",
",#	c #08152C",
"'#	c #89725F",
")#	c #D6B583",
"!#	c #DDC692",
"~#	c #E0CD97",
"{#	c #D4B186",
"]#	c #B85B58",
"^#	c #BD7160",
"/#	c #CC9E77",
"(#	c #9B8463",
"_#	c #422633",
":#	c #292135",
"<#	c #663B59",
"[#	c #87434F",
"}#	c #552C37",
"|#	c #5C3652",
"1#	c #8D4758",
"2#	c #4F3049",
"3#	c #383739",
"4#	c #3A393A",
"5#	c #171C2F",
"6#	c #37263C",
"7#	c #472D45",
"8#	c #06152C",
"9#	c #C8AA7C",
"0#	c #A2856E",
"a#	c #D5B483",
"b#	c #CFA47C",
"c#	c #DFC999",
"d#	c #2E2337",
"e#	c #53324C",
"f#	c #54334D",
"g#	c #39263D",
"h#	c #524740",
"i#	c #988262",
"j#	c #3E2740",
"k#	c #934958",
"l#	c #8E4859",
"m#	c #4C2F48",
"n#	c #36263B",
"o#	c #5A3651",
"p#	c #703F5B",
"q#	c #844354",
"r#	c #00142C",
"s#	c #937A65",
"t#	c #D0A97D",
"u#	c #C28369",
"v#	c #CD9F7E",
"w#	c #E8DDA4",
"x#	c #DEC994",
"y#	c #6F5F4C",
"z#	c #35253B",
"A#	c #141C2D",
"B#	c #66574B",
"C#	c #C9AA7C",
"D#	c #D1B180",
"E#	c #574B41",
"F#	c #543148",
"G#	c #AB5156",
"H#	c #82445A",
"I#	c #8A4659",
"J#	c #AE5256",
"K#	c #AB5051",
"L#	c #BFA278",
"M#	c #685449",
"N#	c #C38269",
"O#	c #BC6A5F",
"P#	c #C27B69",
"Q#	c #CFA380",
"R#	c #E1CE98",
"S#	c #D7BA87",
"T#	c #CAAB7D",
"U#	c #353135",
"V#	c #685949",
"W#	c #CFB080",
"X#	c #C3A47B",
"Y#	c #7D6859",
"Z#	c #1D1D2E",
"`#	c #693747",
" $	c #B45455",
".$	c #00162C",
"+$	c #9F846B",
"@$	c #522D37",
"#$	c #B75555",
"$$	c #B75957",
"%$	c #BC6B60",
"&$	c #C89471",
"*$	c #927C5E",
"=$	c #151B2E",
"-$	c #212330",
";$	c #1E2130",
">$	c #252133",
",$	c #5E3240",
"'$	c #894453",
")$	c #8A4553",
"!$	c #834252",
"~$	c #282035",
"{$	c #745F56",
"]$	c #71514D",
"^$	c #B75856",
"/$	c #D0A87C",
"($	c #D4B583",
"_$	c #141B2E",
":$	c #1D1E30",
"<$	c #131B2D",
"[$	c #6A5751",
"}$	c #764043",
"|$	c #BC6F5F",
"1$	c #1E2030",
"2$	c #463B3E",
"3$	c #743E42",
"4$	c #BB6E5F",
"5$	c #9C8564",
"6$	c #1F212F",
"7$	c #65534E",
"8$	c #572E38",
"9$	c #171F2F",
"                                                                                ",
"                                                                                ",
"                                                                                ",
"                                                . +                             ",
"                                            @ # $ % + &                         ",
"                                        * = - ; > , ' ) !                       ",
"                                      ~ { ] ^ / ( _ : < [ }                     ",
"                                    | 1 ] 2 3 ] > > 4 < 5 6 7                   ",
"                                    8 ] 9 0 a b c d e f g h i                   ",
"                                  j k l m _ n o p q r s t u v                   ",
"                                  w x y z A B @ C D D E F G H                   ",
"                                  I J K L M @ N O P D Q R S                     ",
"                                  T U V W X N   N Y Z Z p N                     ",
"      `                            ...+.@.#.$.%.&.                              ",
"      *.=.                      -.;.>.,.'.).!.~.{.].                            ",
"      ^./.(.                  _.:.<.[.}.}.|.1.2.3.4.N                           ",
"      5.6.7.8.              9.0.a.b.c.d.e.f.g.h.i.j.k.N                         ",
"      l.m.n.o.p.            q.r.s.t.u.v.w.x.g.y.z.A.B.N                         ",
"      l.C.D.E.F.            G.H.I.J.K.L.g.g.M.N.` O.P.Q.                        ",
"      R.S.T.U.V.W.        X.Y.Z.`. +.+++g.@+#+` ` $+%+&+                        ",
"        *+=+-+;+>+        ,+'+)+!+ +~+{+]+^+` ` ` /+(+_+N   :+<+                ",
"        X.[+` }+|+1+      2+3+4+5+6+7+8+9+` ` ` ` 0+(+a+$.b+c+d+                ",
"          e+` f+g+h+      9.i+j+N k+l+m+n+o+p+q+r+s+t+u+v+w+x+y+                ",
"          z+[+A+B+C+D+  N E+F+G+N N k+k+H+I+J+K+L+M+N+O+w+P+Q+R+                ",
"            S+` T+U+V+  W+h.X+0.Y+Z+`+ @.@+@@@#@$@%@&@*@=@-@< ;@                ",
"            >@[+,@'@)@!@D+~@{@]@^@/@(@g._@:@<@[@}@|@1@2@3@< < ;@                ",
"              4@5@6@7@8@9@0@a@b@c@d@e@a@f@g@h@i@j@k@l@` m@n@< ;@                ",
"              o@p@q@r@s@t@u@v@w@x@y@g.H.z@A@B@C@D@` E@F@G@H@< ;@                ",
"              N a+I@%.J@K@N L@M@++N@g.O@P@Q@R@S@T@U@V@W@X@< Y@Z@                ",
"            `@ #.#+#@###$#%#&#*#=#-#;#>#Q.,#R@'#)#!#~#{#]#^#/#(#                ",
"            _#s :#r <#[#}#|#1#2#3#4#5#6#7#8#9#0#)#` a#b#c#!#` (#                ",
"              d#e#f#g#h#i#j#k#l#m#n#o#p#q#r#9#s#K+t#u#v#w#x#` y#                ",
"              @ z#A#B#C#D#E#F#G#H#D I#J#K#r#L#M#N#O#P#Q#R#S#T#U#                ",
"                    V#W#X#Y#Z#`#J#g  $< K#.$+$@$#$$$%$&$` ` *$=$                ",
"                    N -$;$>$T j+,$'$)$)$!$~${$]$-@< ^$/$($(#_$                  ",
"                          O :$N N <$<$<$<$@ k.[$}$-@|$K+(#X.                    ",
"                          @ N N           N N 1$2$3$4$5$6$                      ",
"                          N N           N N N N %.7$8$9$                        ",
"                        N N N             N N     <$N                           ",
"                          N                                                     ",
"                                                                                ",
"                                                                                ",
"                                                                                "};
