/* XPM */
static char * left_warrior_L_xpm[] = {
"48 40 723 2",
"  	c None",
". 	c #684744",
"+ 	c #80564E",
"@ 	c #926156",
"# 	c #87564F",
"$ 	c #A15451",
"% 	c #7D3F43",
"& 	c #935B52",
"* 	c #A36B5D",
"= 	c #A56D5E",
"- 	c #A96D5F",
"; 	c #AC6A5E",
"> 	c #AC6F60",
", 	c #B2665C",
"' 	c #984E4D",
") 	c #6A343C",
"! 	c #81534D",
"~ 	c #A86C5E",
"{ 	c #BE7B69",
"] 	c #C47D6A",
"^ 	c #C27868",
"/ 	c #C27969",
"( 	c #C6816E",
"_ 	c #C27968",
": 	c #B3625B",
"< 	c #8C4349",
"[ 	c #512C3A",
"} 	c #614040",
"| 	c #A97161",
"1 	c #B87967",
"2 	c #BE7968",
"3 	c #BF7465",
"4 	c #BB7163",
"5 	c #BB7C69",
"6 	c #BA7C69",
"7 	c #BE7C69",
"8 	c #BC6A60",
"9 	c #A85153",
"0 	c #7B3D46",
"a 	c #2F2232",
"b 	c #8F5751",
"c 	c #B17564",
"d 	c #9E6458",
"e 	c #B07061",
"f 	c #BA7967",
"g 	c #A46C5E",
"h 	c #8F6054",
"i 	c #8A5B52",
"j 	c #A26158",
"k 	c #B05B57",
"l 	c #B15354",
"m 	c #96484B",
"n 	c #3E2635",
"o 	c #945452",
"p 	c #925F55",
"q 	c #A9695D",
"r 	c #AE685D",
"s 	c #8D564F",
"t 	c #50383C",
"u 	c #47323A",
"v 	c #4B323E",
"w 	c #593641",
"x 	c #824148",
"y 	c #9F4B51",
"z 	c #954852",
"A 	c #4E2E42",
"B 	c #231F32",
"C 	c #D4B584",
"D 	c #D6B787",
"E 	c #7F4550",
"F 	c #8B4D51",
"G 	c #A45B59",
"H 	c #915152",
"I 	c #5B343D",
"J 	c #231F33",
"K 	c #452C44",
"L 	c #583450",
"M 	c #5C3652",
"N 	c #804152",
"O 	c #A14D54",
"P 	c #9B4B53",
"Q 	c #533045",
"R 	c #241F32",
"S 	c #A79170",
"T 	c #C6B298",
"U 	c #E3CFB5",
"V 	c #5D3144",
"W 	c #8E464E",
"X 	c #954A52",
"Y 	c #743B46",
"Z 	c #3E2535",
"` 	c #221E32",
" .	c #432B43",
"..	c #613956",
"+.	c #6A3D5B",
"@.	c #89465A",
"#.	c #974B58",
"$.	c #804151",
"%.	c #42293D",
"&.	c #56514D",
"*.	c #B3AFA7",
"=.	c #F1E7D8",
"-.	c #DDC8AC",
";.	c #32292A",
">.	c #563D39",
",.	c #7C3B41",
"'.	c #743542",
").	c #5D2A3B",
"!.	c #412533",
"~.	c #2E2831",
"{.	c #382C39",
"].	c #4B2F47",
"^.	c #56334D",
"/.	c #703B4D",
"(.	c #6D3A4C",
"_.	c #482E47",
":.	c #232032",
"<.	c #393934",
"[.	c #AEAB9B",
"}.	c #F7F3E1",
"|.	c #EAE3DA",
"1.	c #978F81",
"2.	c #4A494F",
"3.	c #716A66",
"4.	c #968A7D",
"5.	c #7A6B6D",
"6.	c #6B6268",
"7.	c #72646D",
"8.	c #76686E",
"9.	c #786E6B",
"0.	c #786C65",
"a.	c #463F41",
"b.	c #222231",
"c.	c #1D1D2F",
"d.	c #1F1E30",
"e.	c #1B1D30",
"f.	c #393B38",
"g.	c #A7A083",
"h.	c #F1E9CC",
"i.	c #F4F0E8",
"j.	c #D6CCB1",
"k.	c #2A242A",
"l.	c #7E7974",
"m.	c #C5BEB6",
"n.	c #E6E0D7",
"o.	c #C8C6C3",
"p.	c #C0BFBD",
"q.	c #C5C1C0",
"r.	c #C8C1BF",
"s.	c #CBC0B7",
"t.	c #C5B7A6",
"u.	c #7C7063",
"v.	c #393438",
"w.	c #3A3C3B",
"x.	c #A09572",
"y.	c #E5D6AD",
"z.	c #ECE1CF",
"A.	c #EBE4CD",
"B.	c #A9A292",
"C.	c #0F192D",
"D.	c #816D54",
"E.	c #BAA782",
"F.	c #DED1AA",
"G.	c #EDE1BE",
"H.	c #E5D8BB",
"I.	c #E3D5B6",
"J.	c #E7DBBA",
"K.	c #EBDFBB",
"L.	c #DED1AC",
"M.	c #B6A788",
"N.	c #887463",
"O.	c #524544",
"P.	c #9E926E",
"Q.	c #C4B188",
"R.	c #DDC7A3",
"S.	c #EAE0BF",
"T.	c #B4AF96",
"U.	c #594D42",
"V.	c #AC9972",
"W.	c #E1D0AC",
"X.	c #F1E9D4",
"Y.	c #F8F2E3",
"Z.	c #F6EEDC",
"`.	c #F2E8CA",
" +	c #F2E6BF",
".+	c #F2E6B6",
"++	c #E7D6A3",
"@+	c #C6AE81",
"#+	c #A1866D",
"$+	c #715D53",
"%+	c #42383D",
"&+	c #938262",
"*+	c #CFB383",
"=+	c #E0CEA1",
"-+	c #D2C99D",
";+	c #A7A280",
">+	c #998969",
",+	c #CBB98A",
"'+	c #DFCFA9",
")+	c #D8D0C3",
"!+	c #ECE8DC",
"~+	c #F4EDD3",
"{+	c #F3E9C4",
"]+	c #F2E6BA",
"^+	c #EFE1AF",
"/+	c #E7D39E",
"(+	c #D4B686",
"_+	c #B39676",
":+	c #8E7564",
"<+	c #534545",
"[+	c #00122B",
"}+	c #72614E",
"|+	c #BDA176",
"1+	c #D6BC89",
"2+	c #DED19C",
"3+	c #ABA67E",
"4+	c #6E6D57",
"5+	c #B8AA85",
"6+	c #D8C79B",
"7+	c #C3B188",
"8+	c #9C917C",
"9+	c #D7D1BB",
"0+	c #EEE4BC",
"a+	c #EFE2AF",
"b+	c #EDDEA8",
"c+	c #E9D6A1",
"d+	c #DFC793",
"e+	c #D3B483",
"f+	c #BFA17A",
"g+	c #9D826C",
"h+	c #62514D",
"i+	c #1B1F2F",
"j+	c #665848",
"k+	c #383336",
"l+	c #988261",
"m+	c #CBAE7F",
"n+	c #C7B688",
"o+	c #B7B185",
"p+	c #A9A47D",
"q+	c #5D5449",
"r+	c #BAAF91",
"s+	c #D5C4A2",
"t+	c #A7957B",
"u+	c #82807E",
"v+	c #DCDAD4",
"w+	c #F3EDD8",
"x+	c #EFE2B6",
"y+	c #E7D49F",
"z+	c #D7BA87",
"A+	c #D4B483",
"B+	c #CBAC7F",
"C+	c #A0856C",
"D+	c #675550",
"E+	c #3D353B",
"F+	c #71614E",
"G+	c #978061",
"H+	c #836D55",
"I+	c #473D3B",
"J+	c #685949",
"K+	c #BDA276",
"L+	c #A8926D",
"M+	c #C1B78A",
"N+	c #B3AD84",
"O+	c #4D4C43",
"P+	c #544E49",
"Q+	c #C8BDA2",
"R+	c #CCBA98",
"S+	c #887459",
"T+	c #767572",
"U+	c #D5D1C3",
"V+	c #EDE4C4",
"W+	c #EBDCAC",
"X+	c #DDC592",
"Y+	c #D4B583",
"Z+	c #CEAE80",
"`+	c #AA8D71",
" @	c #756057",
".@	c #3F363C",
"+@	c #161C2E",
"@@	c #353036",
"#@	c #7D6B53",
"$@	c #A48B67",
"%@	c #8D7359",
"&@	c #714944",
"*@	c #3D2833",
"=@	c #9B8563",
"-@	c #AA906B",
";@	c #BCAC82",
">@	c #B4AC83",
",@	c #9C9471",
"'@	c #363539",
")@	c #8C846F",
"!@	c #897D66",
"~@	c #54473C",
"{@	c #5C5D60",
"]@	c #ABA9A1",
"^@	c #C8C0A4",
"/@	c #C8BB93",
"(@	c #BBA67C",
"_@	c #B39870",
":@	c #CDAE7F",
"<@	c #C1A27B",
"[@	c #997F68",
"}@	c #67554F",
"|@	c #363038",
"1@	c #181D2E",
"2@	c #2C2B33",
"3@	c #554744",
"4@	c #826E59",
"5@	c #9B7F62",
"6@	c #A2795F",
"7@	c #9C5951",
"8@	c #A14D4E",
"9@	c #5D2F39",
"0@	c #6B5C4A",
"a@	c #B0966E",
"b@	c #AA9571",
"c@	c #A69773",
"d@	c #AE9D75",
"e@	c #544640",
"f@	c #7D504A",
"g@	c #855850",
"h@	c #686353",
"i@	c #867E6B",
"j@	c #686156",
"k@	c #22212E",
"l@	c #323541",
"m@	c #5E5E62",
"n@	c #777367",
"o@	c #898169",
"p@	c #9F9270",
"q@	c #B5A27A",
"r@	c #C8AE80",
"s@	c #CFB081",
"t@	c #BA9D78",
"u@	c #947B67",
"v@	c #5C4C49",
"w@	c #504E46",
"x@	c #7B755D",
"y@	c #9C8A68",
"z@	c #948364",
"A@	c #958062",
"B@	c #A48969",
"C@	c #AC8167",
"D@	c #AB6359",
"E@	c #AE5253",
"F@	c #B25354",
"G@	c #66333C",
"H@	c #4F453E",
"I@	c #A68D69",
"J@	c #988063",
"K@	c #978163",
"L@	c #A48E6A",
"M@	c #796450",
"N@	c #85544D",
"O@	c #88524D",
"P@	c #7E4F4A",
"Q@	c #AAA07D",
"R@	c #BEB192",
"S@	c #928671",
"T@	c #3B3435",
"U@	c #5B5C61",
"V@	c #9C9A96",
"W@	c #A09983",
"X@	c #ACA27F",
"Y@	c #BCAD83",
"Z@	c #CCB688",
"`@	c #D3B786",
" #	c #C9AA7E",
".#	c #B69976",
"+#	c #8F7664",
"@#	c #504243",
"##	c #78725A",
"$#	c #A99E78",
"%#	c #988968",
"&#	c #A7936E",
"*#	c #B29970",
"=#	c #BC9E75",
"-#	c #BC8A6D",
";#	c #B6605A",
">#	c #B75A57",
",#	c #B25454",
"'#	c #65333C",
")#	c #7A6952",
"!#	c #89735D",
"~#	c #8D7660",
"{#	c #8D785C",
"]#	c #997F61",
"^#	c #87544D",
"/#	c #975350",
"(#	c #86504C",
"_#	c #6F4946",
":#	c #CDC094",
"<#	c #E3D4AE",
"[#	c #BFAE8E",
"}#	c #6F5F4D",
"|#	c #8B8A87",
"1#	c #EBE6D7",
"2#	c #EFE3BB",
"3#	c #EBDBA7",
"4#	c #E1C996",
"5#	c #D8BA88",
"6#	c #CEAF80",
"7#	c #B89A77",
"8#	c #A88C70",
"9#	c #776356",
"0#	c #372F38",
"a#	c #8D8264",
"b#	c #BDAE81",
"c#	c #8E8263",
"d#	c #A28C68",
"e#	c #BBA176",
"f#	c #D1B886",
"g#	c #CFA57D",
"h#	c #BC6A5F",
"i#	c #B85E59",
"j#	c #65323C",
"k#	c #3B2F38",
"l#	c #6F5B53",
"m#	c #766157",
"n#	c #67574B",
"o#	c #876D57",
"p#	c #7E4846",
"q#	c #A86259",
"r#	c #9B5D55",
"s#	c #7B4B48",
"t#	c #C0B088",
"u#	c #E6DAB6",
"v#	c #DCCBA5",
"w#	c #A18F74",
"x#	c #9A968C",
"y#	c #F1E7C9",
"z#	c #EFE2B0",
"A#	c #E4D09C",
"B#	c #DABE8B",
"C#	c #D6B683",
"D#	c #CCAD7F",
"E#	c #AC9072",
"F#	c #8C7363",
"G#	c #4E4242",
"H#	c #01102B",
"I#	c #84785D",
"J#	c #B7A479",
"K#	c #A78F6B",
"L#	c #CCAE7F",
"M#	c #D9BF8C",
"N#	c #E2D29C",
"O#	c #D9BB8F",
"P#	c #B75B58",
"Q#	c #B25755",
"R#	c #65343C",
"S#	c #62323C",
"T#	c #573044",
"U#	c #533D45",
"V#	c #4C3F42",
"W#	c #563B44",
"X#	c #7F494E",
"Y#	c #9F4D4F",
"Z#	c #914A4B",
"`#	c #834848",
" $	c #8F8569",
".$	c #D8CB9E",
"+$	c #E9D9A9",
"@$	c #CFC3A7",
"#$	c #C7C1B3",
"$$	c #F0E4BB",
"%$	c #EFE0AC",
"&$	c #DEC592",
"*$	c #D5B584",
"=$	c #D3B382",
"-$	c #C2A579",
";$	c #8E7760",
">$	c #604F4A",
",$	c #302B36",
"'$	c #7E6D55",
")$	c #B49B72",
"!$	c #B19671",
"~$	c #D1B382",
"{$	c #DFCA95",
"]$	c #DEC996",
"^$	c #D0A680",
"/$	c #BD6D61",
"($	c #B76A5D",
"_$	c #694140",
":$	c #532C39",
"<$	c #462A3D",
"[$	c #402C3F",
"}$	c #4D3348",
"|$	c #62384F",
"1$	c #743B48",
"2$	c #7E4B4B",
"3$	c #78534F",
"4$	c #554041",
"5$	c #534F45",
"6$	c #B0A17A",
"7$	c #DECD9D",
"8$	c #EBE0C1",
"9$	c #ECE6D2",
"0$	c #F1E6BD",
"a$	c #EEE0AC",
"b$	c #D5BD8C",
"c$	c #B69B72",
"d$	c #998262",
"e$	c #7B6953",
"f$	c #564645",
"g$	c #4C3645",
"h$	c #322639",
"i$	c #0E152E",
"j$	c #7F6D55",
"k$	c #B99D74",
"l$	c #BA9D77",
"m$	c #D2B383",
"n$	c #DBC28E",
"o$	c #D9BD8C",
"p$	c #CDA17D",
"q$	c #C3836D",
"r$	c #C79170",
"s$	c #C99E76",
"t$	c #735D4C",
"u$	c #422A40",
"v$	c #462C45",
"w$	c #492E47",
"x$	c #60434B",
"y$	c #8A6C58",
"z$	c #A58A69",
"A$	c #977E67",
"B$	c #5F504A",
"C$	c #04152C",
"D$	c #2C2634",
"E$	c #766357",
"F$	c #BAAA85",
"G$	c #E5D9B1",
"H$	c #F0E5C2",
"I$	c #DED1A7",
"J$	c #C6BA8F",
"K$	c #9D8D6B",
"L$	c #72624E",
"M$	c #504440",
"N$	c #3F2E3F",
"O$	c #482C47",
"P$	c #482D46",
"Q$	c #2F2338",
"R$	c #08142D",
"S$	c #847158",
"T$	c #BFA179",
"U$	c #BD9F79",
"V$	c #D2B382",
"W$	c #D1AC81",
"X$	c #D3B087",
"Y$	c #D8BB8E",
"Z$	c #D5B586",
"`$	c #CEAF7F",
" %	c #75644F",
".%	c #442B43",
"+%	c #41323E",
"@%	c #74634F",
"#%	c #AE9273",
"$%	c #68574E",
"%%	c #00112B",
"&%	c #422A41",
"*%	c #60334B",
"=%	c #897565",
"-%	c #AFA480",
";%	c #BDB188",
">%	c #A39674",
",%	c #7B725D",
"'%	c #483F44",
")%	c #3A233D",
"!%	c #522F45",
"~%	c #68394F",
"{%	c #733E55",
"]%	c #58344C",
"^%	c #302438",
"/%	c #00132B",
"(%	c #867159",
"_%	c #BEA078",
":%	c #B49571",
"<%	c #CBA279",
"[%	c #CB9B76",
"}%	c #CB9978",
"|%	c #D9BC8F",
"1%	c #E5D69F",
"2%	c #D7BE8B",
"3%	c #C0A478",
"4%	c #695A4A",
"5%	c #423A3A",
"6%	c #857158",
"7%	c #BFA277",
"8%	c #BC9F76",
"9%	c #967D65",
"0%	c #594A46",
"a%	c #14172E",
"b%	c #54324A",
"c%	c #7F4154",
"d%	c #713D4F",
"e%	c #513D46",
"f%	c #484142",
"g%	c #382C3B",
"h%	c #4A2F44",
"i%	c #62364C",
"j%	c #793F54",
"k%	c #854558",
"l%	c #8A4659",
"m%	c #8C4758",
"n%	c #6B3C56",
"o%	c #3E2940",
"p%	c #0F162E",
"q%	c #7C6A55",
"r%	c #AE906E",
"s%	c #A1785F",
"t%	c #BC7C65",
"u%	c #BF7464",
"v%	c #C68B72",
"w%	c #D6B58A",
"x%	c #DFCA94",
"y%	c #D0B483",
"z%	c #A28A67",
"A%	c #5A4E43",
"B%	c #443D3A",
"C%	c #6E5E4C",
"D%	c #605148",
"E%	c #4F3F44",
"F%	c #3C2C3D",
"G%	c #2F2238",
"H%	c #40293D",
"I%	c #7D4050",
"J%	c #884557",
"K%	c #713D52",
"L%	c #57354B",
"M%	c #623850",
"N%	c #7B4157",
"O%	c #964A57",
"P%	c #AA5055",
"Q%	c #A44E57",
"R%	c #8C4759",
"S%	c #814358",
"T%	c #653A55",
"U%	c #412B42",
"V%	c #1D1C31",
"W%	c #66574C",
"X%	c #92715F",
"Y%	c #924F4D",
"Z%	c #B35C57",
"`%	c #BA645C",
" &	c #C27F68",
".&	c #CEA27A",
"+&	c #C3A679",
"@&	c #2A2733",
"#&	c #412B41",
"$&	c #3A273D",
"%&	c #2B2236",
"&&	c #252032",
"*&	c #532E3F",
"=&	c #854250",
"-&	c #924957",
";&	c #874556",
">&	c #914857",
",&	c #A95056",
"'&	c #B15356",
")&	c #B45455",
"!&	c #A44F57",
"~&	c #814359",
"{&	c #693B56",
"]&	c #4B2E46",
"^&	c #131A2E",
"/&	c #7C5D55",
"(&	c #8E4F4D",
"_&	c #B05454",
":&	c #B75856",
"<&	c #C4886B",
"[&	c #CFA97C",
"}&	c #C0A377",
"|&	c #8B775B",
"1&	c #2B2132",
"2&	c #62333F",
"3&	c #8B434D",
"4&	c #9E4C56",
"5&	c #A44F58",
"6&	c #AC5257",
"7&	c #A04D58",
"8&	c #6F3E59",
"9&	c #32243A",
"0&	c #1A1D2F",
"a&	c #111A2D",
"b&	c #393339",
"c&	c #504041",
"d&	c #724A49",
"e&	c #96494B",
"f&	c #B05253",
"g&	c #BB9D74",
"h&	c #947E5F",
"i&	c #392433",
"j&	c #5E303B",
"k&	c #7A3C45",
"l&	c #7E3E48",
"m&	c #7D3E48",
"n&	c #7A3D48",
"o&	c #6B3849",
"p&	c #59334B",
"q&	c #4D2F49",
"r&	c #3E293F",
"s&	c #201E31",
"t&	c #151C2E",
"u&	c #252632",
"v&	c #4A3A3E",
"w&	c #794D4B",
"x&	c #9A4E4E",
"y&	c #A77960",
"z&	c #9A8362",
"A&	c #141C2E",
"B&	c #171D2F",
"C&	c #1B1E31",
"D&	c #1D1E32",
"E&	c #1E1E31",
"F&	c #1F1E31",
"G&	c #1D1E30",
"H&	c #2D2A34",
"I&	c #5E4D49",
"J&	c #6D4043",
"K&	c #6E4B44",
"L&	c #171C2E",
"M&	c #3A3239",
"N&	c #292432",
"                                                                                                ",
"                                                      . + @ # $ %                               ",
"                                                  & * = - ; > , ' )                             ",
"                                                ! ~ { ] ^ / ( _ : < [                           ",
"                                              } | 1 2 3 4 5 6 7 8 9 0 a                         ",
"                                              b c d e f g h i j k l m n                         ",
"                                              o p q r s t u v w x y z A B                       ",
"      C D                                     E F G H I J K L M N O P Q R                       ",
"    S T U                                     V W X Y Z `  ...+.@.#.$.%.B                       ",
"    &.*.=.-.                                ;.>.,.'.).!.~.{.].^./.(._.:.                        ",
"    <.[.}.|.1.                            2.3.4.5.6.7.8.9.0.a.b.c.d.e.                          ",
"    f.g.h.i.j.                          k.l.m.n.o.p.q.r.s.t.u.v.                                ",
"    w.x.y.z.A.B.                      C.D.E.F.G.H.I.J.K.L.M.N.O.                                ",
"      P.Q.R.S.T.                      U.V.W.X.Y.Z.`. +.+++@+#+$+%+                              ",
"        &+*+=+-+;+                    >+,+'+)+!+~+{+]+^+/+(+_+:+<+[+                            ",
"        }+|+1+2+3+4+                  5+6+7+8+9+0+a+b+c+d+e+f+g+h+i+                j+k+        ",
"          l+m+n+o+p+                q+r+s+t+u+v+w+x+y+d+z+A+B+C+D+E+            F+G+H+I+        ",
"          J+K+L+M+N+O+              P+Q+R+S+T+U+V+W+X+Y+A+A+Z+`+ @.@+@      @@#@$@%@&@*@        ",
"            =@-@;@>@,@              '@)@!@~@{@]@^@/@(@_@|+:@<@[@}@|@1@  2@3@4@5@6@7@8@9@        ",
"            0@a@b@c@d@e@f@g@        h@i@j@k@l@m@n@o@p@q@r@s@t@u@v@w@x@y@z@A@B@C@D@E@F@G@        ",
"            H@I@J@K@L@M@N@O@P@      Q@R@S@T@U@V@W@X@Y@Z@`@ #.#+#@###$#%#&#*#=#-#;#>#,#'#        ",
"              )#!#~#{#]#^#/#(#_#    :#<#[#}#|#1#2#3#4#5#6#7#8#9#0#a#b#c#d#e#f#g#h#i#,#j#        ",
"              k#l#m#n#o#p#q#r#s#    t#u#v#w#x#y#z#A#B#C#D#E#F#G#H#I#J#K#L#M#N#O#3 P#Q#R#        ",
"            S#T#U#V#W#X#Y#Z#`#       $.$+$@$#$$$%$&$*$=$-$;$>$,$[+'$)$!$~${$]$^$/$i#($_$        ",
"            :$<$[$}$|$1$2$3$4$      5$6$7$8$9$0$a$b$c$d$e$f$g$h$i$j$k$l$m$n$o$p$q$r$s$t$        ",
"              u$v$w$x$y$z$A$B$C$    D$E$F$G$H$I$J$K$L$M$N$O$P$Q$R$S$T$U$V$*$W$X$Y$Z$`$ %        ",
"                .%+%@%c$6##%$%%%    &%*%=%-%;%>%,%'%)%!%~%{%]%^%/%(%_%:%<%[%}%|%1%2%3%4%        ",
"                  5%6%7%8%9%0%a%    b%c%d%e%f%g%h%i%j%k%l%m%n%o%p%q%r%s%t%u%v%w%x%y%z%A%        ",
"                    B%C%D%E%F%G%    H%I%J%K%L%M%N%O%P%Q%R%S%T%U%V%W%X%Y%Z%`% &.&C +&e$          ",
"                        @&#&$&%&    &&*&=&-&;&>&,&'&)&!&~&{&]&%&^&O./&(&_&:&<&[&}&|&            ",
"                                      1&2&3&4&5&6&6&7&@.8&L 9&0&a&b&c&d&e&f&r$g&h&              ",
"                                        i&j&k&l&m&n&o&p&q&r&s&t&    u&v&w&x&y&z&                ",
"                                        A&A&B&C&C&D&E&F&G&t&+@        H&I&J&K&                  ",
"                                      +@+@+@+@L&L&  L&L&+@+@            M&N&                    ",
"                                        +@+@+@  +@  +@+@                                        ",
"                                                  +@+@+@                                        ",
"                                                                                                ",
"                                                                                                ",
"                                                                                                ",
"                                                                                                "};
