/* XPM */
static char * left_gobelin_L_xpm[] = {
"40 28 355 2",
"  	c None",
". 	c #172131",
"+ 	c #DA965F",
"@ 	c #D9945F",
"# 	c #161C2E",
"$ 	c #2B555B",
"% 	c #4E9B96",
"& 	c #130D27",
"* 	c #D9955F",
"= 	c #F7DD4B",
"- 	c #FFED3E",
"; 	c #F2D14F",
"> 	c #DC9C5D",
", 	c #254A55",
"' 	c #46919B",
") 	c #58B0A9",
"! 	c #26494E",
"~ 	c #63453A",
"{ 	c #D8935F",
"] 	c #ECC454",
"^ 	c #FFED44",
"/ 	c #FFFBE8",
"( 	c #FFEF65",
"_ 	c #E4B159",
": 	c #29334F",
"< 	c #447687",
"[ 	c #4C9DA2",
"} 	c #58B0AA",
"| 	c #4C9793",
"1 	c #161D2E",
"2 	c #8F6246",
"3 	c #D5935D",
"4 	c #CC8D5A",
"5 	c #E3B358",
"6 	c #FEEB45",
"7 	c #FEEB3F",
"8 	c #FEEC44",
"9 	c #FBE647",
"0 	c #E0A65B",
"a 	c #1A242F",
"b 	c #609A4B",
"c 	c #618D48",
"d 	c #14182E",
"e 	c #2B3552",
"f 	c #34546D",
"g 	c #254857",
"h 	c #3B476C",
"i 	c #488592",
"j 	c #4E9FA3",
"k 	c #5AB2AB",
"l 	c #161D2F",
"m 	c #1C4E35",
"n 	c #20643A",
"o 	c #150D2D",
"p 	c #4A3635",
"q 	c #D7A258",
"r 	c #FCE747",
"s 	c #FFED41",
"t 	c #FFF07B",
"u 	c #FFEE5B",
"v 	c #F4D54E",
"w 	c #E5B358",
"x 	c #E8BB56",
"y 	c #E1AA5B",
"z 	c #236C3C",
"A 	c #72B555",
"B 	c #12152D",
"C 	c #28314C",
"D 	c #3D4B70",
"E 	c #404F75",
"F 	c #3E7088",
"G 	c #356E7F",
"H 	c #3F6783",
"I 	c #418596",
"J 	c #468B88",
"K 	c #26743E",
"L 	c #77C35A",
"M 	c #8CCC5E",
"N 	c #539148",
"O 	c #755D49",
"P 	c #E1BD6F",
"Q 	c #F8EAA1",
"R 	c #FFF5B1",
"S 	c #FFFDF4",
"T 	c #FFEE66",
"U 	c #E0AF57",
"V 	c #226039",
"W 	c #1F463C",
"X 	c #394568",
"Y 	c #355971",
"Z 	c #2A5464",
"` 	c #2F3C5A",
" .	c #404E75",
"..	c #3F607F",
"+.	c #3E7C91",
"@.	c #387284",
"#.	c #396860",
"$.	c #38B251",
"%.	c #92D461",
"&.	c #4D703F",
"*.	c #11122D",
"=.	c #1E212F",
"-.	c #C9B78A",
";.	c #EAD9A4",
">.	c #E6D195",
",.	c #DACB5B",
"'.	c #FAE981",
").	c #CDA44F",
"!.	c #5C3F39",
"~.	c #9E7466",
"{.	c #151B2D",
"].	c #3B486C",
"^.	c #3F6682",
"/.	c #3E7D92",
"(.	c #3F768D",
"_.	c #3E8094",
":.	c #335D5E",
"<.	c #3E9060",
"[.	c #60BD56",
"}.	c #77AA52",
"|.	c #13172E",
"1.	c #9C8D6C",
"2.	c #C8B487",
"3.	c #ECDDA8",
"4.	c #BEA97E",
"5.	c #9B7F5E",
"6.	c #2C2430",
"7.	c #131B2E",
"8.	c #3C496E",
"9.	c #3E4C72",
"0.	c #405076",
"a.	c #3F6984",
"b.	c #3E8093",
"c.	c #3D8294",
"d.	c #3A6865",
"e.	c #3E8C61",
"f.	c #61BE57",
"g.	c #314634",
"h.	c #15192D",
"i.	c #9B8B6A",
"j.	c #806F56",
"k.	c #CBB385",
"l.	c #A08C6A",
"m.	c #292832",
"n.	c #17262F",
"o.	c #2A6A3C",
"p.	c #2D7E40",
"q.	c #287D3F",
"r.	c #1D4E34",
"s.	c #1D253A",
"t.	c #313C5C",
"u.	c #3D4A70",
"v.	c #3F6280",
"w.	c #3B7B8D",
"x.	c #243F47",
"y.	c #417168",
"z.	c #3E9750",
"A.	c #305F64",
"B.	c #49928D",
"C.	c #15172B",
"D.	c #5C4F44",
"E.	c #51473F",
"F.	c #907B5D",
"G.	c #181D2E",
"H.	c #152C2F",
"I.	c #66AC51",
"J.	c #8ED260",
"K.	c #63BE57",
"L.	c #328A4D",
"M.	c #2F504E",
"N.	c #161C2F",
"O.	c #364C6A",
"P.	c #3E8597",
"Q.	c #3A7C8D",
"R.	c #3D7C88",
"S.	c #499990",
"T.	c #50A19E",
"U.	c #58AFA8",
"V.	c #131029",
"W.	c #594B4A",
"X.	c #6E5B59",
"Y.	c #252533",
"Z.	c #1C4734",
"`.	c #66AB51",
" +	c #8ACF5F",
".+	c #63BF57",
"++	c #35A54D",
"@+	c #34A54D",
"#+	c #38B351",
"$+	c #3BA159",
"%+	c #335854",
"&+	c #274043",
"*+	c #377687",
"=+	c #3E8698",
"-+	c #48969F",
";+	c #4C9DA1",
">+	c #4D9DA2",
",+	c #57ADA7",
"'+	c #131028",
")+	c #1A1E2F",
"!+	c #836B5F",
"~+	c #7B665E",
"{+	c #2B2935",
"]+	c #161B2E",
"^+	c #329D4A",
"/+	c #319D4A",
"(+	c #2A8743",
"_+	c #205937",
":+	c #192532",
"<+	c #275D42",
"[+	c #407667",
"}+	c #406F66",
"|+	c #315452",
"1+	c #151A2D",
"2+	c #316979",
"3+	c #4A989F",
"4+	c #3C7777",
"5+	c #161A2D",
"6+	c #212231",
"7+	c #856D63",
"8+	c #56494B",
"9+	c #215F39",
"0+	c #16172E",
"a+	c #1F3139",
"b+	c #406F67",
"c+	c #3A655F",
"d+	c #38615B",
"e+	c #1E253B",
"f+	c #3B5C79",
"g+	c #3F778D",
"h+	c #3C6982",
"i+	c #314A64",
"j+	c #2B3551",
"k+	c #297E41",
"l+	c #1C3A32",
"m+	c #3E353E",
"n+	c #302C37",
"o+	c #1C2B36",
"p+	c #3D6962",
"q+	c #3D6A62",
"r+	c #233441",
"s+	c #3B4E70",
"t+	c #3E8497",
"u+	c #3D8193",
"v+	c #3A7B8D",
"w+	c #315C6F",
"x+	c #15102D",
"y+	c #2A8342",
"z+	c #598044",
"A+	c #93D261",
"B+	c #527640",
"C+	c #2C3D51",
"D+	c #417169",
"E+	c #365D59",
"F+	c #32415C",
"G+	c #3E4B71",
"H+	c #405B7C",
"I+	c #3A7D8E",
"J+	c #1C3140",
"K+	c #1C3040",
"L+	c #2F693B",
"M+	c #73C35A",
"N+	c #6BC259",
"O+	c #33673B",
"P+	c #26723D",
"Q+	c #31834C",
"R+	c #1A2432",
"S+	c #161B2D",
"T+	c #374365",
"U+	c #394F66",
"V+	c #405374",
"W+	c #40587A",
"X+	c #3D8495",
"Y+	c #2A5767",
"Z+	c #35A94E",
"`+	c #182D30",
" @	c #193230",
".@	c #3AA657",
"+@	c #315351",
"@@	c #161C2D",
"#@	c #2E3958",
"$@	c #334062",
"%@	c #2B3755",
"&@	c #354163",
"*@	c #3A476B",
"=@	c #303D5F",
"-@	c #28586A",
";@	c #275C6C",
">@	c #62594E",
",@	c #574C46",
"'@	c #121A2D",
")@	c #222332",
"!@	c #3F383F",
"~@	c #1F5436",
"{@	c #182A2F",
"]@	c #33A24C",
"^@	c #3A9959",
"/@	c #294446",
"(@	c #141B2D",
"_@	c #665553",
":@	c #5B4C48",
"<@	c #8C7365",
"[@	c #5E4E4A",
"}@	c #212230",
"|@	c #554746",
"1@	c #635251",
"2@	c #A08869",
"3@	c #A98D6E",
"4@	c #B59973",
"5@	c #A0866B",
"6@	c #998263",
"7@	c #85705B",
"8@	c #0A162D",
"9@	c #4D4142",
"0@	c #715D59",
"a@	c #131A2D",
"b@	c #15142D",
"c@	c #15152D",
"d@	c #28334F",
"e@	c #282E44",
"f@	c #55484A",
"g@	c #4A3E40",
"h@	c #6E5B57",
"i@	c #42393D",
"j@	c #3C3B4D",
"k@	c #263250",
"l@	c #253250",
"m@	c #323D5D",
"n@	c #374366",
"o@	c #1F273E",
"p@	c #3A3339",
"q@	c #222A42",
"r@	c #3F4D74",
"s@	c #3F4D73",
"t@	c #222940",
"u@	c #836C62",
"v@	c #574949",
"w@	c #756057",
"x@	c #394569",
"y@	c #3F6C86",
"z@	c #3F738B",
"A@	c #397A8B",
"B@	c #295564",
"C@	c #192033",
"D@	c #303B5A",
"E@	c #313C5B",
"F@	c #20283F",
"G@	c #5D4D4C",
"H@	c #685650",
"I@	c #2F2B35",
"J@	c #262F48",
"K@	c #24394D",
"L@	c #1E3948",
"M@	c #182333",
"N@	c #332E36",
"                                                                                ",
"                                                                                ",
"                                .                               + + @           ",
"                            # $ % &                           * = - ; >         ",
"                          # , ' ) !                     ~   { ] ^ / ( _         ",
"                        # : < [ } | 1                 2 3 4 5 6 ^ 7 8 9 0 * @ @ ",
"            a b c d # e f g h i j k l m n o         p q r s t u v * @ w x y @ @ ",
"              z A B C D E F G H I J K L M N         O P Q R S T U               ",
"              V W X Y Z `  ...+.@.#.$.%.&.*.      =.-.;.>.,.'.).!.      ~.~.    ",
"              {.]. . .^./.(.(._.:.<.[.}.|.        1.2.3.4.5.6.7.                ",
"              {.].8.8.9.0.a.b.c.d.e.f.g.h.        i.j.k.l.m.                    ",
"            n.o.p.q.r.s.t.u.v.w.x.y.z.A.B.C.      7.D.E.F.G.                    ",
"          H.I.J.K.$.$.L.M.N.O.P.Q.R.S.T.U.V.      W.X.Y.#                       ",
"        Z.`. +.+++@+#+$+y.%+&+*+=+-+;+>+,+'+    )+!+~+{+                        ",
"      ]+^+/+(+_+# :+<+[+}+|+1+2+=+=+=+3+4+5+    6+7+8+                          ",
"      ]+9+0+    a+b+c+y.y.d+e+f+/.g+h+i+j+    k+l+m+n+                          ",
"                o+p+y.y.q+r+s++.P.t+u+v+w+  x+y+z+A+B+                          ",
"                e+C+D+E+F+G+H++.=+=+I+J+K+# # L+M+N+O+                          ",
"      P+Q+R+  S+T+ .U+V+ . . .W+t+=+=+X+Y+# # K $.Z+`+                          ",
"     @$..@+@  @@#@$@%@&@*@*@*@=@-@;@;@>@,@'@)@!@_+~@                            ",
"    {@]@^@/@# (@_@:@<@[@}@|@1@2@3@4@5@6@7@8@9@0@a@                              ",
"      b@c@    @@d@e@f@g@h@i@j@k@k@l@k@m@n@o@  p@                                ",
"              q@r@s@t@u@v@w@x@ . .y@z@P.A@B@                                    ",
"              C@D@E@F@G@H@I@J@E@E@K@L@L@M@5+                                    ",
"                  #   N@}@  # # #                                               ",
"                  # # #       #                                                 ",
"                    #                                                           ",
"                                                                                "};
