/* XPM */
static char * left_gobelin_R_xpm[] = {
"40 29 343 2",
"  	c None",
". 	c #DEA35C",
"+ 	c #E5B458",
"@ 	c #DB985E",
"# 	c #D9945F",
"$ 	c #15182C",
"% 	c #EBC354",
"& 	c #FFED44",
"* 	c #FDEA46",
"= 	c #EBC254",
"- 	c #161C2E",
"; 	c #285262",
"> 	c #3A7272",
", 	c #DA975F",
"' 	c #DC9E5D",
") 	c #DA965F",
"! 	c #F1D150",
"~ 	c #FDE946",
"{ 	c #D9955F",
"] 	c #2C5D6C",
"^ 	c #46939D",
"/ 	c #478E8B",
"( 	c #BA7F54",
"_ 	c #F4D64E",
": 	c #FFEE44",
"< 	c #F7DC4C",
"[ 	c #DEA25C",
"} 	c #ECC653",
"| 	c #F2D14F",
"1 	c #9E7466",
"2 	c #181F2E",
"3 	c #4B6C3D",
"4 	c #161C2D",
"5 	c #32405F",
"6 	c #519EA0",
"7 	c #58AFAA",
"8 	c #51A4A3",
"9 	c #2F5B5D",
"0 	c #A8724E",
"a 	c #E3AF59",
"b 	c #FFED41",
"c 	c #FFF299",
"d 	c #FFF07D",
"e 	c #F1D050",
"f 	c #DDA15D",
"g 	c #DB9B5E",
"h 	c #17202E",
"i 	c #76B756",
"j 	c #3D5838",
"k 	c #1C2338",
"l 	c #2C475D",
"m 	c #2E6272",
"n 	c #2D3A56",
"o 	c #446980",
"p 	c #50A0A2",
"q 	c #428483",
"r 	c #161A2E",
"s 	c #4D7740",
"t 	c #517540",
"u 	c #7E5741",
"v 	c #E9BD56",
"w 	c #FFF296",
"x 	c #FFFFFF",
"y 	c #FFF7C5",
"z 	c #FEEC45",
"A 	c #E7B957",
"B 	c #E5B558",
"C 	c #E0A75B",
"D 	c #479749",
"E 	c #64934A",
"F 	c #344062",
"G 	c #3F5075",
"H 	c #3F6B86",
"I 	c #3B6C83",
"J 	c #37667B",
"K 	c #3F6C86",
"L 	c #3E8597",
"M 	c #275655",
"N 	c #369447",
"O 	c #92D461",
"P 	c #6A994C",
"Q 	c #A48A44",
"R 	c #FCEC7E",
"S 	c #FEF19F",
"T 	c #FFF4A9",
"U 	c #F3D54E",
"V 	c #CA9754",
"W 	c #23653A",
"X 	c #26334B",
"Y 	c #386078",
"Z 	c #2F6373",
"` 	c #284558",
" .	c #3A476B",
"..	c #404F76",
"+.	c #3F788E",
"@.	c #3E7F93",
"#.	c #356872",
"$.	c #399058",
"%.	c #6AC158",
"&.	c #86C05A",
"*.	c #1C262F",
"=.	c #171C2E",
"-.	c #BAA87E",
";.	c #E0C896",
">.	c #D9BF83",
",.	c #DCC659",
"'.	c #E2AF59",
").	c #D8A954",
"!.	c #865F42",
"~.	c #222A42",
"{.	c #3F4D74",
"].	c #405076",
"^.	c #3F6E88",
"/.	c #3F738B",
"(.	c #3F7089",
"_.	c #3F768D",
":.	c #397887",
"<.	c #3C6760",
"[.	c #39AA55",
"}.	c #83CC5E",
"|.	c #3F5B39",
"1.	c #806D54",
"2.	c #E6D29E",
"3.	c #EBDAA5",
"4.	c #E0CC99",
"5.	c #4C433D",
"6.	c #141B2E",
"7.	c #151C2E",
"8.	c #242D46",
"9.	c #405377",
"0.	c #3E7B90",
"a.	c #3E8698",
"b.	c #387583",
"c.	c #406F67",
"d.	c #3AA657",
"e.	c #61A24E",
"f.	c #161B2E",
"g.	c #01112B",
"h.	c #C7B68A",
"i.	c #7C725B",
"j.	c #DAC796",
"k.	c #6D5F4D",
"l.	c #453D3A",
"m.	c #193A31",
"n.	c #3D8744",
"o.	c #2C8342",
"p.	c #298041",
"q.	c #193330",
"r.	c #242C46",
"s.	c #333E5F",
"t.	c #3F4F74",
"u.	c #3F7B90",
"v.	c #316979",
"w.	c #335754",
"x.	c #3F8662",
"y.	c #2F6F3D",
"z.	c #499393",
"A.	c #326363",
"B.	c #796751",
"C.	c #988261",
"D.	c #A78E69",
"E.	c #0F182D",
"F.	c #2E623A",
"G.	c #80C75C",
"H.	c #8ED160",
"I.	c #3EB352",
"J.	c #38B251",
"K.	c #36AB4F",
"L.	c #377F57",
"M.	c #253D41",
"N.	c #1F263C",
"O.	c #3C6A82",
"P.	c #397A8A",
"Q.	c #468E93",
"R.	c #4FA199",
"S.	c #40807D",
"T.	c #463C42",
"U.	c #55484B",
"V.	c #131A2E",
"W.	c #0E182D",
"X.	c #28793F",
"Y.	c #26763E",
"Z.	c #78C35A",
"`.	c #76C65B",
" +	c #4BB051",
".+	c #309648",
"++	c #34A44C",
"@+	c #3F8663",
"#+	c #406F66",
"$+	c #2C4B4B",
"%+	c #24434E",
"&+	c #408999",
"*+	c #49989F",
"=+	c #49979F",
"-+	c #51A4A5",
";+	c #40807E",
">+	c #8C7264",
",+	c #77635D",
"'+	c #181D2F",
")+	c #1D4C34",
"!+	c #329E4B",
"~+	c #2A8242",
"{+	c #24693B",
"]+	c #182B2F",
"^+	c #182231",
"/+	c #243E40",
"(+	c #325A52",
"_+	c #417168",
":+	c #3B665F",
"<+	c #161E2F",
"[+	c #438F9C",
"}+	c #458B8D",
"|+	c #1C2F3A",
"1+	c #3F373C",
"2+	c #8D7366",
"3+	c #504448",
"4+	c #16182E",
"5+	c #315351",
"6+	c #3F6E65",
"7+	c #417068",
"8+	c #284345",
"9+	c #323D5D",
"0+	c #3E7C91",
"a+	c #375570",
"b+	c #384C6C",
"c+	c #1B2236",
"d+	c #256E3C",
"e+	c #252F34",
"f+	c #4C4046",
"g+	c #312D38",
"h+	c #22373D",
"i+	c #3F6D65",
"j+	c #417067",
"k+	c #2C4A4B",
"l+	c #323C5D",
"m+	c #3E8396",
"n+	c #1B2C3C",
"o+	c #17222F",
"p+	c #2C8A44",
"q+	c #577D43",
"r+	c #84BE59",
"s+	c #3C5738",
"t+	c #151B2D",
"u+	c #303B5A",
"v+	c #375361",
"w+	c #32455C",
"x+	c #3C496E",
"y+	c #404E75",
"z+	c #405F7E",
"A+	c #3E8094",
"B+	c #377686",
"C+	c #1C3241",
"D+	c #182333",
"E+	c #396F3D",
"F+	c #7DC85C",
"G+	c #73C35A",
"H+	c #375D39",
"I+	c #15152E",
"J+	c #22583A",
"K+	c #192332",
"L+	c #212940",
"M+	c #404E74",
"N+	c #394769",
"O+	c #3F6A86",
"P+	c #3E8799",
"Q+	c #3C8193",
"R+	c #336E7E",
"S+	c #172233",
"T+	c #2C8843",
"U+	c #34A64D",
"V+	c #15112D",
"W+	c #287A40",
"X+	c #38B151",
"Y+	c #376F58",
"Z+	c #151A2D",
"`+	c #1F2233",
" @	c #3E3E52",
".@	c #363545",
"+@	c #3E3843",
"@@	c #303B59",
"#@	c #2F3A59",
"$@	c #3C415D",
"%@	c #554E4A",
"&@	c #43464B",
"*@	c #54524E",
"=@	c #706455",
"-@	c #846F5B",
";@	c #6D5E4C",
">@	c #222332",
",@	c #383A3C",
"'@	c #246A3B",
")@	c #1D4934",
"!@	c #2E8E45",
"~@	c #3E7A62",
"{@	c #15192D",
"]@	c #332E38",
"^@	c #60504D",
"/@	c #6C5952",
"(@	c #8B7265",
"_@	c #222331",
":@	c #5D4E4D",
"<@	c #7E675D",
"[@	c #514548",
"}@	c #A68D69",
"|@	c #826C5B",
"1@	c #A38B68",
"2@	c #705D52",
"3@	c #574B47",
"4@	c #48403E",
"5@	c #5C4C4A",
"6@	c #655452",
"7@	c #1B4233",
"8@	c #25663D",
"9@	c #21353D",
"0@	c #354163",
"a@	c #272F48",
"b@	c #4D4143",
"c@	c #735F56",
"d@	c #77625B",
"e@	c #4E4242",
"f@	c #374365",
"g@	c #364F6C",
"h@	c #3F6783",
"i@	c #39617A",
"j@	c #1B303F",
"k@	c #3B3339",
"l@	c #232B44",
"m@	c #384568",
"n@	c #4C4042",
"o@	c #6D5B58",
"p@	c #3E363B",
"q@	c #232B42",
"r@	c #3E4C72",
"s@	c #3F5678",
"t@	c #377687",
"u@	c #347080",
"v@	c #295463",
"w@	c #1C2339",
"x@	c #171E30",
"y@	c #493E40",
"z@	c #1A2135",
"A@	c #1C2337",
"B@	c #161B2D",
"                                                                . + @ #         ",
"                                  $                             % & * =         ",
"                              - ; >                     , ' )   ! & & ~ {       ",
"                            - ] ^ /                 ( # _ : < [ } | | & {   1 1 ",
"              2 3         4 5 6 7 8 9               0 a b c d e f , g _       1 ",
"              h i j   k l m n o p ^ q r s t         u v w x y z A B   C # #     ",
"                D E - F G H I J K L M N O P           Q R S T U * V   # # #     ",
"                W X Y Z `  ...+.@.#.$.%.&.*.        =.-.;.>.,.'.).!.            ",
"                ~.{.].^./.(._._.:.<.[.}.|.          1.2.3.4.5.6.7.              ",
"                8. . . ...9.0.a.b.c.d.e.$ f.      g.h.i.j.k.l.                  ",
"              m.n.o.p.q.r.s.t.u.v.w.x.y.z.A.        l.B.C.D.E.                  ",
"            F.G.H.I.J.K.L.M.N.O.a.P.Q.R.7 S.        T.U.V.W.                    ",
"        X.Y.Z.`. +.+++J.@+#+$+%+a.&+*+=+-+;+      W.>+,+'+                      ",
"        )+!+~+{+]+^+/+(+_+:+M.<+a.a.a.[+}+|+      1+2+3+                        ",
"          4+      5+_+6+_+7+8+9+K 0+/.a+b+c+    d+e+f+g+                        ",
"                  h+i+_+j+k+l+K a.a.a.a.m+n+  o+p+q+r+s+                        ",
"                t+u+v+_+w+x+y+z+A+a.a.B+C+D+  - E+F+G+H+                        ",
"        I+J+K+  L+{.M+N+y+y+y+y+O+P+P+Q+R+S+- - T+J.U+V+                        ",
"        W+X+Y+Z+`+ @.@+@@@#@u+$@%@&@*@=@-@;@  >@,@'@)@                          ",
"        !@J.~@{@]@^@/@(@_@:@<@[@}@|@1@2@3@4@  5@6@-                             ",
"        7@8@9@  t+0@a@b@c@d@e@u+f@f@f@g@h@i@j@7.k@                              ",
"                l@y+m@n@o@p@q@r@y+s@t@t@u@v@-                                   ",
"                - w@x@  y@e@- z@k A@B@f.f.                                      ",
"                          -   -                                                 ",
"                      - -                                                       ",
"                                                                                ",
"                                                                                ",
"                                                                                ",
"                                                                                "};
