/* XPM */
static char * mush_xpm[] = {
"40 40 120 2",
"  	c None",
". 	c #161C2E",
"+ 	c #131C2E",
"@ 	c #141C2E",
"# 	c #001B2D",
"$ 	c #BB4245",
"% 	c #BB4144",
"& 	c #BC3E43",
"* 	c #29162C",
"= 	c #151C2E",
"- 	c #5D2734",
"; 	c #932E38",
"> 	c #DC4849",
", 	c #DB4C4C",
"' 	c #DB5754",
") 	c #E2D6B6",
"! 	c #E6D8B1",
"~ 	c #4F4D48",
"{ 	c #432231",
"] 	c #D64B4B",
"^ 	c #EDD1AC",
"/ 	c #ECD3AE",
"( 	c #DB4A4A",
"_ 	c #DB4D4D",
": 	c #C98A87",
"< 	c #EFDDB6",
"[ 	c #A88E80",
"} 	c #1D1E30",
"| 	c #302839",
"1 	c #D24A4C",
"2 	c #E7B092",
"3 	c #D5C8B1",
"4 	c #C69390",
"5 	c #DB4B4B",
"6 	c #DB4447",
"7 	c #A14B59",
"8 	c #744A5A",
"9 	c #252132",
"0 	c #533747",
"a 	c #854E5E",
"b 	c #D85351",
"c 	c #DA5352",
"d 	c #DB4E4E",
"e 	c #DB4B4C",
"f 	c #DA4C4C",
"g 	c #A64D59",
"h 	c #894E5D",
"i 	c #784C5D",
"j 	c #593A4A",
"k 	c #974E5C",
"l 	c #C44D52",
"m 	c #B34D56",
"n 	c #AA4D58",
"o 	c #DC4C4C",
"p 	c #E0806F",
"q 	c #EBC4A2",
"r 	c #CA9884",
"s 	c #D54C4E",
"t 	c #D64B4C",
"u 	c #5C3B4C",
"v 	c #6A4454",
"w 	c #974D5B",
"x 	c #D0706E",
"y 	c #D76260",
"z 	c #D24C4F",
"A 	c #784D5E",
"B 	c #BCAEA8",
"C 	c #DECFB2",
"D 	c #D99781",
"E 	c #DC4C4B",
"F 	c #D56A67",
"G 	c #BCAFA9",
"H 	c #88636D",
"I 	c #2D2435",
"J 	c #7A4B5D",
"K 	c #B3A19D",
"L 	c #BFAAA4",
"M 	c #8F5361",
"N 	c #7C4E5F",
"O 	c #87626D",
"P 	c #854D5D",
"Q 	c #8F4D5C",
"R 	c #AE9694",
"S 	c #BBABA6",
"T 	c #84616B",
"U 	c #342738",
"V 	c #5D3D4D",
"W 	c #A38B8B",
"X 	c #7F5262",
"Y 	c #7D4F60",
"Z 	c #7C4C5E",
"` 	c #724658",
" .	c #241F31",
"..	c #171C2E",
"+.	c #222031",
"@.	c #211F31",
"#.	c #201F30",
"$.	c #1F1F30",
"%.	c #131A2D",
"&.	c #887D7B",
"*.	c #A09390",
"=.	c #A0938F",
"-.	c #9F938F",
";.	c #958A87",
">.	c #0B162B",
",.	c #504B50",
"'.	c #BEAFA8",
").	c #C1B2A9",
"!.	c #EDDEB7",
"~.	c #F2E3B9",
"{.	c #C4B6A4",
"].	c #000F29",
"^.	c #242634",
"/.	c #A29591",
"(.	c #CCBDAB",
"_.	c #F1E2B9",
":.	c #F3E4BA",
"<.	c #6C665A",
"[.	c #000023",
"}.	c #8B836E",
"                                                                                ",
"                                                                                ",
"                                                                                ",
"                                                                                ",
"                                                                                ",
"                                                                                ",
"                                                                                ",
"                                                                                ",
"                                                                                ",
"                                                                                ",
"                                                                                ",
"                                                                                ",
"                                                                                ",
"                                                                                ",
"                                                                                ",
"                                                                                ",
"                                                                                ",
"                                                                                ",
"                                                                                ",
"                                                                                ",
"                                        . . .                                   ",
"                                      . + + + .                                 ",
"                                  . @ # $ % & * .                               ",
"                                = - ; > , ' ) ! ~ .                             ",
"                              = { ] ^ / ( _ : < [ } .                           ",
"                            . | 1 2 3 4 5 , ( 6 7 8 9 .                         ",
"                          . = 0 a b c d , e , f g h i 9 .                       ",
"                          = j k l m n o p q r g s t h u .                       ",
"                          = v w x y z A B C D E F G H u .                       ",
"                          . I J K L M N H O P Q R S T 9 .                       ",
"                            . U V W X Y Y Y Y Y Z `  ..                         ",
"                              . ..+.+.@.#.#.#.@.+.$..                           ",
"                                  . %.&.*.=.-.;.>.                              ",
"                                  . ,.'.).!.~.{.].                              ",
"                                    ^./.(._.:.<.                                ",
"                                      [.}._.                                    ",
"                                                                                ",
"                                                                                ",
"                                                                                ",
"                                                                                "};
