/* XPM */
static char * right_gobelin_L_xpm[] = {
"40 37 454 2",
"  	c None",
". 	c #D9945F",
"+ 	c #9D7366",
"@ 	c #C88B61",
"# 	c #D39060",
"$ 	c #C38762",
"% 	c #DA965F",
"& 	c #DB9A5E",
"* 	c #A37766",
"= 	c #A17666",
"- 	c #9E7466",
"; 	c #EFCC51",
"> 	c #F4D64E",
", 	c #D9935F",
"' 	c #DD9E5D",
") 	c #FFEE44",
"! 	c #E6B658",
"~ 	c #D7975D",
"{ 	c #EBC254",
"] 	c #F1CF50",
"^ 	c #DC9C5E",
"/ 	c #203941",
"( 	c #2B5356",
"_ 	c #172031",
": 	c #CE8D5B",
"< 	c #E1AA5A",
"[ 	c #FFEF5B",
"} 	c #F8DF51",
"| 	c #DFA55C",
"1 	c #274A4F",
"2 	c #54A9A8",
"3 	c #2E6171",
"4 	c #161E2F",
"5 	c #906346",
"6 	c #F9E692",
"7 	c #FFF5B1",
"8 	c #FEEB43",
"9 	c #F6DA4C",
"0 	c #F0CD51",
"a 	c #161C2E",
"b 	c #407F7D",
"c 	c #51A4A5",
"d 	c #46929D",
"e 	c #356F78",
"f 	c #151C2D",
"g 	c #3E2F32",
"h 	c #CA895A",
"i 	c #F0CE50",
"j 	c #FFEE5E",
"k 	c #FFF5B5",
"l 	c #FFF3A2",
"m 	c #FFED42",
"n 	c #EBC354",
"o 	c #9A6949",
"p 	c #2F5C5E",
"q 	c #56ACA6",
"r 	c #47949E",
"s 	c #58B0AA",
"t 	c #498491",
"u 	c #374467",
"v 	c #151B2D",
"w 	c #171D2E",
"x 	c #527641",
"y 	c #395437",
"z 	c #906246",
"A 	c #D8945E",
"B 	c #F1D050",
"C 	c #FFEF73",
"D 	c #FFFBE3",
"E 	c #FFF295",
"F 	c #FDE846",
"G 	c #976848",
"H 	c #1B252F",
"I 	c #6C9C4D",
"J 	c #284634",
"K 	c #161B2E",
"L 	c #40807E",
"M 	c #45929D",
"N 	c #54A0A0",
"O 	c #3F5275",
"P 	c #2A3652",
"Q 	c #2D5E6D",
"R 	c #31586C",
"S 	c #1E253B",
"T 	c #344A35",
"U 	c #87C85D",
"V 	c #1D4C35",
"W 	c #8F6246",
"X 	c #D8955E",
"Y 	c #FBE547",
"Z 	c #FFF4AE",
"` 	c #FFFDF3",
" .	c #FDEA5A",
"..	c #C98959",
"+.	c #202D30",
"@.	c #93D261",
"#.	c #7EC65B",
"$.	c #226D3C",
"%.	c #2A5456",
"&.	c #428D9A",
"*.	c #3E8497",
"=.	c #3F5D7D",
"-.	c #2D5265",
";.	c #377586",
">.	c #3E8496",
",.	c #405F7E",
"'.	c #404E74",
").	c #242D46",
"!.	c #6B9A4C",
"~.	c #60B353",
"{.	c #15122D",
"].	c #0D192E",
"^.	c #8C6045",
"/.	c #FFF07D",
"(.	c #FFF7CA",
"_.	c #F0DA76",
":.	c #B57C52",
"<.	c #68954A",
"[.	c #93D462",
"}.	c #52B954",
"|.	c #31864D",
"1.	c #346B77",
"2.	c #3F758D",
"3.	c #3E7E92",
"4.	c #3E8598",
"5.	c #3F7189",
"6.	c #40577A",
"7.	c #364263",
"8.	c #222B43",
"9.	c #284D5D",
"0.	c #2B3E57",
"a.	c #324D39",
"b.	c #309848",
"c.	c #150E2D",
"d.	c #312E34",
"e.	c #D9BF8A",
"f.	c #E7D49A",
"g.	c #F0E2AB",
"h.	c #E5D29F",
"i.	c #6D5C4A",
"j.	c #283A32",
"k.	c #87C15A",
"l.	c #6DC259",
"m.	c #3AA557",
"n.	c #3D6B62",
"o.	c #2F6473",
"p.	c #3E7F93",
"q.	c #3F6582",
"r.	c #405378",
"s.	c #3C5977",
"t.	c #2F6574",
"u.	c #3C8193",
"v.	c #405579",
"w.	c #384467",
"x.	c #1A2C34",
"y.	c #222430",
"z.	c #8A795E",
"A.	c #ECDCA6",
"B.	c #E5D5A2",
"C.	c #DABF8D",
"D.	c #8F7D60",
"E.	c #44623B",
"F.	c #7CC75B",
"G.	c #38B052",
"H.	c #417368",
"I.	c #3B6F71",
"J.	c #3E8698",
"K.	c #3E7D92",
"L.	c #3F6682",
"M.	c #404E75",
"N.	c #2C3754",
"O.	c #2D2B33",
"P.	c #CCAE7F",
"Q.	c #D3B887",
"R.	c #6A5B49",
"S.	c #C2AC80",
"T.	c #988C6D",
"U.	c #151A2D",
"V.	c #0E092C",
"W.	c #6CB454",
"X.	c #39A956",
"Y.	c #417268",
"Z.	c #335D61",
"`.	c #3D8395",
" +	c #3E8597",
".+	c #3F778E",
"++	c #3F617F",
"@+	c #404D75",
"#+	c #3B486C",
"$+	c #364264",
"%+	c #27304A",
"&+	c #1A1E2F",
"*+	c #7B6A53",
"=+	c #413A39",
"-+	c #605345",
";+	c #806D55",
">+	c #343035",
",+	c #182231",
"'+	c #4C9793",
")+	c #3C7A7D",
"!+	c #31783E",
"~+	c #3E8B61",
"{+	c #3D6A62",
"]+	c #203B49",
"^+	c #3C8192",
"/+	c #3F7089",
"(+	c #3F4D74",
"_+	c #354163",
":+	c #2A3450",
"<+	c #192234",
"[+	c #1D4A34",
"}+	c #297F41",
"|+	c #2A7F41",
"1+	c #328142",
"2+	c #225136",
"3+	c #16212E",
"4+	c #342F39",
"5+	c #524549",
"6+	c #3D353D",
"7+	c #192734",
"8+	c #59B0A9",
"9+	c #52A4A2",
"0+	c #459487",
"a+	c #418588",
"b+	c #38737F",
"c+	c #3A7E90",
"d+	c #3D5D7B",
"e+	c #212941",
"f+	c #192432",
"g+	c #325853",
"h+	c #2F9047",
"i+	c #38B151",
"j+	c #38B251",
"k+	c #3FB352",
"l+	c #90D361",
"m+	c #82CB5D",
"n+	c #468845",
"o+	c #141E2E",
"p+	c #141B2D",
"q+	c #584B4D",
"r+	c #876E64",
"s+	c #675550",
"t+	c #58AFA9",
"u+	c #53A8A7",
"v+	c #50A3A4",
"w+	c #44909C",
"x+	c #3B7F91",
"y+	c #28404C",
"z+	c #274244",
"A+	c #38615B",
"B+	c #38B152",
"C+	c #38B351",
"D+	c #58BB55",
"E+	c #89CF5F",
"F+	c #8FD261",
"G+	c #60954A",
"H+	c #15142D",
"I+	c #574A4D",
"J+	c #907568",
"K+	c #6F5B54",
"L+	c #182332",
"M+	c #50A09B",
"N+	c #4FA1A3",
"O+	c #418A9A",
"P+	c #336C7C",
"Q+	c #1C2A35",
"R+	c #253E41",
"S+	c #39625C",
"T+	c #417168",
"U+	c #3E8E60",
"V+	c #32924D",
"W+	c #215D38",
"X+	c #27783F",
"Y+	c #379949",
"Z+	c #4EB753",
"`+	c #43B452",
" @	c #309849",
".@	c #16172E",
"+@	c #493F44",
"@@	c #7C665F",
"#@	c #6D5952",
"$@	c #1F3242",
"%@	c #336B7A",
"&@	c #3D8193",
"*@	c #346B7C",
"=@	c #2B4949",
"-@	c #407067",
";@	c #3E6D64",
">@	c #233A3F",
",@	c #325754",
"'@	c #1C2C36",
")@	c #17252F",
"!@	c #182F30",
"~@	c #226239",
"{@	c #329C4A",
"]@	c #205837",
"^@	c #221F32",
"/@	c #3F373F",
"(@	c #303138",
"_@	c #205737",
":@	c #313F5D",
"<@	c #395974",
"[@	c #395874",
"}@	c #3F748C",
"|@	c #3F788E",
"1@	c #405C7C",
"2@	c #2E3957",
"3@	c #2A4748",
"4@	c #406F66",
"5@	c #325653",
"6@	c #16192E",
"7@	c #14182E",
"8@	c #74A751",
"9@	c #223B32",
"0@	c #34A54D",
"a@	c #256E3C",
"b@	c #306172",
"c@	c #3E8396",
"d@	c #2F3958",
"e@	c #274144",
"f@	c #3D6A63",
"g@	c #20333A",
"h@	c #1B4633",
"i@	c #6FC259",
"j@	c #95D562",
"k@	c #6E9D4D",
"l@	c #2B8443",
"m@	c #1F5336",
"n@	c #254C5B",
"o@	c #234654",
"p@	c #2B5B6A",
"q@	c #3E7C91",
"r@	c #40607F",
"s@	c #3A476B",
"t@	c #2B3A50",
"u@	c #3B6560",
"v@	c #417169",
"w@	c #2E4451",
"x@	c #27304B",
"y@	c #1D4834",
"z@	c #62BE57",
"A@	c #65BB56",
"B@	c #18212E",
"C@	c #1D3443",
"D@	c #2E6170",
"E@	c #40587A",
"F@	c #3F5570",
"G@	c #36505F",
"H@	c #3F4D73",
"I@	c #1C2439",
"J@	c #329F4B",
"K@	c #33A24C",
"L@	c #161F2E",
"M@	c #1A3848",
"N@	c #1F4757",
"O@	c #316A7B",
"P@	c #357282",
"Q@	c #35687B",
"R@	c #3B476B",
"S@	c #3B486D",
"T@	c #374366",
"U@	c #3C496E",
"V@	c #215E38",
"W@	c #193330",
"X@	c #1B3E32",
"Y@	c #1C4433",
"Z@	c #1C3531",
"`@	c #262631",
" #	c #A78C6E",
".#	c #B79B75",
"+#	c #856F5B",
"@#	c #937C5E",
"##	c #7F6A57",
"$#	c #8B755C",
"%#	c #806D59",
"&#	c #4A424C",
"*#	c #282B3D",
"=#	c #25293D",
"-#	c #24293C",
";#	c #524647",
">#	c #6A5751",
",#	c #504446",
"'#	c #5D4E4F",
")#	c #34413B",
"!#	c #34A64D",
"~#	c #319B49",
"{#	c #172A2F",
"]#	c #35303A",
"^#	c #625251",
"/#	c #181D2E",
"(#	c #292C3F",
"_#	c #292B3C",
":#	c #5E4E4A",
"<#	c #8F7A5D",
"[#	c #7C6856",
"}#	c #88735A",
"|#	c #7C6A55",
"1#	c #4E4246",
"2#	c #866E62",
"3#	c #705D58",
"4#	c #6D5A52",
"5#	c #6A5851",
"6#	c #836C62",
"7#	c #473C3E",
"8#	c #564848",
"9#	c #35543D",
"0#	c #193531",
"a#	c #3B343D",
"b#	c #7E675D",
"c#	c #191E2F",
"d#	c #283F54",
"e#	c #3E607D",
"f#	c #374869",
"g#	c #374466",
"h#	c #364365",
"i#	c #232E49",
"j#	c #202A42",
"k#	c #3A3239",
"l#	c #514444",
"m#	c #4C4041",
"n#	c #202130",
"o#	c #1D3736",
"p#	c #33944E",
"q#	c #2C8A44",
"r#	c #17262F",
"s#	c #151B2E",
"t#	c #0F192D",
"u#	c #161A2D",
"v#	c #2D5F6E",
"w#	c #336E7E",
"x#	c #3E8094",
"y#	c #3F6683",
"z#	c #29324D",
"A#	c #5A4C4D",
"B#	c #77625C",
"C#	c #0E182D",
"D#	c #725E58",
"E#	c #625250",
"F#	c #1B1E2F",
"G#	c #15162D",
"H#	c #192938",
"I#	c #192838",
"J#	c #27334D",
"K#	c #2F3A58",
"L#	c #262F49",
"M#	c #1A2034",
"N#	c #544646",
"O#	c #80695E",
"P#	c #3A333C",
"Q#	c #1D2030",
"R#	c #7B655A",
"S#	c #63524D",
"T#	c #151C2E",
"U#	c #141B2E",
"                                                                                ",
"                                                                                ",
"                  . .   + @ # $                                                 ",
"              . % & .       * = -                                               ",
"              % ; > ,                                                           ",
"              ' ) ! .                                                           ",
"              ~ { ] ^ . .                   / ( _                               ",
"              : < [ } | , ,                 1 2 3 4                             ",
"              5 & 6 7 8 9 0 %             a b c d e f a                         ",
"              g h i j k l m n o   a       p q r s t u v a       w x y           ",
"                z A B C D E F G   H I J K L c M N O P Q R S a a T U V           ",
"                  W X Y Z `  ...  +.@.#.$.%.&.*.=.-.;.>.,.'.).a !.~.{.          ",
"                  ].^.; /.(._.:.    <.[.}.|.1.2.3.4.5.6.7.8.9.0.a.b.c.          ",
"                    d.e.f.g.h.i.    j.k.l.m.n.o.p.q.r.s.t.u.3.v.w.x.            ",
"                    y.z.A.B.C.D.    a E.F.G.H.I.J.J.J.>.K.L.M.M.M.N.            ",
"                    O.P.Q.R.S.T.    U.V.W.X.Y.Z.`. +.+++@+#+$+$+$+%+a           ",
"                    &+*+=+-+;+>+  ,+'+)+!+~+{+]+^+/+(+_+:+<+[+}+|+1+2+3+        ",
"                      a 4+5+6+    7+8+9+0+a+b+c+J.d+e+f+g+h+i+j+k+l+m+n+o+      ",
"                      p+q+r+s+    7+t+u+u+v+w+J.x+y+z+A+H.B+j+C+C+D+E+F+G+H+    ",
"                        I+J+K+    L+M+N+O+J.J.J.P+Q+R+S+T+U+V+W+V X+Y+Z+`+ @.@  ",
"                        +@@@#@    a $@%@&@J.J.J.*@a =@-@T+;@>@,@'@  )@!@~@{@]@  ",
"                        ^@/@(@_@    :@<@[@/+}@|@1@2@3@4@T+T+T+T+5@        6@K   ",
"                      7@8@<.9@0@a@  b@J.J.J.J.J.c@=.d@e@4@T+T+f@g@              ",
"                      h@i@j@k@l@m@  n@o@p@J.J.J.q@r@'.s@t@u@v@w@x@a             ",
"                      y@C+z@A@B@a a C@D@u.J.J.*.E@M.M.M.M.F@G@M.H@I@            ",
"                      !@J@C+K@L@a a M@N@O@P@P@Q@R@M.M.M.M.S@T@s@U@x@V@W@        ",
"                        X@Y@Z@a   `@ #.#+#@###$#%#&#*#=#-#;#>#,#'#)#!#~#{#      ",
"                        a ]#^#/#  a (#_#:#<#[#}#|#1#2#3#4#5#6#7#8#9#C+i+0#      ",
"                        a a#b#c#  d#++e#f#T@T@g#g#h#i#j#k#l#]#m#n#o#p#q#r#      ",
"                          s#t#  u#v#w#J.x#p.y#M.M.M.M.z#A#B#C#D#E#F#G#.@        ",
"                                    4 H#I#H#J#K#K#L#M#N#O#P#a Q#R#S#            ",
"                                      a a             T#U#    a T#              ",
"                                      a a                     a a               ",
"                                    a a                       a a               ",
"                                                                                ",
"                                                                                ",
"                                                                                "};
