/* XPM */
static char * right_warrior_R_xpm[] = {
"40 43 498 2",
"  	c None",
". 	c #5C2F39",
"+ 	c #382332",
"@ 	c #141C2E",
"# 	c #B45B57",
"$ 	c #7B4E49",
"% 	c #6C4946",
"& 	c #151C2E",
"* 	c #2B2031",
"= 	c #884145",
"- 	c #AF5353",
"; 	c #BF7164",
"> 	c #C6836E",
", 	c #C07666",
"' 	c #B67364",
") 	c #945F55",
"! 	c #68353D",
"~ 	c #2D2030",
"{ 	c #82414F",
"] 	c #B65555",
"^ 	c #BF7264",
"/ 	c #C5826D",
"( 	c #C47F6C",
"_ 	c #BE7164",
": 	c #C37E6B",
"< 	c #C5836E",
"[ 	c #C3816D",
"} 	c #764947",
"| 	c #221F32",
"1 	c #723A48",
"2 	c #AF5356",
"3 	c #BB655D",
"4 	c #BD6D61",
"5 	c #C17767",
"6 	c #B96B60",
"7 	c #55343A",
"8 	c #2A2135",
"9 	c #774057",
"0 	c #B05356",
"a 	c #9F4B4D",
"b 	c #60303A",
"c 	c #563B3D",
"d 	c #6D4A46",
"e 	c #AF7463",
"f 	c #C5826E",
"g 	c #B77363",
"h 	c #AB6A5E",
"i 	c #945751",
"j 	c #32253B",
"k 	c #A64F57",
"l 	c #B35454",
"m 	c #663749",
"n 	c #50314A",
"o 	c #4D2F48",
"p 	c #1C1D30",
"q 	c #272231",
"r 	c #A87060",
"s 	c #87584F",
"t 	c #AA7161",
"u 	c #B77464",
"v 	c #3C2432",
"w 	c #231F32",
"x 	c #703D56",
"y 	c #A75057",
"z 	c #904859",
"A 	c #693D5B",
"B 	c #55334E",
"C 	c #291F2F",
"D 	c #AB6259",
"E 	c #BE7566",
"F 	c #553B3D",
"G 	c #B46962",
"H 	c #412634",
"I 	c #3D293F",
"J 	c #723D53",
"K 	c #6F3E5A",
"L 	c #5E3854",
"M 	c #3B283E",
"N 	c #161C2E",
"O 	c #6C3848",
"P 	c #AA595A",
"Q 	c #7F424E",
"R 	c #944D5A",
"S 	c #3F2940",
"T 	c #1F1E31",
"U 	c #1B1D30",
"V 	c #66333C",
"W 	c #8D444A",
"X 	c #783B43",
"Y 	c #713946",
"Z 	c #181C2E",
"` 	c #0D182D",
" .	c #3D353A",
"..	c #1A1E2F",
"+.	c #653441",
"@.	c #593245",
"#.	c #803F4B",
"$.	c #3A2131",
"%.	c #09162C",
"&.	c #D5B583",
"*.	c #333035",
"=.	c #A08769",
"-.	c #A1866E",
";.	c #443243",
">.	c #5D3A54",
",.	c #222434",
"'.	c #252335",
").	c #BBB0A3",
"!.	c #C3BBB2",
"~.	c #717276",
"{.	c #DABF97",
"].	c #C9AE88",
"^.	c #312C35",
"/.	c #9B9A9A",
"(.	c #DED3C3",
"_.	c #F8F6F3",
":.	c #F9F7F4",
"<.	c #F6F4F2",
"[.	c #EFE6D8",
"}.	c #D1C3AE",
"|.	c #56514B",
"1.	c #282731",
"2.	c #D9BD93",
"3.	c #F9F5EF",
"4.	c #757475",
"5.	c #181D2E",
"6.	c #927768",
"7.	c #A79170",
"8.	c #D8CB9B",
"9.	c #EFE1AB",
"0.	c #EFE1AA",
"a.	c #E7D59F",
"b.	c #EADAB6",
"c.	c #F0E5BF",
"d.	c #F1E5B7",
"e.	c #DEC491",
"f.	c #A18966",
"g.	c #0F182D",
"h.	c #968776",
"i.	c #F8F4EF",
"j.	c #FAF8E7",
"k.	c #696652",
"l.	c #5B4B48",
"m.	c #997D6C",
"n.	c #CBAB7E",
"o.	c #E2CC98",
"p.	c #F4EBCA",
"q.	c #F6EFD6",
"r.	c #FAF6E8",
"s.	c #FFFFFF",
"t.	c #FDFCF9",
"u.	c #F0E5C7",
"v.	c #DAC391",
"w.	c #49403C",
"x.	c #C3A578",
"y.	c #DEDAC5",
"z.	c #FEFDFC",
"A.	c #EFE7BD",
"B.	c #696754",
"C.	c #10192D",
"D.	c #886F62",
"E.	c #9E826E",
"F.	c #DFC794",
"G.	c #EDDEA9",
"H.	c #EFE1AC",
"I.	c #F6EED1",
"J.	c #76746F",
"K.	c #DCC595",
"L.	c #EEE0AA",
"M.	c #A28F6C",
"N.	c #D0BEA7",
"O.	c #F7F4E0",
"P.	c #EADCCA",
"Q.	c #E2D099",
"R.	c #282633",
"S.	c #7E675C",
"T.	c #B29475",
"U.	c #DDC390",
"V.	c #EEDFA9",
"W.	c #F2E7BE",
"X.	c #FBF6E7",
"Y.	c #5F5F5F",
"Z.	c #9C8563",
"`.	c #EDDFC3",
" +	c #B5AC89",
".+	c #0F192D",
"++	c #2A2D33",
"@+	c #DCDBD6",
"#+	c #EDE3C0",
"$+	c #D8BC8B",
"%+	c #C8BA8A",
"&+	c #4A4B43",
"*+	c #292832",
"=+	c #584C42",
"-+	c #4E4242",
";+	c #987C6C",
">+	c #BB9D78",
",+	c #D9BC89",
"'+	c #E8D5A0",
")+	c #F5EDCF",
"!+	c #FAF6E6",
"~+	c #5C5044",
"{+	c #DBBF8B",
"]+	c #E3D7BD",
"^+	c #6B5C4C",
"/+	c #7D7A61",
"(+	c #EFE9B6",
"_+	c #DCC38F",
":+	c #D2B482",
"<+	c #6B614F",
"[+	c #2E2C33",
"}+	c #B1976F",
"|+	c #857257",
"1+	c #4E4142",
"2+	c #D0B081",
"3+	c #ECDCA6",
"4+	c #F0E3B2",
"5+	c #FBF9F1",
"6+	c #5E5F64",
"7+	c #1B1F2F",
"8+	c #B89C72",
"9+	c #E2D5A7",
"0+	c #1F2230",
"a+	c #171D2E",
"b+	c #CEC896",
"c+	c #E3D39C",
"d+	c #B59A71",
"e+	c #3D2533",
"f+	c #3F3A39",
"g+	c #C0A377",
"h+	c #917C5E",
"i+	c #302C36",
"j+	c #6A5750",
"k+	c #A68970",
"l+	c #C3A57C",
"m+	c #C3A679",
"n+	c #957F5F",
"o+	c #877358",
"p+	c #978D6E",
"q+	c #9A937A",
"r+	c #8C8D90",
"s+	c #131A2D",
"t+	c #171C2E",
"u+	c #0F172D",
"v+	c #7B785F",
"w+	c #DCD6A0",
"x+	c #C3AA7D",
"y+	c #695A4A",
"z+	c #843F44",
"A+	c #9C494C",
"B+	c #6E4643",
"C+	c #9E8664",
"D+	c #4D433F",
"E+	c #705D52",
"F+	c #CBAC7D",
"G+	c #D6B684",
"H+	c #DCCA99",
"I+	c #ADA47F",
"J+	c #756F5A",
"K+	c #51473F",
"L+	c #B6AB94",
"M+	c #8E866A",
"N+	c #000C2A",
"O+	c #CCC695",
"P+	c #A09875",
"Q+	c #BFA277",
"R+	c #222430",
"S+	c #853F44",
"T+	c #B45454",
"U+	c #9A5C55",
"V+	c #967B67",
"W+	c #B29574",
"X+	c #978161",
"Y+	c #4D433D",
"Z+	c #978060",
"`+	c #CFB181",
" @	c #DCC492",
".@	c #EADBA6",
"+@	c #E8DCAC",
"@@	c #F2EEE0",
"#@	c #9A9B9D",
"$@	c #11192D",
"%@	c #E9D7A9",
"&@	c #000329",
"*@	c #76725B",
"=@	c #E0D7A2",
"-@	c #746454",
";@	c #685A49",
">@	c #B75C58",
",@	c #C8A479",
"'@	c #9A8362",
")@	c #917E60",
"!@	c #CCB989",
"~@	c #BCAE82",
"{@	c #B8B387",
"]@	c #493F3B",
"^@	c #DECB99",
"/@	c #F3E9C6",
"(@	c #C2C1BE",
"_@	c #4B423D",
":@	c #D5BE9B",
"<@	c #F7F1DE",
"[@	c #D7C898",
"}@	c #262631",
"|@	c #BCA77C",
"1@	c #A99E7B",
"2@	c #AC926C",
"3@	c #08162C",
"4@	c #BB685F",
"5@	c #BC6B5F",
"6@	c #CDAE7F",
"7@	c #BA9E74",
"8@	c #71604D",
"9@	c #727059",
"0@	c #CDB585",
"a@	c #00092A",
"b@	c #CBB081",
"c@	c #EFE0AA",
"d@	c #F1E5B9",
"e@	c #BFBBB0",
"f@	c #7D6A52",
"g@	c #E7D49F",
"h@	c #A79975",
"i@	c #4D2936",
"j@	c #6A5B4A",
"k@	c #C6A87B",
"l@	c #4A403F",
"m@	c #CEAF7F",
"n@	c #6D5D4B",
"o@	c #B85E5A",
"p@	c #C4836D",
"q@	c #EBE2A9",
"r@	c #DFCA95",
"s@	c #D4B483",
"t@	c #5F5346",
"u@	c #D1BE8D",
"v@	c #000B2A",
"w@	c #C9AB7D",
"x@	c #F5F0DF",
"y@	c #F6F3EA",
"z@	c #EDDEA8",
"A@	c #E3D29F",
"B@	c #363739",
"C@	c #5D2F39",
"D@	c #B69B71",
"E@	c #8B775A",
"F@	c #766157",
"G@	c #A68C6C",
"H@	c #121A2D",
"I@	c #894F4A",
"J@	c #B65455",
"K@	c #C07667",
"L@	c #DBC091",
"M@	c #E2D09A",
"N@	c #D8BB88",
"O@	c #D6B683",
"P@	c #6A5A4B",
"Q@	c #C7A97B",
"R@	c #00122C",
"S@	c #A18967",
"T@	c #E7D9A5",
"U@	c #F5EDD1",
"V@	c #DFCA97",
"W@	c #766351",
"X@	c #121B2E",
"Y@	c #827056",
"Z@	c #937868",
"`@	c #9B8463",
" #	c #CC9E77",
".#	c #BD7160",
"+#	c #B85B58",
"@#	c #D4B186",
"##	c #E0CD97",
"$#	c #DDC692",
"%#	c #D6B583",
"&#	c #89725F",
"*#	c #08152C",
"=#	c #5F5B4D",
"-#	c #AC9B75",
";#	c #DACC9A",
">#	c #DACD9C",
",#	c #847E64",
"'#	c #5E3753",
")#	c #312439",
"!#	c #65333B",
"~#	c #703A49",
"{#	c #372B3A",
"]#	c #4F4242",
"^#	c #452E43",
"/#	c #63333F",
"(#	c #402533",
"_#	c #DFC999",
":#	c #CFA47C",
"<#	c #D5B483",
"[#	c #A2856E",
"}#	c #C8AA7C",
"|#	c #06152C",
"1#	c #472D45",
"2#	c #37263C",
"3#	c #171C2F",
"4#	c #3A393A",
"5#	c #383739",
"6#	c #4F3049",
"7#	c #8D4758",
"8#	c #5C3652",
"9#	c #552C37",
"0#	c #87434F",
"a#	c #663B59",
"b#	c #292135",
"c#	c #422633",
"d#	c #6F5F4C",
"e#	c #DEC994",
"f#	c #E8DDA4",
"g#	c #CD9F7E",
"h#	c #C28369",
"i#	c #D0A97D",
"j#	c #937A65",
"k#	c #00142C",
"l#	c #844354",
"m#	c #703F5B",
"n#	c #5A3651",
"o#	c #36263B",
"p#	c #4C2F48",
"q#	c #8E4859",
"r#	c #934958",
"s#	c #3E2740",
"t#	c #988262",
"u#	c #524740",
"v#	c #39263D",
"w#	c #54334D",
"x#	c #53324C",
"y#	c #2E2337",
"z#	c #353135",
"A#	c #CAAB7D",
"B#	c #D7BA87",
"C#	c #E1CE98",
"D#	c #CFA380",
"E#	c #C27B69",
"F#	c #BC6A5F",
"G#	c #C38269",
"H#	c #685449",
"I#	c #BFA278",
"J#	c #AB5051",
"K#	c #AE5256",
"L#	c #8A4659",
"M#	c #82445A",
"N#	c #AB5156",
"O#	c #543148",
"P#	c #574B41",
"Q#	c #D1B180",
"R#	c #C9AA7C",
"S#	c #66574B",
"T#	c #141C2D",
"U#	c #35253B",
"V#	c #151B2E",
"W#	c #927C5E",
"X#	c #C89471",
"Y#	c #BC6B60",
"Z#	c #B75957",
"`#	c #B75555",
" $	c #522D37",
".$	c #9F846B",
"+$	c #00162C",
"@$	c #B45455",
"#$	c #693747",
"$$	c #1D1D2E",
"%$	c #7D6859",
"&$	c #C3A47B",
"*$	c #CFB080",
"=$	c #685949",
"-$	c #141B2E",
";$	c #D4B583",
">$	c #D0A87C",
",$	c #B75856",
"'$	c #71514D",
")$	c #745F56",
"!$	c #282035",
"~$	c #834252",
"{$	c #8A4553",
"]$	c #894453",
"^$	c #5E3240",
"/$	c #252133",
"($	c #1E2130",
"_$	c #212330",
":$	c #BC6F5F",
"<$	c #764043",
"[$	c #6A5751",
"}$	c #131B2D",
"|$	c #1D1E30",
"1$	c #1F212F",
"2$	c #9C8564",
"3$	c #BB6E5F",
"4$	c #743E42",
"5$	c #463B3E",
"6$	c #1E2030",
"7$	c #171F2F",
"8$	c #572E38",
"9$	c #65534E",
"                                                                                ",
"                                                                                ",
"                                                                                ",
"                            . +                                                 ",
"                        @ . # $ % &                                             ",
"                      * = - ; > , ' ) !                                         ",
"                    ~ { ] ^ / ( _ : < [ }                                       ",
"                  | 1 2 ] 3 > > < 4 5 < 6 7                                     ",
"                  8 9 0 a b c d e f g h < i                                     ",
"                  j k l m n o p q r / s t u v                                   ",
"                  w x y z A A B & C D E F G H                                   ",
"                    I J K A L M N & O P Q R S                                   ",
"                    N p T T U N   N V W X Y Z                                   ",
"                              `  ...+.@.#.$.%.                          &.      ",
"                            *.=.-.;.>.,.'.).!.~.                      {.].      ",
"                          N ^./.(._.:.<.<.[.}.|.1.                  2.3.4.      ",
"                        N 5.6.7.8.9.0.a.b.c.d.e.f.g.              h.i.j.k.      ",
"                        N l.m.n.o.9.p.q.r.s.t.u.v.w.            x.y.z.A.B.      ",
"                        C.D.E.&.F.G.9.9.H.I.J.K.L.M.            N.O.P.Q.B.      ",
"                        R.S.T.&.&.U.V.9.W.X.Y.Z.`. +.+        ++@+#+$+%+&+      ",
"                *+=+  N -+;+>+&.&.&.,+'+)+!+Y.~+{+]+^+        /+(+_+:+<+        ",
"                [+}+|+..1+;+2+&.&.&.&.3+4+5+6+7+8+9+0+      a+b+c+&.d+.+        ",
"                e+f+g+h+i+j+k+l+m+n+o+p+q+r+s+N t+u+g.      v+w+x+&.y+          ",
"                z+A+B+g+C+D+E+F+G+H+I+J+s+s+N N K+L+M+N   N+O+P+Q+d+R+          ",
"                S+] T+U+V+W+X+Y+Z+`+ @.@+@@@#@$@f.%@8.&@  *@=@-@&.;@            ",
"                S+] ] >@,@'@)@!@~@{@]@^@9./@(@_@:@<@[@N+}@|@1@2@d+3@            ",
"                S+] 4@5@&.6@7@8@9@0@a@b@c@d@e@f@g@c@h@i@j@k@l@m@n@              ",
"                S+] o@p@q@r@&.s@t@u@v@w@L.9.x@y@z@A@B@C@D@E@F@G@H@              ",
"                I@J@] K@L@M@N@O@P@Q@R@S@T@9.U@W.V@W@N X@Y@ .Z@1+N               ",
"                `@ #.#+#@###$#%#&#Q@*#C.=#-#;#>#,#'#)#!#~#{#]#^#/#(#            ",
"                `@&.$#_#:#<#&.%#[#}#|#1#2#3#4#5#6#7#8#9#0#a#n b#m c#            ",
"                d#&.e#f#g#h#i#G+j#}#k#l#m#n#o#p#q#r#s#t#u#v#w#x#y#              ",
"                z#A#B#C#D#E#F#G#H#I#k#J#K#L#A M#N#O#P#Q#R#S#T#U#&               ",
"                V#W#&.&.X#Y#Z#`# $.$+$J#] @$0 K##$$$%$&$*$=$                    ",
"                  -$`@;$>$,$] T+'$)$!$~${${$]$^$t+Z /$($_$N                     ",
"                    .+`@G+:$T+<$[$5.& }$}$}$}$N N |$M                           ",
"                      1$2$3$4$5$6$N N           N N &                           ",
"                        7$8$9$ .N N N N           N N                           ",
"                          N }$    N N             N N N                         ",
"                                                    N                           ",
"                                                                                ",
"                                                                                ",
"                                                                                "};
