/* XPM */
static char * right_gobelin_R_xpm[] = {
"40 31 353 2",
"  	c None",
". 	c #DB9A5E",
"+ 	c #ECC454",
"@ 	c #D9935F",
"# 	c #2D5759",
"$ 	c #1D323C",
"% 	c #DB995E",
"& 	c #FDE846",
"* 	c #FFF4AB",
"= 	c #FEEC5A",
"- 	c #E6B658",
"; 	c #D9945F",
"> 	c #458986",
", 	c #4C9A9B",
"' 	c #1D3645",
") 	c #161C2E",
"! 	c #E9BD56",
"~ 	c #FFED43",
"{ 	c #FFF4AF",
"] 	c #FFEE5A",
"^ 	c #F9E249",
"/ 	c #DEA15D",
"( 	c #9F6D4B",
"_ 	c #AD7650",
": 	c #4B3635",
"< 	c #213C44",
"[ 	c #58B0A9",
"} 	c #4D9EA2",
"| 	c #488F95",
"1 	c #232D45",
"2 	c #DEA25C",
"3 	c #FAE349",
"4 	c #EDC653",
"5 	c #FBE647",
"6 	c #FFED44",
"7 	c #FAE248",
"8 	c #EDC853",
"9 	c #EDC753",
"0 	c #D6965C",
"a 	c #3B2D32",
"b 	c #16172E",
"c 	c #49918D",
"d 	c #5AB3AC",
"e 	c #46929D",
"f 	c #497F8D",
"g 	c #343F61",
"h 	c #1C3342",
"i 	c #1B2237",
"j 	c #171E2E",
"k 	c #3C5638",
"l 	c #2D4133",
"m 	c #D8925F",
"n 	c #E0A75B",
"o 	c #FFEE47",
"p 	c #FFF9D9",
"q 	c #FFF4AA",
"r 	c #FFED4C",
"s 	c #F1D151",
"t 	c #926548",
"u 	c #245C38",
"v 	c #589F4C",
"w 	c #65AD51",
"x 	c #1A4333",
"y 	c #438581",
"z 	c #4FA0A3",
"A 	c #427A8E",
"B 	c #334061",
"C 	c #326476",
"D 	c #3F6984",
"E 	c #3E4B71",
"F 	c #2E3957",
"G 	c #5C8545",
"H 	c #71BC57",
"I 	c #3E5D39",
"J 	c #9E7466",
"K 	c #A7764C",
"L 	c #EBCD4C",
"M 	c #FFF5B4",
"N 	c #FFF4A4",
"O 	c #F0DFA6",
"P 	c #DDC491",
"Q 	c #BFAA7F",
"R 	c #08152C",
"S 	c #3E5938",
"T 	c #67944A",
"U 	c #91D261",
"V 	c #4DB753",
"W 	c #34785A",
"X 	c #408490",
"Y 	c #3F7089",
"Z 	c #3E8295",
"` 	c #3F6280",
" .	c #3F4D74",
"..	c #323D5D",
"+.	c #293D54",
"@.	c #28354F",
"#.	c #415F40",
"$.	c #2D8D45",
"%.	c #6E4C3D",
"&.	c #AB953F",
"*.	c #A99245",
"=.	c #DFCD99",
"-.	c #EBDAA4",
";.	c #E9D8A3",
">.	c #877358",
",.	c #12152D",
"'.	c #7AAE53",
").	c #6BC158",
"!.	c #3C985D",
"~.	c #345D5D",
"{.	c #3C7F91",
"].	c #405C7D",
"^.	c #405B7C",
"/.	c #39617A",
"(.	c #366C7F",
"_.	c #3E6C85",
":.	c #404E75",
"<.	c #3A466A",
"[.	c #1B2936",
"}.	c #413A39",
"|.	c #796751",
"1.	c #DBCA98",
"2.	c #928769",
"3.	c #C9B78A",
"4.	c #02112B",
"5.	c #2C3F33",
"6.	c #70BD57",
"7.	c #3BA259",
"8.	c #406F66",
"9.	c #3D8191",
"0.	c #3E8698",
"a.	c #3E8597",
"b.	c #3F718A",
"c.	c #405176",
"d.	c #2A3450",
"e.	c #131A2E",
"f.	c #A48C68",
"g.	c #B1976F",
"h.	c #74634F",
"i.	c #6C5C4B",
"j.	c #234147",
"k.	c #2B5457",
"l.	c #549F4C",
"m.	c #3D935E",
"n.	c #38605B",
"o.	c #316878",
"p.	c #40577A",
"q.	c #384467",
"r.	c #28314C",
"s.	c #27314C",
"t.	c #1D253A",
"u.	c #1E212F",
"v.	c #1C202F",
"w.	c #463D42",
"x.	c #3E363E",
"y.	c #488F8B",
"z.	c #4E9F9F",
"A.	c #348363",
"B.	c #407775",
"C.	c #2F5D66",
"D.	c #3C8293",
"E.	c #3F798F",
"F.	c #333F5F",
"G.	c #1C2437",
"H.	c #244D3F",
"I.	c #297D40",
"J.	c #37AE50",
"K.	c #3AB151",
"L.	c #7AC75B",
"M.	c #509449",
"N.	c #162F30",
"O.	c #131B2D",
"P.	c #6F5C59",
"Q.	c #8F7566",
"R.	c #0E182D",
"S.	c #48908C",
"T.	c #58B0AA",
"U.	c #57AEAA",
"V.	c #4FA1A3",
"W.	c #3F8799",
"X.	c #305669",
"Y.	c #1D2E37",
"Z.	c #365E59",
"`.	c #3E8F60",
" +	c #38B251",
".+	c #39B251",
"++	c #71C45A",
"@+	c #92D361",
"#+	c #73B154",
"$+	c #152B2F",
"%+	c #574A4C",
"&+	c #917668",
"*+	c #4E4242",
"=+	c #40807D",
"-+	c #50A2A4",
";+	c #418A9A",
">+	c #3E8598",
",+	c #3D8395",
"'+	c #1C2933",
")+	c #2A4647",
"!+	c #3B6760",
"~+	c #407966",
"{+	c #389756",
"]+	c #28783F",
"^+	c #215E38",
"/+	c #297F41",
"(+	c #48A74E",
"_+	c #58B955",
":+	c #34A54D",
"<+	c #182D30",
"[+	c #2D2A36",
"}+	c #594B4E",
"|+	c #35303A",
"1+	c #226039",
"2+	c #305C6E",
"3+	c #3A7689",
"4+	c #3D7E92",
"5+	c #1C2237",
"6+	c #2A4748",
"7+	c #417168",
"8+	c #335855",
"9+	c #355B57",
"0+	c #253E42",
"a+	c #161D2E",
"b+	c #17272F",
"c+	c #2A8242",
"d+	c #24693B",
"e+	c #233131",
"f+	c #6B9A4C",
"g+	c #4B6D3E",
"h+	c #2C8843",
"i+	c #1E5035",
"j+	c #26344C",
"k+	c #3E6E87",
"l+	c #3E7088",
"m+	c #3F738B",
"n+	c #3F7B90",
"o+	c #3F7189",
"p+	c #3B4C6E",
"q+	c #294148",
"r+	c #3D6B63",
"s+	c #315552",
"t+	c #375B39",
"u+	c #84CD5E",
"v+	c #8ECE5F",
"w+	c #48703E",
"x+	c #17282F",
"y+	c #1F3B4A",
"z+	c #295564",
"A+	c #306776",
"B+	c #3F728A",
"C+	c #3B486D",
"D+	c #2B3C4F",
"E+	c #39625C",
"F+	c #39625D",
"G+	c #1A2434",
"H+	c #15122D",
"I+	c #33A44C",
"J+	c #36B251",
"K+	c #32A14B",
"L+	c #16182E",
"M+	c #1C3241",
"N+	c #306575",
"O+	c #3C8294",
"P+	c #3F778E",
"Q+	c #404D75",
"R+	c #39466A",
"S+	c #3A6161",
"T+	c #3C516C",
"U+	c #3C496E",
"V+	c #1F323A",
"W+	c #23643A",
"X+	c #161A2E",
"Y+	c #215D38",
"Z+	c #2F9447",
"`+	c #275839",
" @	c #1D2030",
".@	c #183444",
"+@	c #275B6B",
"@@	c #357384",
"#@	c #387889",
"$@	c #38798A",
"%@	c #3A5271",
"&@	c #404E76",
"*@	c #3A476C",
"=@	c #262F49",
"-@	c #192432",
";@	c #3A865B",
">@	c #256F3D",
",@	c #504448",
"'@	c #5B4C4B",
")@	c #8A745C",
"!@	c #A98E6E",
"~@	c #87705C",
"{@	c #9C8563",
"]@	c #7A6556",
"^@	c #9A8362",
"/@	c #4E454F",
"(@	c #363442",
"_@	c #20263C",
":@	c #1F263C",
"<@	c #6E5A52",
"[@	c #574947",
"}@	c #615152",
"|@	c #312D37",
"1@	c #1A2532",
"2@	c #3E8961",
"3@	c #2A8141",
"4@	c #453B3F",
"5@	c #473C3F",
"6@	c #222C47",
"7@	c #24314F",
"8@	c #4A3F41",
"9@	c #73634F",
"0@	c #5A4C47",
"a@	c #71614F",
"b@	c #38323C",
"c@	c #6E5B53",
"d@	c #40383E",
"e@	c #5D4D4A",
"f@	c #76615B",
"g@	c #574847",
"h@	c #3E373D",
"i@	c #262634",
"j@	c #22363D",
"k@	c #22613A",
"l@	c #1E3948",
"m@	c #3F758C",
"n@	c #3F6682",
"o@	c #404F75",
"p@	c #3E363D",
"q@	c #715E58",
"r@	c #63524F",
"s@	c #514443",
"t@	c #2F3A59",
"u@	c #2E3856",
"v@	c #182535",
"w@	c #1B2E3D",
"x@	c #2C5E6D",
"y@	c #2E6170",
"z@	c #3B4B6E",
"A@	c #3D3A49",
"B@	c #594A48",
"C@	c #77635C",
"D@	c #363038",
"E@	c #3A476B",
"F@	c #2F3958",
"G@	c #151B2C",
"H@	c #151B2D",
"I@	c #161B2D",
"J@	c #1F2130",
"K@	c #514343",
"L@	c #151A2C",
"                                                                                ",
"                                                                                ",
"                                                                                ",
"                                                                                ",
"                                                                                ",
"            . + + @                             # $                             ",
"          % & * = - ;                           > , ' )                         ",
"    ;   @ ! ~ { ] ^ / ( _ :                   < [ } | 1 )                       ",
"  ; ; 2 + 3 4 4 5 6 7 8 9 0 a             b ) c d e f g h i )   j k l           ",
"    ;   m @ ; ; n o p q r s t         u v w x y z A B C D E F ) G H I           ",
"        J       K L M N O P Q R       S T U V W X Y Z `  ...+.@.#.$.            ",
"      J           %.&.*.=.-.;.>.        ,.'.).!.~.{.].^./.(._.:.<.[.            ",
"                      }.|.1.2.3.4.        5.6.7.8.9.0.a.b.c.:.:.:.d.            ",
"                      e.f.g.h.i.        j.k.l.m.n.o.D p.:.q.r.s.s.t.)           ",
"                        u.v.w.x.        y.z.A.B.C.D.E.F.G.H.I.J.K.L.M.N.        ",
"                          O.P.Q.R.      S.T.U.V.W.0.X.Y.Z.`. + +.+++@+#+$+      ",
"                            %+&+*+      =+-+;+>+0.,+'+)+!+~+{+]+^+/+(+_+:+<+    ",
"                            [+}+|+1+    i 2+3+0.0.4+5+6+7+7+8+9+0+  a+b+c+d+    ",
"                            e+f+g+h+i+  j+k+l+m+n+o+p+q+r+7+7+7+s+              ",
"                            t+u+v+w+x+  y+z+A+0.0.0.B+C+D+E+7+F+G+              ",
"                            H+I+J+K+L+) M+N+O+0.0.P+Q+:.:.R+S+T+U+)     V+W+X+  ",
"                              Y+Z+`+ @  .@+@@@#@$@%@&@:.:.:.R+*@E =@  -@;@ +>@  ",
"                                X+,@'@) )@!@~@{@]@^@/@(@_@:@<@[@}@|@) 1@2@ +3@  ",
"                                  4@5@  6@7@8@9@0@a@b@c@d@e@f@g@h@i@    j@k@<+  ",
"                                      l@m@m@n@` o@:.:.p@q@r@s@t@:.u@)           ",
"                                      v@w@x@y@y@z@U+q.A@B@C@D@E@U+F@)           ",
"                                                G@H@I@) J@K@) G@L@              ",
"                                                  )       ) ) ) )               ",
"                                                            ) )                 ",
"                                                                                ",
"                                                                                "};
