/* XPM */
static char * right_warrior_L_xpm[] = {
"48 40 723 2",
"  	c None",
". 	c #7D3F43",
"+ 	c #A15451",
"@ 	c #87564F",
"# 	c #926156",
"$ 	c #80564E",
"% 	c #684744",
"& 	c #6A343C",
"* 	c #984E4D",
"= 	c #B2665C",
"- 	c #AC6F60",
"; 	c #AC6A5E",
"> 	c #A96D5F",
", 	c #A56D5E",
"' 	c #A36B5D",
") 	c #935B52",
"! 	c #512C3A",
"~ 	c #8C4349",
"{ 	c #B3625B",
"] 	c #C27968",
"^ 	c #C6816E",
"/ 	c #C27969",
"( 	c #C27868",
"_ 	c #C47D6A",
": 	c #BE7B69",
"< 	c #A86C5E",
"[ 	c #81534D",
"} 	c #2F2232",
"| 	c #7B3D46",
"1 	c #A85153",
"2 	c #BC6A60",
"3 	c #BE7C69",
"4 	c #BA7C69",
"5 	c #BB7C69",
"6 	c #BB7163",
"7 	c #BF7465",
"8 	c #BE7968",
"9 	c #B87967",
"0 	c #A97161",
"a 	c #614040",
"b 	c #3E2635",
"c 	c #96484B",
"d 	c #B15354",
"e 	c #B05B57",
"f 	c #A26158",
"g 	c #8A5B52",
"h 	c #8F6054",
"i 	c #A46C5E",
"j 	c #BA7967",
"k 	c #B07061",
"l 	c #9E6458",
"m 	c #B17564",
"n 	c #8F5751",
"o 	c #231F32",
"p 	c #4E2E42",
"q 	c #954852",
"r 	c #9F4B51",
"s 	c #824148",
"t 	c #593641",
"u 	c #4B323E",
"v 	c #47323A",
"w 	c #50383C",
"x 	c #8D564F",
"y 	c #AE685D",
"z 	c #A9695D",
"A 	c #925F55",
"B 	c #945452",
"C 	c #241F32",
"D 	c #533045",
"E 	c #9B4B53",
"F 	c #A14D54",
"G 	c #804152",
"H 	c #5C3652",
"I 	c #583450",
"J 	c #452C44",
"K 	c #231F33",
"L 	c #5B343D",
"M 	c #915152",
"N 	c #A45B59",
"O 	c #8B4D51",
"P 	c #7F4550",
"Q 	c #D6B787",
"R 	c #D4B584",
"S 	c #42293D",
"T 	c #804151",
"U 	c #974B58",
"V 	c #89465A",
"W 	c #6A3D5B",
"X 	c #613956",
"Y 	c #432B43",
"Z 	c #221E32",
"` 	c #3E2535",
" .	c #743B46",
"..	c #954A52",
"+.	c #8E464E",
"@.	c #5D3144",
"#.	c #E3CFB5",
"$.	c #C6B298",
"%.	c #A79170",
"&.	c #232032",
"*.	c #482E47",
"=.	c #6D3A4C",
"-.	c #703B4D",
";.	c #56334D",
">.	c #4B2F47",
",.	c #382C39",
"'.	c #2E2831",
").	c #412533",
"!.	c #5D2A3B",
"~.	c #743542",
"{.	c #7C3B41",
"].	c #563D39",
"^.	c #32292A",
"/.	c #DDC8AC",
"(.	c #F1E7D8",
"_.	c #B3AFA7",
":.	c #56514D",
"<.	c #1B1D30",
"[.	c #1F1E30",
"}.	c #1D1D2F",
"|.	c #222231",
"1.	c #463F41",
"2.	c #786C65",
"3.	c #786E6B",
"4.	c #76686E",
"5.	c #72646D",
"6.	c #6B6268",
"7.	c #7A6B6D",
"8.	c #968A7D",
"9.	c #716A66",
"0.	c #4A494F",
"a.	c #978F81",
"b.	c #EAE3DA",
"c.	c #F7F3E1",
"d.	c #AEAB9B",
"e.	c #393934",
"f.	c #393438",
"g.	c #7C7063",
"h.	c #C5B7A6",
"i.	c #CBC0B7",
"j.	c #C8C1BF",
"k.	c #C5C1C0",
"l.	c #C0BFBD",
"m.	c #C8C6C3",
"n.	c #E6E0D7",
"o.	c #C5BEB6",
"p.	c #7E7974",
"q.	c #2A242A",
"r.	c #D6CCB1",
"s.	c #F4F0E8",
"t.	c #F1E9CC",
"u.	c #A7A083",
"v.	c #393B38",
"w.	c #524544",
"x.	c #887463",
"y.	c #B6A788",
"z.	c #DED1AC",
"A.	c #EBDFBB",
"B.	c #E7DBBA",
"C.	c #E3D5B6",
"D.	c #E5D8BB",
"E.	c #EDE1BE",
"F.	c #DED1AA",
"G.	c #BAA782",
"H.	c #816D54",
"I.	c #0F192D",
"J.	c #A9A292",
"K.	c #EBE4CD",
"L.	c #ECE1CF",
"M.	c #E5D6AD",
"N.	c #A09572",
"O.	c #3A3C3B",
"P.	c #42383D",
"Q.	c #715D53",
"R.	c #A1866D",
"S.	c #C6AE81",
"T.	c #E7D6A3",
"U.	c #F2E6B6",
"V.	c #F2E6BF",
"W.	c #F2E8CA",
"X.	c #F6EEDC",
"Y.	c #F8F2E3",
"Z.	c #F1E9D4",
"`.	c #E1D0AC",
" +	c #AC9972",
".+	c #594D42",
"++	c #B4AF96",
"@+	c #EAE0BF",
"#+	c #DDC7A3",
"$+	c #C4B188",
"%+	c #9E926E",
"&+	c #00122B",
"*+	c #534545",
"=+	c #8E7564",
"-+	c #B39676",
";+	c #D4B686",
">+	c #E7D39E",
",+	c #EFE1AF",
"'+	c #F2E6BA",
")+	c #F3E9C4",
"!+	c #F4EDD3",
"~+	c #ECE8DC",
"{+	c #D8D0C3",
"]+	c #DFCFA9",
"^+	c #CBB98A",
"/+	c #998969",
"(+	c #A7A280",
"_+	c #D2C99D",
":+	c #E0CEA1",
"<+	c #CFB383",
"[+	c #938262",
"}+	c #383336",
"|+	c #665848",
"1+	c #1B1F2F",
"2+	c #62514D",
"3+	c #9D826C",
"4+	c #BFA17A",
"5+	c #D3B483",
"6+	c #DFC793",
"7+	c #E9D6A1",
"8+	c #EDDEA8",
"9+	c #EFE2AF",
"0+	c #EEE4BC",
"a+	c #D7D1BB",
"b+	c #9C917C",
"c+	c #C3B188",
"d+	c #D8C79B",
"e+	c #B8AA85",
"f+	c #6E6D57",
"g+	c #ABA67E",
"h+	c #DED19C",
"i+	c #D6BC89",
"j+	c #BDA176",
"k+	c #72614E",
"l+	c #473D3B",
"m+	c #836D55",
"n+	c #978061",
"o+	c #71614E",
"p+	c #3D353B",
"q+	c #675550",
"r+	c #A0856C",
"s+	c #CBAC7F",
"t+	c #D4B483",
"u+	c #D7BA87",
"v+	c #E7D49F",
"w+	c #EFE2B6",
"x+	c #F3EDD8",
"y+	c #DCDAD4",
"z+	c #82807E",
"A+	c #A7957B",
"B+	c #D5C4A2",
"C+	c #BAAF91",
"D+	c #5D5449",
"E+	c #A9A47D",
"F+	c #B7B185",
"G+	c #C7B688",
"H+	c #CBAE7F",
"I+	c #988261",
"J+	c #3D2833",
"K+	c #714944",
"L+	c #8D7359",
"M+	c #A48B67",
"N+	c #7D6B53",
"O+	c #353036",
"P+	c #161C2E",
"Q+	c #3F363C",
"R+	c #756057",
"S+	c #AA8D71",
"T+	c #CEAE80",
"U+	c #D4B583",
"V+	c #DDC592",
"W+	c #EBDCAC",
"X+	c #EDE4C4",
"Y+	c #D5D1C3",
"Z+	c #767572",
"`+	c #887459",
" @	c #CCBA98",
".@	c #C8BDA2",
"+@	c #544E49",
"@@	c #4D4C43",
"#@	c #B3AD84",
"$@	c #C1B78A",
"%@	c #A8926D",
"&@	c #BDA276",
"*@	c #685949",
"=@	c #5D2F39",
"-@	c #A14D4E",
";@	c #9C5951",
">@	c #A2795F",
",@	c #9B7F62",
"'@	c #826E59",
")@	c #554744",
"!@	c #2C2B33",
"~@	c #181D2E",
"{@	c #363038",
"]@	c #67554F",
"^@	c #997F68",
"/@	c #C1A27B",
"(@	c #CDAE7F",
"_@	c #B39870",
":@	c #BBA67C",
"<@	c #C8BB93",
"[@	c #C8C0A4",
"}@	c #ABA9A1",
"|@	c #5C5D60",
"1@	c #54473C",
"2@	c #897D66",
"3@	c #8C846F",
"4@	c #363539",
"5@	c #9C9471",
"6@	c #B4AC83",
"7@	c #BCAC82",
"8@	c #AA906B",
"9@	c #9B8563",
"0@	c #66333C",
"a@	c #B25354",
"b@	c #AE5253",
"c@	c #AB6359",
"d@	c #AC8167",
"e@	c #A48969",
"f@	c #958062",
"g@	c #948364",
"h@	c #9C8A68",
"i@	c #7B755D",
"j@	c #504E46",
"k@	c #5C4C49",
"l@	c #947B67",
"m@	c #BA9D78",
"n@	c #CFB081",
"o@	c #C8AE80",
"p@	c #B5A27A",
"q@	c #9F9270",
"r@	c #898169",
"s@	c #777367",
"t@	c #5E5E62",
"u@	c #323541",
"v@	c #22212E",
"w@	c #686156",
"x@	c #867E6B",
"y@	c #686353",
"z@	c #855850",
"A@	c #7D504A",
"B@	c #544640",
"C@	c #AE9D75",
"D@	c #A69773",
"E@	c #AA9571",
"F@	c #B0966E",
"G@	c #6B5C4A",
"H@	c #65333C",
"I@	c #B25454",
"J@	c #B75A57",
"K@	c #B6605A",
"L@	c #BC8A6D",
"M@	c #BC9E75",
"N@	c #B29970",
"O@	c #A7936E",
"P@	c #988968",
"Q@	c #A99E78",
"R@	c #78725A",
"S@	c #504243",
"T@	c #8F7664",
"U@	c #B69976",
"V@	c #C9AA7E",
"W@	c #D3B786",
"X@	c #CCB688",
"Y@	c #BCAD83",
"Z@	c #ACA27F",
"`@	c #A09983",
" #	c #9C9A96",
".#	c #5B5C61",
"+#	c #3B3435",
"@#	c #928671",
"##	c #BEB192",
"$#	c #AAA07D",
"%#	c #7E4F4A",
"&#	c #88524D",
"*#	c #85544D",
"=#	c #796450",
"-#	c #A48E6A",
";#	c #978163",
">#	c #988063",
",#	c #A68D69",
"'#	c #4F453E",
")#	c #65323C",
"!#	c #B85E59",
"~#	c #BC6A5F",
"{#	c #CFA57D",
"]#	c #D1B886",
"^#	c #BBA176",
"/#	c #A28C68",
"(#	c #8E8263",
"_#	c #BDAE81",
":#	c #8D8264",
"<#	c #372F38",
"[#	c #776356",
"}#	c #A88C70",
"|#	c #B89A77",
"1#	c #CEAF80",
"2#	c #D8BA88",
"3#	c #E1C996",
"4#	c #EBDBA7",
"5#	c #EFE3BB",
"6#	c #EBE6D7",
"7#	c #8B8A87",
"8#	c #6F5F4D",
"9#	c #BFAE8E",
"0#	c #E3D4AE",
"a#	c #CDC094",
"b#	c #6F4946",
"c#	c #86504C",
"d#	c #975350",
"e#	c #87544D",
"f#	c #997F61",
"g#	c #8D785C",
"h#	c #8D7660",
"i#	c #89735D",
"j#	c #7A6952",
"k#	c #65343C",
"l#	c #B25755",
"m#	c #B75B58",
"n#	c #D9BB8F",
"o#	c #E2D29C",
"p#	c #D9BF8C",
"q#	c #CCAE7F",
"r#	c #A78F6B",
"s#	c #B7A479",
"t#	c #84785D",
"u#	c #01102B",
"v#	c #4E4242",
"w#	c #8C7363",
"x#	c #AC9072",
"y#	c #CCAD7F",
"z#	c #D6B683",
"A#	c #DABE8B",
"B#	c #E4D09C",
"C#	c #EFE2B0",
"D#	c #F1E7C9",
"E#	c #9A968C",
"F#	c #A18F74",
"G#	c #DCCBA5",
"H#	c #E6DAB6",
"I#	c #C0B088",
"J#	c #7B4B48",
"K#	c #9B5D55",
"L#	c #A86259",
"M#	c #7E4846",
"N#	c #876D57",
"O#	c #67574B",
"P#	c #766157",
"Q#	c #6F5B53",
"R#	c #3B2F38",
"S#	c #694140",
"T#	c #B76A5D",
"U#	c #BD6D61",
"V#	c #D0A680",
"W#	c #DEC996",
"X#	c #DFCA95",
"Y#	c #D1B382",
"Z#	c #B19671",
"`#	c #B49B72",
" $	c #7E6D55",
".$	c #302B36",
"+$	c #604F4A",
"@$	c #8E7760",
"#$	c #C2A579",
"$$	c #D3B382",
"%$	c #D5B584",
"&$	c #DEC592",
"*$	c #EFE0AC",
"=$	c #F0E4BB",
"-$	c #C7C1B3",
";$	c #CFC3A7",
">$	c #E9D9A9",
",$	c #D8CB9E",
"'$	c #8F8569",
")$	c #834848",
"!$	c #914A4B",
"~$	c #9F4D4F",
"{$	c #7F494E",
"]$	c #563B44",
"^$	c #4C3F42",
"/$	c #533D45",
"($	c #573044",
"_$	c #62323C",
":$	c #735D4C",
"<$	c #C99E76",
"[$	c #C79170",
"}$	c #C3836D",
"|$	c #CDA17D",
"1$	c #D9BD8C",
"2$	c #DBC28E",
"3$	c #D2B383",
"4$	c #BA9D77",
"5$	c #B99D74",
"6$	c #7F6D55",
"7$	c #0E152E",
"8$	c #322639",
"9$	c #4C3645",
"0$	c #564645",
"a$	c #7B6953",
"b$	c #998262",
"c$	c #B69B72",
"d$	c #D5BD8C",
"e$	c #EEE0AC",
"f$	c #F1E6BD",
"g$	c #ECE6D2",
"h$	c #EBE0C1",
"i$	c #DECD9D",
"j$	c #B0A17A",
"k$	c #534F45",
"l$	c #554041",
"m$	c #78534F",
"n$	c #7E4B4B",
"o$	c #743B48",
"p$	c #62384F",
"q$	c #4D3348",
"r$	c #402C3F",
"s$	c #462A3D",
"t$	c #532C39",
"u$	c #75644F",
"v$	c #CEAF7F",
"w$	c #D5B586",
"x$	c #D8BB8E",
"y$	c #D3B087",
"z$	c #D1AC81",
"A$	c #D2B382",
"B$	c #BD9F79",
"C$	c #BFA179",
"D$	c #847158",
"E$	c #08142D",
"F$	c #2F2338",
"G$	c #482D46",
"H$	c #482C47",
"I$	c #3F2E3F",
"J$	c #504440",
"K$	c #72624E",
"L$	c #9D8D6B",
"M$	c #C6BA8F",
"N$	c #DED1A7",
"O$	c #F0E5C2",
"P$	c #E5D9B1",
"Q$	c #BAAA85",
"R$	c #766357",
"S$	c #2C2634",
"T$	c #04152C",
"U$	c #5F504A",
"V$	c #977E67",
"W$	c #A58A69",
"X$	c #8A6C58",
"Y$	c #60434B",
"Z$	c #492E47",
"`$	c #462C45",
" %	c #422A40",
".%	c #695A4A",
"+%	c #C0A478",
"@%	c #D7BE8B",
"#%	c #E5D69F",
"$%	c #D9BC8F",
"%%	c #CB9978",
"&%	c #CB9B76",
"*%	c #CBA279",
"=%	c #B49571",
"-%	c #BEA078",
";%	c #867159",
">%	c #00132B",
",%	c #302438",
"'%	c #58344C",
")%	c #733E55",
"!%	c #68394F",
"~%	c #522F45",
"{%	c #3A233D",
"]%	c #483F44",
"^%	c #7B725D",
"/%	c #A39674",
"(%	c #BDB188",
"_%	c #AFA480",
":%	c #897565",
"<%	c #60334B",
"[%	c #422A41",
"}%	c #00112B",
"|%	c #68574E",
"1%	c #AE9273",
"2%	c #74634F",
"3%	c #41323E",
"4%	c #442B43",
"5%	c #5A4E43",
"6%	c #A28A67",
"7%	c #D0B483",
"8%	c #DFCA94",
"9%	c #D6B58A",
"0%	c #C68B72",
"a%	c #BF7464",
"b%	c #BC7C65",
"c%	c #A1785F",
"d%	c #AE906E",
"e%	c #7C6A55",
"f%	c #0F162E",
"g%	c #3E2940",
"h%	c #6B3C56",
"i%	c #8C4758",
"j%	c #8A4659",
"k%	c #854558",
"l%	c #793F54",
"m%	c #62364C",
"n%	c #4A2F44",
"o%	c #382C3B",
"p%	c #484142",
"q%	c #513D46",
"r%	c #713D4F",
"s%	c #7F4154",
"t%	c #54324A",
"u%	c #14172E",
"v%	c #594A46",
"w%	c #967D65",
"x%	c #BC9F76",
"y%	c #BFA277",
"z%	c #857158",
"A%	c #423A3A",
"B%	c #C3A679",
"C%	c #CEA27A",
"D%	c #C27F68",
"E%	c #BA645C",
"F%	c #B35C57",
"G%	c #924F4D",
"H%	c #92715F",
"I%	c #66574C",
"J%	c #1D1C31",
"K%	c #412B42",
"L%	c #653A55",
"M%	c #814358",
"N%	c #8C4759",
"O%	c #A44E57",
"P%	c #AA5055",
"Q%	c #964A57",
"R%	c #7B4157",
"S%	c #623850",
"T%	c #57354B",
"U%	c #713D52",
"V%	c #884557",
"W%	c #7D4050",
"X%	c #40293D",
"Y%	c #2F2238",
"Z%	c #3C2C3D",
"`%	c #4F3F44",
" &	c #605148",
".&	c #6E5E4C",
"+&	c #443D3A",
"@&	c #8B775B",
"#&	c #C0A377",
"$&	c #CFA97C",
"%&	c #C4886B",
"&&	c #B75856",
"*&	c #B05454",
"=&	c #8E4F4D",
"-&	c #7C5D55",
";&	c #131A2E",
">&	c #2B2236",
",&	c #4B2E46",
"'&	c #693B56",
")&	c #814359",
"!&	c #A44F57",
"~&	c #B45455",
"{&	c #B15356",
"]&	c #A95056",
"^&	c #914857",
"/&	c #874556",
"(&	c #924957",
"_&	c #854250",
":&	c #532E3F",
"<&	c #252032",
"[&	c #3A273D",
"}&	c #412B41",
"|&	c #2A2733",
"1&	c #947E5F",
"2&	c #BB9D74",
"3&	c #B05253",
"4&	c #96494B",
"5&	c #724A49",
"6&	c #504041",
"7&	c #393339",
"8&	c #111A2D",
"9&	c #1A1D2F",
"0&	c #32243A",
"a&	c #6F3E59",
"b&	c #A04D58",
"c&	c #AC5257",
"d&	c #A44F58",
"e&	c #9E4C56",
"f&	c #8B434D",
"g&	c #62333F",
"h&	c #2B2132",
"i&	c #9A8362",
"j&	c #A77960",
"k&	c #9A4E4E",
"l&	c #794D4B",
"m&	c #4A3A3E",
"n&	c #252632",
"o&	c #151C2E",
"p&	c #201E31",
"q&	c #3E293F",
"r&	c #4D2F49",
"s&	c #59334B",
"t&	c #6B3849",
"u&	c #7A3D48",
"v&	c #7D3E48",
"w&	c #7E3E48",
"x&	c #7A3C45",
"y&	c #5E303B",
"z&	c #392433",
"A&	c #6E4B44",
"B&	c #6D4043",
"C&	c #5E4D49",
"D&	c #2D2A34",
"E&	c #1D1E30",
"F&	c #1F1E31",
"G&	c #1E1E31",
"H&	c #1D1E32",
"I&	c #1B1E31",
"J&	c #171D2F",
"K&	c #141C2E",
"L&	c #292432",
"M&	c #3A3239",
"N&	c #171C2E",
"                                                                                                ",
"                              . + @ # $ %                                                       ",
"                            & * = - ; > , ' )                                                   ",
"                          ! ~ { ] ^ / ( _ : < [                                                 ",
"                        } | 1 2 3 4 5 6 7 8 9 0 a                                               ",
"                        b c d e f g h i j k l m n                                               ",
"                      o p q r s t u v w x y z A B                                               ",
"                      C D E F G H I J K L M N O P                                     Q R       ",
"                      o S T U V W X Y Z `  ...+.@.                                    #.$.%.    ",
"                        &.*.=.-.;.>.,.'.).!.~.{.].^.                                /.(._.:.    ",
"                          <.[.}.|.1.2.3.4.5.6.7.8.9.0.                            a.b.c.d.e.    ",
"                                f.g.h.i.j.k.l.m.n.o.p.q.                          r.s.t.u.v.    ",
"                                w.x.y.z.A.B.C.D.E.F.G.H.I.                      J.K.L.M.N.O.    ",
"                              P.Q.R.S.T.U.V.W.X.Y.Z.`. +.+                      ++@+#+$+%+      ",
"                            &+*+=+-+;+>+,+'+)+!+~+{+]+^+/+                    (+_+:+<+[+        ",
"        }+|+                1+2+3+4+5+6+7+8+9+0+a+b+c+d+e+                  f+g+h+i+j+k+        ",
"        l+m+n+o+            p+q+r+s+t+u+6+v+w+x+y+z+A+B+C+D+                E+F+G+H+I+          ",
"        J+K+L+M+N+O+      P+Q+R+S+T+t+t+U+V+W+X+Y+Z+`+ @.@+@              @@#@$@%@&@*@          ",
"        =@-@;@>@,@'@)@!@  ~@{@]@^@/@(@j+_@:@<@[@}@|@1@2@3@4@              5@6@7@8@9@            ",
"        0@a@b@c@d@e@f@g@h@i@j@k@l@m@n@o@p@q@r@s@t@u@v@w@x@y@        z@A@B@C@D@E@F@G@            ",
"        H@I@J@K@L@M@N@O@P@Q@R@S@T@U@V@W@X@Y@Z@`@ #.#+#@###$#      %#&#*#=#-#;#>#,#'#            ",
"        )#I@!#~#{#]#^#/#(#_#:#<#[#}#|#1#2#3#4#5#6#7#8#9#0#a#    b#c#d#e#f#g#h#i#j#              ",
"        k#l#m#7 n#o#p#q#r#s#t#u#v#w#x#y#z#A#B#C#D#E#F#G#H#I#    J#K#L#M#N#O#P#Q#R#              ",
"        S#T#!#U#V#W#X#Y#Z#`# $&+.$+$@$#$$$%$&$*$=$-$;$>$,$'$      )$!$~${$]$^$/$($_$            ",
"        :$<$[$}$|$1$2$3$4$5$6$7$8$9$0$a$b$c$d$e$f$g$h$i$j$k$      l$m$n$o$p$q$r$s$t$            ",
"        u$v$w$x$y$z$%$A$B$C$D$E$F$G$H$I$J$K$L$M$N$O$P$Q$R$S$    T$U$V$W$X$Y$Z$`$ %              ",
"        .%+%@%#%$%%%&%*%=%-%;%>%,%'%)%!%~%{%]%^%/%(%_%:%<%[%    }%|%1%1#c$2%3%4%                ",
"        5%6%7%8%9%0%a%b%c%d%e%f%g%h%i%j%k%l%m%n%o%p%q%r%s%t%    u%v%w%x%y%z%A%                  ",
"          a$B%R C%D%E%F%G%H%I%J%K%L%M%N%O%P%Q%R%S%T%U%V%W%X%    Y%Z%`% &.&+&                    ",
"            @&#&$&%&&&*&=&-&w.;&>&,&'&)&!&~&{&]&^&/&(&_&:&<&    >&[&}&|&                        ",
"              1&2&[$3&4&5&6&7&8&9&0&I a&V b&c&c&d&e&f&g&h&                                      ",
"                i&j&k&l&m&n&    o&p&q&r&s&t&u&v&w&x&y&z&                                        ",
"                  A&B&C&D&        P+o&E&F&G&H&I&I&J&K&K&                                        ",
"                    L&M&            P+P+N&N&  N&N&P+P+P+P+                                      ",
"                                        P+P+  P+  P+P+P+                                        ",
"                                        P+P+P+                                                  ",
"                                                                                                ",
"                                                                                                ",
"                                                                                                ",
"                                                                                                "};
